<?xml version="1.0" encoding="iso-8859-1"?>
<!-- Generator: Adobe Illustrator 16.0.0, SVG Export Plug-In . SVG Version: 6.00 Build 0)  -->
<!DOCTYPE svg PUBLIC "-//W3C//DTD SVG 1.1//EN" "http://www.w3.org/Graphics/SVG/1.1/DTD/svg11.dtd">
<svg version="1.1" id="Layer_1" xmlns="http://www.w3.org/2000/svg" xmlns:xlink="http://www.w3.org/1999/xlink" x="0px" y="0px"
	 width="210px" height="210px" viewBox="0 0 210 210" style="enable-background:new 0 0 210 210;" xml:space="preserve">
<g>
	<g>
		<ellipse style="fill:#DEE8EC;" cx="106.418" cy="104.821" rx="104.999" ry="104.92"/>
		<path style="fill-rule:evenodd;clip-rule:evenodd;fill:#E290BD;" d="M34.293,104.497c-0.187-39.978,32.785-72.691,73.091-72.094
			c39.027,0.576,71.488,32.501,71.079,72.783c-0.405,39.766-32.887,71.888-72.913,71.4C65.564,176.1,34.011,143.445,34.293,104.497z
			"/>
		<path style="fill-rule:evenodd;clip-rule:evenodd;fill:#E982B5;" d="M40.221,104.961c-0.172-36.7,30.096-66.733,67.098-66.186
			c35.828,0.529,65.627,29.837,65.251,66.816c-0.371,36.505-30.189,65.993-66.935,65.547
			C68.927,170.692,39.96,140.714,40.221,104.961z"/>
		<path style="fill-rule:evenodd;clip-rule:evenodd;fill:#E982B5;" d="M196.737,158.275c-9.199-5.092-18.353-10.157-27.339-15.132
			c1.845-3.97,3.817-7.71,5.34-11.626c1.505-3.87,2.554-7.917,3.854-12.044c3.006,0.754,6.171,1.541,9.331,2.339
			c6.596,1.667,13.188,3.345,19.786,5.003c0.766,0.193,1.408,0.271,1.147,1.408c-2.401,10.435-6.267,20.284-11.676,29.526
			C197.106,157.876,196.992,157.976,196.737,158.275z"/>
		<path style="fill-rule:evenodd;clip-rule:evenodd;fill:#E982B5;" d="M67.814,167.432c7.388,4.487,15.15,7.559,23.596,9.374
			c-0.536,2.146-1.057,4.239-1.584,6.332c-1.892,7.506-3.822,15.002-5.646,22.525c-0.36,1.483-0.903,1.695-2.344,1.35
			c-9.781-2.351-19.028-6.014-27.763-10.987c-0.469-0.268-0.914-0.578-1.542-0.977C57.613,185.864,62.672,176.724,67.814,167.432z"
			/>
		<path style="fill-rule:evenodd;clip-rule:evenodd;fill:#E982B5;" d="M15.637,158.486c-2.292-4.856-4.763-9.406-6.616-14.194
			c-1.981-5.121-3.379-10.468-5.032-15.713c-0.266-0.844-0.328-1.437,0.848-1.729c9.778-2.428,19.54-4.921,29.522-7.451
			c1.754,8.343,4.715,16.182,9.215,23.613C34.363,148.114,25.218,153.179,15.637,158.486z"/>
		<path style="fill-rule:evenodd;clip-rule:evenodd;fill:#E982B5;" d="M129.053,207.396c-2.613-10.333-5.154-20.376-7.662-30.293
			c4.116-1.339,8.186-2.444,12.081-3.992c3.906-1.551,7.638-3.543,11.6-5.414c4.955,8.947,10.014,18.081,15.168,27.391
			C150.483,200.916,140.189,204.979,129.053,207.396z"/>
		<path style="fill-rule:evenodd;clip-rule:evenodd;fill:#E982B5;" d="M16.38,50.998C25.597,56.1,34.703,61.14,43.956,66.261
			c-4.413,7.294-7.558,15.01-9.378,23.425c-2.476-0.611-4.864-1.191-7.247-1.794c-7.408-1.875-14.81-3.775-22.225-5.617
			c-0.926-0.23-1.224-0.537-0.992-1.511c2.442-10.262,6.328-19.937,11.689-29.019C15.927,51.536,16.101,51.357,16.38,50.998z"/>
		<path style="fill-rule:evenodd;clip-rule:evenodd;fill:#E982B5;" d="M178.203,89.714c-1.807-8.382-4.925-16.114-9.411-23.45
			c9.224-5.109,18.358-10.165,27.626-15.297c0.435,0.691,0.818,1.256,1.155,1.844c4.974,8.72,8.663,17.949,10.999,27.718
			c0.2,0.836,0.346,1.442-0.845,1.736C197.953,84.689,188.194,87.184,178.203,89.714z"/>
		<path style="fill-rule:evenodd;clip-rule:evenodd;fill:#E982B5;" d="M159.87,14.651c-5.141,9.281-10.182,18.385-15.288,27.603
			c-7.328-4.367-15.041-7.421-23.381-9.171c0.102-0.546,0.164-1.021,0.28-1.479c2.349-9.283,4.726-18.559,7.029-27.852
			c0.287-1.159,0.671-1.36,1.821-1.091c9.879,2.323,19.216,5.999,28.03,11.019C158.828,13.946,159.266,14.262,159.87,14.651z"/>
		<path style="fill-rule:evenodd;clip-rule:evenodd;fill:#E982B5;" d="M91.503,32.796c-4.094,1.307-8.132,2.374-11.994,3.891
			c-3.867,1.52-7.559,3.485-11.48,5.328c-4.958-8.954-10.025-18.101-15.126-27.312c0.336-0.262,0.579-0.498,0.862-0.663
			c9.042-5.24,18.654-9.037,28.83-11.427c0.914-0.215,1.348-0.085,1.59,0.886c2.382,9.534,4.797,19.059,7.202,28.587
			C91.446,32.323,91.467,32.57,91.503,32.796z"/>
		<path style="fill-rule:evenodd;clip-rule:evenodd;fill:#E982B5;" d="M211.395,108.967c-10.657,0-21.116,0-31.667,0
			c0-2.94,0-5.839,0-8.857c0.485-0.025,0.964-0.074,1.442-0.074c9.488,0.003,18.977,0.042,28.464-0.014
			c1.401-0.009,1.825,0.431,1.781,1.771C211.34,104.121,211.395,106.453,211.395,108.967z"/>
		<path style="fill-rule:evenodd;clip-rule:evenodd;fill:#E982B5;" d="M102.048,178.295c2.855,0,5.71,0,8.722,0
			c0.032,0.473,0.092,0.943,0.092,1.416c-0.001,9.489-0.035,18.978,0.01,28.466c0.006,1.311-0.401,1.769-1.689,1.722
			c-2.033-0.075-4.07-0.032-6.104-0.032c-0.76,0-1.191-0.248-1.189-1.125c0.017-9.985,0.01-19.972,0.015-29.957
			C101.904,178.646,101.983,178.507,102.048,178.295z"/>
		<path style="fill-rule:evenodd;clip-rule:evenodd;fill:#E982B5;" d="M33.034,108.969c-10.544,0-21.005,0-31.614,0
			c0-2.946,0-5.81,0-8.805c10.612,0,21.107,0,31.614,0C33.034,103.082,33.034,105.984,33.034,108.969z"/>
		<path style="fill-rule:evenodd;clip-rule:evenodd;fill:#E982B5;" d="M110.781,0.062c0,10.62,0,21.028,0,31.533
			c-2.933,0-5.789,0-8.772,0c0-10.455,0-20.901,0-31.533C104.899,0.062,107.754,0.062,110.781,0.062z"/>
	</g>
	<g>
		<g>
			<path style="fill:#FFFFFF;" d="M83.14,109.997v5.643H59.179c0.259-2.133,1.038-4.153,2.335-6.064
				c1.298-1.909,3.86-4.442,7.688-7.598c3.08-2.551,4.97-4.279,5.667-5.188c0.94-1.254,1.411-2.493,1.411-3.719
				c0-1.354-0.41-2.396-1.229-3.124c-0.819-0.727-1.95-1.09-3.394-1.09c-1.427,0-2.563,0.382-3.406,1.145
				c-0.843,0.764-1.33,2.032-1.459,3.805l-6.812-0.605c0.405-3.343,1.678-5.742,3.819-7.198c2.141-1.456,4.816-2.184,8.028-2.184
				c3.519,0,6.283,0.843,8.294,2.529c2.011,1.687,3.017,3.783,3.017,6.29c0,1.427-0.288,2.786-0.863,4.076
				c-0.576,1.289-1.489,2.64-2.737,4.052c-0.827,0.938-2.319,2.285-4.476,4.043c-2.157,1.758-3.523,2.925-4.099,3.502
				c-0.576,0.577-1.042,1.138-1.398,1.686H83.14z"/>
			<path style="fill:#FFFFFF;" d="M89.221,115.64v-6.075h6.835v6.075H89.221z"/>
			<path style="fill:#FFFFFF;" d="M101.701,107.49l6.811-0.628c0.194,1.369,0.77,2.453,1.727,3.255
				c0.957,0.799,2.059,1.199,3.309,1.199c1.427,0,2.635-0.516,3.625-1.546c0.989-1.029,1.484-2.583,1.484-4.659
				c0-1.944-0.491-3.403-1.472-4.376c-0.981-0.974-2.258-1.46-3.832-1.46c-1.962,0-3.722,0.771-5.279,2.313l-5.546-0.714
				l3.503-16.492h18.074v5.684h-12.893l-1.07,5.384c1.524-0.678,3.081-1.016,4.67-1.016c3.032,0,5.603,0.979,7.711,2.939
				c2.108,1.959,3.163,4.504,3.163,7.63c0,2.608-0.852,4.937-2.554,6.982c-2.319,2.796-5.539,4.192-9.658,4.192
				c-3.292,0-5.976-0.784-8.052-2.355C103.346,112.253,102.106,110.142,101.701,107.49z"/>
			<path style="fill:#FFFFFF;" d="M140.865,83.819c3.454,0,6.155,1.097,8.101,3.286c2.319,2.595,3.479,6.896,3.479,12.906
				c0,5.994-1.168,10.302-3.503,12.925c-1.93,2.162-4.622,3.242-8.076,3.242c-3.471,0-6.268-1.184-8.392-3.556
				c-2.125-2.37-3.187-6.596-3.187-12.678c0-5.966,1.168-10.26,3.503-12.884C134.718,84.899,137.41,83.819,140.865,83.819z
				 M140.865,88.857c-0.828,0-1.565,0.233-2.213,0.702c-0.649,0.468-1.152,1.307-1.509,2.519c-0.47,1.57-0.705,4.215-0.705,7.934
				c0,3.717,0.21,6.271,0.632,7.661c0.422,1.393,0.952,2.317,1.594,2.778c0.64,0.461,1.374,0.691,2.201,0.691
				c0.827,0,1.565-0.233,2.213-0.701c0.649-0.469,1.152-1.31,1.508-2.52c0.47-1.557,0.706-4.193,0.706-7.91
				c0-3.719-0.211-6.273-0.633-7.665c-0.421-1.389-0.953-2.319-1.593-2.787C142.425,89.091,141.691,88.857,140.865,88.857z"/>
		</g>
	</g>
</g>
</svg>
