<?xml version="1.0" encoding="iso-8859-1"?>
<!-- Generator: Adobe Illustrator 16.0.0, SVG Export Plug-In . SVG Version: 6.00 Build 0)  -->
<!DOCTYPE svg PUBLIC "-//W3C//DTD SVG 1.1//EN" "http://www.w3.org/Graphics/SVG/1.1/DTD/svg11.dtd">
<svg version="1.1" id="Layer_1" xmlns="http://www.w3.org/2000/svg" xmlns:xlink="http://www.w3.org/1999/xlink" x="0px" y="0px"
	 width="210px" height="210px" viewBox="0 0 210 210" style="enable-background:new 0 0 210 210;" xml:space="preserve">
<g>
	<g>
		<path style="fill-rule:evenodd;clip-rule:evenodd;" d="M192.274,97.962c0,10.626,0,21.045,0,31.559c-2.934,0-5.789,0-8.773,0
			c0-10.465,0-20.918,0-31.559C186.392,97.962,189.246,97.962,192.274,97.962z"/>
		<circle style="fill:#DEE8EC;" cx="104.931" cy="105.592" r="104.999"/>
		<path style="fill-rule:evenodd;clip-rule:evenodd;fill:#CB2827;" d="M32.806,105.107c-0.187-40.008,32.786-72.746,73.091-72.149
			c39.027,0.578,71.488,32.526,71.079,72.839c-0.404,39.795-32.886,71.941-72.913,71.454
			C64.077,176.764,32.523,144.085,32.806,105.107z"/>
		<path style="fill-rule:evenodd;clip-rule:evenodd;fill:#A41D21;" d="M38.734,105.57c-0.173-36.728,30.097-66.782,67.098-66.235
			c35.828,0.531,65.627,29.859,65.251,66.867c-0.371,36.533-30.19,66.043-66.934,65.597C67.44,171.352,38.474,141.352,38.734,105.57
			z"/>
		<path style="fill-rule:evenodd;clip-rule:evenodd;fill:#A41D21;" d="M195.251,158.927c-9.201-5.096-18.354-10.166-27.341-15.145
			c1.845-3.97,3.818-7.715,5.341-11.634c1.504-3.873,2.555-7.922,3.854-12.052c3.006,0.754,6.17,1.542,9.331,2.34
			c6.595,1.668,13.188,3.349,19.785,5.008c0.766,0.192,1.408,0.269,1.147,1.408c-2.401,10.443-6.268,20.3-11.676,29.55
			C195.62,158.526,195.506,158.627,195.251,158.927z"/>
		<path style="fill-rule:evenodd;clip-rule:evenodd;fill:#A41D21;" d="M66.327,168.089c7.388,4.492,15.15,7.565,23.596,9.381
			c-0.537,2.149-1.058,4.244-1.584,6.337c-1.892,7.513-3.822,15.015-5.646,22.542c-0.359,1.484-0.902,1.698-2.344,1.352
			c-9.781-2.353-19.028-6.02-27.763-10.995c-0.469-0.268-0.914-0.578-1.542-0.979C56.126,186.535,61.185,177.389,66.327,168.089z"/>
		<path style="fill-rule:evenodd;clip-rule:evenodd;fill:#A41D21;" d="M14.149,159.137c-2.292-4.858-4.763-9.413-6.616-14.206
			c-1.981-5.124-3.379-10.474-5.032-15.725c-0.266-0.843-0.328-1.436,0.848-1.729c9.778-2.429,19.54-4.925,29.522-7.456
			c1.753,8.348,4.715,16.193,9.215,23.63C32.875,148.759,23.731,153.825,14.149,159.137z"/>
		<path style="fill-rule:evenodd;clip-rule:evenodd;fill:#A41D21;" d="M127.565,208.083c-2.613-10.34-5.153-20.39-7.662-30.315
			c4.115-1.34,8.185-2.447,12.081-3.995c3.905-1.553,7.637-3.545,11.6-5.418c4.955,8.953,10.014,18.094,15.168,27.41
			C148.996,201.599,138.703,205.667,127.565,208.083z"/>
		<path style="fill-rule:evenodd;clip-rule:evenodd;fill:#A41D21;" d="M14.893,51.568c9.216,5.104,18.324,10.148,27.576,15.273
			c-4.413,7.299-7.557,15.021-9.379,23.443c-2.475-0.613-4.863-1.191-7.246-1.795c-7.408-1.876-14.81-3.778-22.225-5.622
			c-0.926-0.23-1.224-0.538-0.992-1.511c2.442-10.27,6.328-19.951,11.689-29.042C14.439,52.107,14.613,51.927,14.893,51.568z"/>
		<path style="fill-rule:evenodd;clip-rule:evenodd;fill:#A41D21;" d="M176.716,90.312c-1.808-8.388-4.926-16.125-9.411-23.468
			c9.224-5.112,18.358-10.172,27.627-15.308c0.435,0.691,0.818,1.255,1.154,1.845c4.975,8.727,8.663,17.963,10.999,27.738
			c0.2,0.837,0.346,1.443-0.844,1.739C196.466,85.285,186.708,87.781,176.716,90.312z"/>
		<path style="fill-rule:evenodd;clip-rule:evenodd;fill:#A41D21;" d="M158.383,15.193c-5.141,9.288-10.183,18.398-15.288,27.623
			c-7.327-4.371-15.041-7.427-23.38-9.178c0.102-0.546,0.164-1.02,0.28-1.479c2.349-9.291,4.725-18.573,7.029-27.875
			c0.288-1.159,0.671-1.361,1.821-1.091c9.879,2.326,19.216,6.006,28.029,11.029C157.341,14.487,157.779,14.804,158.383,15.193z"/>
		<path style="fill-rule:evenodd;clip-rule:evenodd;fill:#A41D21;" d="M90.017,33.352c-4.095,1.307-8.133,2.376-11.995,3.894
			c-3.868,1.52-7.559,3.488-11.479,5.332c-4.959-8.96-10.025-18.114-15.126-27.332c0.336-0.262,0.578-0.499,0.861-0.662
			c9.042-5.246,18.654-9.046,28.83-11.437c0.914-0.215,1.348-0.083,1.59,0.887c2.382,9.541,4.798,19.073,7.201,28.608
			C89.959,32.879,89.98,33.125,90.017,33.352z"/>
		<path style="fill-rule:evenodd;clip-rule:evenodd;fill:#A41D21;" d="M209.909,109.58c-10.659,0-21.116,0-31.667,0
			c0-2.944,0-5.844,0-8.863c0.484-0.027,0.964-0.075,1.442-0.075c9.488,0.004,18.977,0.042,28.465-0.015
			c1.401-0.009,1.825,0.433,1.78,1.773C209.853,104.73,209.909,107.065,209.909,109.58z"/>
		<path style="fill-rule:evenodd;clip-rule:evenodd;fill:#A41D21;" d="M100.56,178.961c2.855,0,5.711,0,8.723,0
			c0.032,0.472,0.091,0.945,0.091,1.417c-0.002,9.496-0.035,18.991,0.01,28.488c0.006,1.313-0.4,1.771-1.689,1.723
			c-2.032-0.075-4.069-0.033-6.104-0.034c-0.761,0-1.191-0.248-1.189-1.125c0.017-9.993,0.01-19.986,0.015-29.979
			C100.417,179.312,100.496,179.172,100.56,178.961z"/>
		<path style="fill-rule:evenodd;clip-rule:evenodd;fill:#A41D21;" d="M31.546,109.581c-10.544,0-21.005,0-31.614,0
			c0-2.948,0-5.814,0-8.811c10.612,0,21.107,0,31.614,0C31.546,103.692,31.546,106.596,31.546,109.581z"/>
	</g>
	<g>
		<g>
			<path style="fill:#FFFFFF;" d="M93.293,108.102l6.811-0.627c0.194,1.37,0.77,2.455,1.727,3.256c0.957,0.8,2.059,1.2,3.308,1.2
				c1.427,0,2.635-0.515,3.625-1.547c0.989-1.03,1.484-2.584,1.484-4.662c0-1.946-0.491-3.407-1.472-4.38
				c-0.981-0.974-2.258-1.46-3.832-1.46c-1.962,0-3.721,0.771-5.278,2.314l-5.547-0.714l3.503-16.505h18.074v5.69h-12.893
				l-1.07,5.386c1.524-0.678,3.081-1.016,4.67-1.016c3.032,0,5.603,0.981,7.711,2.942c2.108,1.961,3.163,4.507,3.163,7.636
				c0,2.611-0.851,4.939-2.554,6.987c-2.32,2.798-5.539,4.197-9.658,4.197c-3.292,0-5.976-0.786-8.052-2.358
				C94.938,112.869,93.698,110.756,93.293,108.102z"/>
		</g>
	</g>
</g>
</svg>
