<?xml version="1.0" encoding="iso-8859-1"?>
<!-- Generator: Adobe Illustrator 16.0.0, SVG Export Plug-In . SVG Version: 6.00 Build 0)  -->
<!DOCTYPE svg PUBLIC "-//W3C//DTD SVG 1.1//EN" "http://www.w3.org/Graphics/SVG/1.1/DTD/svg11.dtd">
<svg version="1.1" id="Layer_1" xmlns="http://www.w3.org/2000/svg" xmlns:xlink="http://www.w3.org/1999/xlink" x="0px" y="0px"
	 width="210px" height="210px" viewBox="0 0 210 210" style="enable-background:new 0 0 210 210;" xml:space="preserve">
<g>
	<g>
		<circle style="fill:#DEE8EC;" cx="106.658" cy="104.9" r="104.998"/>
		<path style="fill-rule:evenodd;clip-rule:evenodd;fill:#22AF4B;" d="M34.534,104.417C34.347,64.409,67.32,31.67,107.625,32.268
			c39.027,0.577,71.487,32.526,71.079,72.839c-0.404,39.796-32.886,71.942-72.913,71.455
			C65.805,176.074,34.251,143.395,34.534,104.417z"/>
		<path style="fill-rule:evenodd;clip-rule:evenodd;fill:#138842;" d="M40.461,104.879C40.29,68.151,70.558,38.097,107.56,38.646
			c35.828,0.529,65.627,29.859,65.252,66.866c-0.372,36.533-30.189,66.044-66.935,65.598
			C69.167,170.661,40.202,140.661,40.461,104.879z"/>
		<path style="fill-rule:evenodd;clip-rule:evenodd;fill:#22AF4B;" d="M196.979,158.236c-9.201-5.096-18.354-10.165-27.341-15.144
			c1.846-3.973,3.819-7.716,5.342-11.635c1.504-3.873,2.555-7.924,3.853-12.053c3.007,0.754,6.17,1.54,9.332,2.34
			c6.596,1.667,13.188,3.348,19.786,5.007c0.765,0.192,1.408,0.269,1.146,1.41c-2.401,10.442-6.268,20.299-11.676,29.549
			C197.348,157.836,197.233,157.936,196.979,158.236z"/>
		<path style="fill-rule:evenodd;clip-rule:evenodd;fill:#22AF4B;" d="M68.055,167.399c7.388,4.49,15.15,7.564,23.596,9.381
			c-0.537,2.147-1.058,4.242-1.585,6.335c-1.891,7.512-3.822,15.016-5.646,22.544c-0.359,1.485-0.902,1.697-2.343,1.351
			c-9.782-2.352-19.028-6.018-27.763-10.996c-0.47-0.267-0.915-0.577-1.542-0.978C57.854,185.844,62.913,176.698,68.055,167.399z"/>
		<path style="fill-rule:evenodd;clip-rule:evenodd;fill:#22AF4B;" d="M15.877,158.445c-2.293-4.858-4.763-9.411-6.615-14.205
			c-1.981-5.125-3.38-10.474-5.033-15.726c-0.265-0.844-0.328-1.435,0.848-1.727c9.779-2.43,19.54-4.928,29.522-7.458
			c1.753,8.35,4.715,16.194,9.215,23.631C34.603,148.067,25.459,153.136,15.877,158.445z"/>
		<path style="fill-rule:evenodd;clip-rule:evenodd;fill:#22AF4B;" d="M129.294,207.394c-2.614-10.341-5.153-20.392-7.663-30.316
			c4.116-1.339,8.185-2.446,12.08-3.995c3.906-1.552,7.639-3.545,11.6-5.418c4.956,8.954,10.015,18.095,15.169,27.411
			C150.724,200.907,140.43,204.976,129.294,207.394z"/>
		<path style="fill-rule:evenodd;clip-rule:evenodd;fill:#22AF4B;" d="M16.621,50.877c9.217,5.105,18.324,10.149,27.576,15.274
			c-4.412,7.298-7.557,15.021-9.378,23.442c-2.475-0.611-4.864-1.192-7.246-1.795c-7.408-1.876-14.81-3.778-22.225-5.622
			c-0.926-0.229-1.224-0.538-0.992-1.511c2.442-10.271,6.328-19.952,11.688-29.041C16.167,51.416,16.341,51.237,16.621,50.877z"/>
		<path style="fill-rule:evenodd;clip-rule:evenodd;fill:#22AF4B;" d="M178.444,89.622c-1.807-8.389-4.926-16.126-9.411-23.469
			c9.224-5.112,18.358-10.172,27.626-15.308c0.436,0.692,0.818,1.257,1.156,1.846c4.973,8.726,8.662,17.963,10.999,27.738
			c0.199,0.837,0.345,1.443-0.846,1.738C198.193,84.595,188.435,87.089,178.444,89.622z"/>
		<path style="fill-rule:evenodd;clip-rule:evenodd;fill:#22AF4B;" d="M160.11,14.503c-5.14,9.288-10.183,18.398-15.288,27.623
			c-7.327-4.37-15.04-7.427-23.382-9.178c0.103-0.546,0.166-1.021,0.282-1.48c2.347-9.29,4.725-18.572,7.028-27.873
			c0.288-1.16,0.671-1.361,1.82-1.092c9.879,2.325,19.216,6.005,28.03,11.027C159.069,13.797,159.507,14.112,160.11,14.503z"/>
		<path style="fill-rule:evenodd;clip-rule:evenodd;fill:#22AF4B;" d="M91.745,32.661c-4.094,1.308-8.132,2.376-11.995,3.894
			c-3.868,1.521-7.559,3.488-11.479,5.332c-4.959-8.961-10.025-18.114-15.127-27.332c0.337-0.262,0.578-0.499,0.861-0.663
			c9.042-5.245,18.654-9.045,28.831-11.436c0.914-0.216,1.348-0.085,1.589,0.887c2.383,9.54,4.799,19.072,7.203,28.607
			C91.687,32.188,91.708,32.436,91.745,32.661z"/>
		<path style="fill-rule:evenodd;clip-rule:evenodd;fill:#22AF4B;" d="M211.636,108.89c-10.659,0-21.115,0-31.666,0
			c0-2.942,0-5.845,0-8.864c0.483-0.024,0.964-0.074,1.442-0.074c9.488,0.003,18.977,0.041,28.464-0.016
			c1.401-0.007,1.826,0.434,1.78,1.774C211.581,104.04,211.636,106.374,211.636,108.89z"/>
		<path style="fill-rule:evenodd;clip-rule:evenodd;fill:#22AF4B;" d="M102.289,178.271c2.854,0,5.71,0,8.722,0
			c0.032,0.472,0.091,0.943,0.091,1.416c-0.002,9.495-0.034,18.992,0.01,28.487c0.007,1.313-0.399,1.771-1.688,1.724
			c-2.033-0.075-4.07-0.032-6.104-0.032c-0.761,0-1.191-0.25-1.19-1.128c0.017-9.992,0.01-19.985,0.015-29.978
			C102.144,178.621,102.224,178.483,102.289,178.271z"/>
		<path style="fill-rule:evenodd;clip-rule:evenodd;fill:#22AF4B;" d="M33.274,108.89c-10.543,0-21.004,0-31.614,0
			c0-2.946,0-5.813,0-8.809c10.612,0,21.107,0,31.614,0C33.274,103.001,33.274,105.905,33.274,108.89z"/>
		<path style="fill-rule:evenodd;clip-rule:evenodd;fill:#22AF4B;" d="M111.022-0.099c0,10.628,0,21.045,0,31.558
			c-2.934,0-5.789,0-8.773,0c0-10.463,0-20.918,0-31.558C105.14-0.099,107.994-0.099,111.022-0.099z"/>
	</g>
	<g>
		<g>
			<path style="fill:#FFFFFF;" d="M104.155,109.922v5.646H80.194c0.259-2.135,1.037-4.157,2.335-6.069
				c1.296-1.91,3.859-4.445,7.687-7.604c3.082-2.553,4.97-4.283,5.667-5.191c0.94-1.255,1.411-2.496,1.411-3.722
				c0-1.354-0.41-2.397-1.228-3.126c-0.82-0.728-1.951-1.091-3.394-1.091c-1.427,0-2.563,0.382-3.406,1.145
				c-0.843,0.765-1.328,2.034-1.459,3.808l-6.811-0.605c0.405-3.346,1.679-5.747,3.818-7.204c2.142-1.457,4.816-2.185,8.028-2.185
				c3.519,0,6.283,0.844,8.294,2.531c2.011,1.688,3.017,3.786,3.017,6.294c0,1.429-0.288,2.789-0.864,4.079
				c-0.576,1.291-1.488,2.642-2.738,4.056c-0.826,0.938-2.318,2.286-4.475,4.046c-2.157,1.759-3.523,2.927-4.1,3.504
				c-0.576,0.578-1.042,1.14-1.398,1.688H104.155z"/>
			<path style="fill:#FFFFFF;" d="M108.875,107.412l6.811-0.629c0.195,1.371,0.77,2.456,1.727,3.258c0.957,0.8,2.059,1.2,3.308,1.2
				c1.427,0,2.636-0.516,3.625-1.547c0.989-1.03,1.484-2.585,1.484-4.662c0-1.946-0.492-3.406-1.472-4.38
				c-0.982-0.974-2.258-1.461-3.831-1.461c-1.963,0-3.722,0.772-5.279,2.314l-5.546-0.714l3.503-16.505h18.074v5.688h-12.894
				l-1.07,5.387c1.525-0.678,3.081-1.016,4.671-1.016c3.032,0,5.602,0.98,7.711,2.941c2.107,1.961,3.163,4.507,3.163,7.636
				c0,2.61-0.852,4.94-2.555,6.988c-2.32,2.798-5.538,4.195-9.658,4.195c-3.292,0-5.976-0.785-8.051-2.357
				C110.521,112.179,109.28,110.065,108.875,107.412z"/>
		</g>
	</g>
</g>
</svg>
