<?xml version="1.0" encoding="iso-8859-1"?>
<!-- Generator: Adobe Illustrator 16.0.0, SVG Export Plug-In . SVG Version: 6.00 Build 0)  -->
<!DOCTYPE svg PUBLIC "-//W3C//DTD SVG 1.1//EN" "http://www.w3.org/Graphics/SVG/1.1/DTD/svg11.dtd">
<svg version="1.1" id="Layer_1" xmlns="http://www.w3.org/2000/svg" xmlns:xlink="http://www.w3.org/1999/xlink" x="0px" y="0px"
	 width="210px" height="210px" viewBox="0 0 210 210" style="enable-background:new 0 0 210 210;" xml:space="preserve">
<g>
	<g>
		<circle style="fill:#DEE8EC;" cx="105.507" cy="105.592" r="104.999"/>
		<path style="fill-rule:evenodd;clip-rule:evenodd;fill:#606060;" d="M33.382,105.107c-0.187-40.008,32.785-72.746,73.091-72.149
			c39.027,0.578,71.488,32.526,71.079,72.839c-0.405,39.795-32.887,71.941-72.913,71.454
			C64.653,176.764,33.1,144.085,33.382,105.107z"/>
		<path style="fill-rule:evenodd;clip-rule:evenodd;" d="M39.31,105.57c-0.172-36.728,30.096-66.782,67.098-66.235
			c35.828,0.531,65.627,29.859,65.251,66.867c-0.371,36.533-30.189,66.043-66.935,65.597
			C68.016,171.352,39.049,141.352,39.31,105.57z"/>
		<path style="fill-rule:evenodd;clip-rule:evenodd;" d="M195.826,158.927c-9.199-5.096-18.353-10.166-27.339-15.145
			c1.845-3.97,3.818-7.715,5.34-11.634c1.505-3.873,2.554-7.922,3.854-12.052c3.006,0.754,6.17,1.542,9.33,2.34
			c6.596,1.668,13.188,3.349,19.786,5.008c0.766,0.192,1.408,0.269,1.147,1.408c-2.401,10.443-6.267,20.3-11.676,29.55
			C196.195,158.526,196.081,158.627,195.826,158.927z"/>
		<path style="fill-rule:evenodd;clip-rule:evenodd;" d="M66.903,168.089c7.388,4.492,15.149,7.565,23.596,9.381
			c-0.536,2.149-1.057,4.244-1.584,6.337c-1.892,7.513-3.822,15.015-5.646,22.542c-0.36,1.484-0.903,1.698-2.344,1.352
			c-9.781-2.353-19.028-6.02-27.763-10.995c-0.469-0.268-0.914-0.578-1.542-0.979C56.702,186.535,61.761,177.389,66.903,168.089z"/>
		<path style="fill-rule:evenodd;clip-rule:evenodd;" d="M14.726,159.137c-2.292-4.858-4.763-9.413-6.616-14.206
			c-1.981-5.124-3.379-10.474-5.032-15.725c-0.266-0.843-0.328-1.436,0.848-1.729c9.779-2.429,19.54-4.925,29.522-7.456
			c1.754,8.348,4.715,16.193,9.215,23.63C33.452,148.759,24.307,153.825,14.726,159.137z"/>
		<path style="fill-rule:evenodd;clip-rule:evenodd;" d="M128.142,208.083c-2.613-10.34-5.154-20.39-7.662-30.315
			c4.116-1.34,8.186-2.447,12.081-3.995c3.906-1.553,7.638-3.545,11.6-5.418c4.955,8.953,10.014,18.094,15.168,27.41
			C149.572,201.599,139.278,205.667,128.142,208.083z"/>
		<path style="fill-rule:evenodd;clip-rule:evenodd;" d="M15.469,51.568c9.217,5.104,18.323,10.148,27.577,15.273
			c-4.414,7.299-7.558,15.021-9.379,23.443c-2.476-0.613-4.864-1.191-7.246-1.795c-7.408-1.876-14.81-3.778-22.225-5.622
			c-0.926-0.23-1.224-0.538-0.992-1.511c2.442-10.27,6.328-19.951,11.689-29.042C15.016,52.107,15.19,51.927,15.469,51.568z"/>
		<path style="fill-rule:evenodd;clip-rule:evenodd;" d="M177.292,90.312c-1.807-8.388-4.925-16.125-9.411-23.468
			c9.224-5.112,18.358-10.172,27.626-15.308c0.435,0.691,0.818,1.255,1.155,1.845c4.974,8.727,8.663,17.963,10.999,27.738
			c0.2,0.837,0.346,1.443-0.845,1.739C197.042,85.285,187.283,87.781,177.292,90.312z"/>
		<path style="fill-rule:evenodd;clip-rule:evenodd;" d="M158.958,15.193c-5.141,9.288-10.182,18.398-15.288,27.623
			c-7.328-4.371-15.041-7.427-23.381-9.178c0.102-0.546,0.164-1.02,0.281-1.479c2.348-9.291,4.725-18.573,7.029-27.875
			c0.287-1.159,0.671-1.361,1.821-1.091c9.879,2.326,19.216,6.006,28.03,11.029C157.917,14.487,158.355,14.804,158.958,15.193z"/>
		<path style="fill-rule:evenodd;clip-rule:evenodd;" d="M90.592,33.352c-4.094,1.307-8.132,2.376-11.994,3.894
			c-3.867,1.52-7.559,3.488-11.479,5.332c-4.959-8.96-10.026-18.114-15.127-27.332c0.337-0.262,0.579-0.499,0.862-0.662
			c9.042-5.246,18.654-9.046,28.83-11.437c0.914-0.215,1.348-0.083,1.59,0.887c2.382,9.541,4.797,19.073,7.202,28.608
			C90.535,32.879,90.556,33.125,90.592,33.352z"/>
		<path style="fill-rule:evenodd;clip-rule:evenodd;" d="M210.484,109.58c-10.657,0-21.115,0-31.667,0c0-2.944,0-5.844,0-8.863
			c0.485-0.027,0.964-0.075,1.443-0.075c9.488,0.004,18.977,0.042,28.464-0.015c1.401-0.009,1.825,0.433,1.781,1.773
			C210.429,104.73,210.484,107.065,210.484,109.58z"/>
		<path style="fill-rule:evenodd;clip-rule:evenodd;" d="M101.137,178.961c2.855,0,5.71,0,8.722,0
			c0.032,0.472,0.092,0.945,0.092,1.417c-0.001,9.496-0.035,18.991,0.01,28.488c0.006,1.313-0.401,1.771-1.689,1.723
			c-2.033-0.075-4.07-0.033-6.104-0.034c-0.761,0-1.191-0.248-1.19-1.125c0.017-9.993,0.01-19.986,0.015-29.979
			C100.993,179.312,101.072,179.172,101.137,178.961z"/>
		<path style="fill-rule:evenodd;clip-rule:evenodd;" d="M32.123,109.581c-10.544,0-21.005,0-31.614,0c0-2.948,0-5.814,0-8.811
			c10.612,0,21.107,0,31.614,0C32.123,103.692,32.123,106.596,32.123,109.581z"/>
	</g>
	<g>
		<path style="fill:#FFFFFF;" d="M83.555,116.257h-6.836V93.349c-2.497,2.076-5.44,3.612-8.83,4.607V92.44
			c1.784-0.519,3.722-1.503,5.814-2.953c2.092-1.449,3.527-3.14,4.305-5.072h5.547V116.257z"/>
		<path style="fill:#FFFFFF;" d="M116.856,110.611v5.646H92.896c0.259-2.134,1.038-4.157,2.335-6.067
			c1.297-1.912,3.86-4.447,7.688-7.604c3.081-2.553,4.97-4.284,5.667-5.191c0.94-1.255,1.411-2.496,1.411-3.721
			c0-1.355-0.409-2.397-1.228-3.126c-0.819-0.728-1.95-1.092-3.394-1.092c-1.427,0-2.563,0.382-3.406,1.146
			c-0.844,0.764-1.33,2.033-1.459,3.808l-6.812-0.607c0.405-3.345,1.679-5.746,3.819-7.204c2.141-1.456,4.816-2.184,8.028-2.184
			c3.519,0,6.284,0.843,8.295,2.531c2.011,1.687,3.017,3.786,3.017,6.295c0,1.427-0.288,2.787-0.863,4.078
			c-0.576,1.292-1.489,2.643-2.737,4.055c-0.827,0.938-2.319,2.287-4.476,4.046c-2.157,1.76-3.523,2.928-4.099,3.504
			c-0.576,0.578-1.042,1.141-1.398,1.687H116.856z"/>
		<path style="fill:#FFFFFF;" d="M121.575,108.102l6.812-0.627c0.194,1.37,0.77,2.455,1.727,3.256c0.957,0.8,2.06,1.2,3.309,1.2
			c1.426,0,2.635-0.515,3.625-1.547c0.989-1.03,1.484-2.584,1.484-4.662c0-1.946-0.491-3.407-1.472-4.38
			c-0.981-0.974-2.259-1.46-3.832-1.46c-1.962,0-3.722,0.771-5.278,2.314l-5.546-0.714l3.503-16.505h18.074v5.69h-12.893
			l-1.071,5.386c1.524-0.678,3.082-1.016,4.67-1.016c3.033,0,5.603,0.981,7.711,2.942s3.162,4.507,3.162,7.636
			c0,2.611-0.851,4.939-2.554,6.987c-2.319,2.798-5.539,4.197-9.658,4.197c-3.292,0-5.977-0.786-8.052-2.358
			C123.221,112.869,121.98,110.756,121.575,108.102z"/>
	</g>
</g>
</svg>
