<?xml version="1.0" encoding="utf-8"?>
<!-- Generator: Adobe Illustrator 16.0.0, SVG Export Plug-In . SVG Version: 6.00 Build 0)  -->
<!DOCTYPE svg PUBLIC "-//W3C//DTD SVG 1.1//EN" "http://www.w3.org/Graphics/SVG/1.1/DTD/svg11.dtd">
<svg version="1.1" id="Layer_1" xmlns="http://www.w3.org/2000/svg" xmlns:xlink="http://www.w3.org/1999/xlink" x="0px" y="0px"
	 width="123.5px" height="84.5px" viewBox="0 0 123.5 84.5" enable-background="new 0 0 123.5 84.5" xml:space="preserve">
<g>
	<ellipse fill="#F2F1F0" cx="62.236" cy="45.814" rx="60.264" ry="37.529"/>
	<ellipse fill="#FFFFFF" cx="62.236" cy="39.875" rx="60.264" ry="37.529"/>
	<line fill="none" stroke="#A41D21" stroke-width="4" stroke-miterlimit="10" x1="1.972" y1="34.875" x2="122.5" y2="34.875"/>
	<line fill="none" stroke="#A41D21" stroke-width="4" stroke-miterlimit="10" x1="61.235" y1="2.345" x2="63.02" y2="77.379"/>
	<ellipse fill="#A41D21" cx="62.25" cy="39.591" rx="49.124" ry="30.592"/>
	<ellipse fill="none" stroke="#CB2827" stroke-width="3" stroke-miterlimit="10" cx="62.25" cy="39.091" rx="39.765" ry="24.764"/>
	<g>
		<path fill="#A41D21" d="M45.401,68.335l-5.776,6.335c0,0,9.053,2.014,13.716,2.328l2.513-7.073L45.401,68.335z"/>
		<path fill="#A41D21" d="M70.345,69.373l2,7.625c0,0,9.899-1.226,14.299-2.8l-6.799-6.719L70.345,69.373z"/>
	</g>
	<path fill="#A41D21" d="M45.401,11.392l-5.776-6.335c0,0,9.053-2.014,13.716-2.328l2.513,7.073L45.401,11.392z"/>
	<path fill="#A41D21" d="M70.345,10.354l2-7.625c0,0,9.899,1.226,14.299,2.8l-6.799,6.719L70.345,10.354z"/>
	<g>
		<path fill="#A41D21" d="M16.06,29.154L5.377,27.409c0,0,3.76-6.328,8.992-10.338l8.018,5.344L16.06,29.154z"/>
		<path fill="#A41D21" d="M13.283,42.037L2.016,41.294c0,0,0.391,6.477,3.943,12.028l9.714-3.992L13.283,42.037z"/>
	</g>
	<g>
		<path fill="#A41D21" d="M108.343,29.154l10.684-1.745c0,0-3.761-6.328-8.992-10.338l-8.019,5.344L108.343,29.154z"/>
		<path fill="#A41D21" d="M111.12,42.037l11.266-0.742c0,0-0.39,6.477-3.942,12.028l-9.714-3.992L111.12,42.037z"/>
	</g>
</g>
</svg>
