<?xml version="1.0" encoding="utf-8"?>
<!-- Generator: Adobe Illustrator 16.0.0, SVG Export Plug-In . SVG Version: 6.00 Build 0)  -->
<!DOCTYPE svg PUBLIC "-//W3C//DTD SVG 1.1//EN" "http://www.w3.org/Graphics/SVG/1.1/DTD/svg11.dtd">
<svg version="1.1" id="Layer_1" xmlns="http://www.w3.org/2000/svg" xmlns:xlink="http://www.w3.org/1999/xlink" x="0px" y="0px"
	 width="123.5px" height="84.5px" viewBox="0 0 123.5 84.5" enable-background="new 0 0 123.5 84.5" xml:space="preserve">
<g>
	<ellipse fill="#F2F1F0" cx="-191.184" cy="-35.184" rx="60.264" ry="37.53"/>
	<ellipse fill="#FFFFFF" cx="-191.184" cy="-41.123" rx="60.264" ry="37.529"/>
	
		<line fill="none" stroke="#A41D21" stroke-width="4" stroke-miterlimit="10" x1="-251.448" y1="-46.123" x2="-130.92" y2="-46.123"/>
	<line fill="none" stroke="#A41D21" stroke-width="4" stroke-miterlimit="10" x1="-192.185" y1="-78.653" x2="-190.4" y2="-3.619"/>
	<ellipse fill="#A41D21" cx="-191.169" cy="-41.407" rx="49.124" ry="30.592"/>
	
		<ellipse fill="none" stroke="#CB2827" stroke-width="3" stroke-miterlimit="10" cx="-191.169" cy="-41.907" rx="39.765" ry="24.764"/>
	<g>
		<path fill="#A41D21" d="M-208.019-12.663l-5.776,6.335c0,0,9.053,2.014,13.716,2.328l2.513-7.073L-208.019-12.663z"/>
		<path fill="#A41D21" d="M-183.075-11.625l2,7.625c0,0,9.899-1.226,14.299-2.8l-6.799-6.719L-183.075-11.625z"/>
	</g>
	<path fill="#A41D21" d="M-208.019-69.606l-5.776-6.335c0,0,9.053-2.014,13.716-2.328l2.513,7.073L-208.019-69.606z"/>
	<path fill="#A41D21" d="M-183.075-70.645l2-7.625c0,0,9.899,1.226,14.299,2.8l-6.799,6.719L-183.075-70.645z"/>
	<g>
		<path fill="#A41D21" d="M-237.36-51.844l-10.683-1.745c0,0,3.76-6.328,8.992-10.338l8.018,5.344L-237.36-51.844z"/>
		<path fill="#A41D21" d="M-240.137-38.961l-11.268-0.742c0,0,0.391,6.477,3.943,12.028l9.714-3.992L-240.137-38.961z"/>
	</g>
	<g>
		<path fill="#A41D21" d="M-145.077-51.844l10.684-1.745c0,0-3.761-6.328-8.992-10.338l-8.019,5.344L-145.077-51.844z"/>
		<path fill="#A41D21" d="M-142.3-38.961l11.266-0.742c0,0-0.39,6.477-3.942,12.028l-9.714-3.992L-142.3-38.961z"/>
	</g>
</g>
<g>
	<ellipse fill="#F2F1F0" cx="61.75" cy="45.469" rx="60.264" ry="37.53"/>
	<ellipse fill="#FFFFFF" cx="61.75" cy="39.53" rx="60.264" ry="37.529"/>
	<line fill="none" stroke="#C4942F" stroke-width="4" stroke-miterlimit="10" x1="1.485" y1="34.53" x2="122.014" y2="34.53"/>
	<line fill="none" stroke="#C4942F" stroke-width="4" stroke-miterlimit="10" x1="60.749" y1="2" x2="62.533" y2="77.034"/>
	<ellipse fill="#C4942F" cx="61.764" cy="39.245" rx="49.124" ry="30.592"/>
	<ellipse fill="none" stroke="#CFA54B" stroke-width="3" stroke-miterlimit="10" cx="61.764" cy="38.745" rx="39.765" ry="24.764"/>
	<g>
		<g>
			<g>
				<path fill="#C4942F" d="M44.915,67.989l-5.776,6.336c0,0,9.053,2.014,13.716,2.328l2.513-7.074L44.915,67.989z"/>
			</g>
			<g>
				<path fill="#C4942F" d="M69.858,69.028l2,7.625c0,0,9.899-1.227,14.299-2.801l-6.799-6.719L69.858,69.028z"/>
			</g>
		</g>
	</g>
	<path fill="#C4942F" d="M44.915,11.046l-5.776-6.334c0,0,9.053-2.014,13.716-2.328l2.513,7.072L44.915,11.046z"/>
	<path fill="#C4942F" d="M69.858,10.009l2-7.625c0,0,9.899,1.225,14.299,2.799l-6.799,6.719L69.858,10.009z"/>
	<g>
		<g>
			<g>
				<path fill="#C4942F" d="M15.573,28.81L4.891,27.063c0,0,3.76-6.327,8.992-10.338l8.018,5.344L15.573,28.81z"/>
			</g>
			<path fill="#C4942F" d="M12.797,41.691L1.529,40.949c0,0,0.391,6.478,3.943,12.028l9.714-3.992L12.797,41.691z"/>
		</g>
	</g>
	<g>
		<g>
			<g>
				<path fill="#C4942F" d="M107.856,28.81l10.684-1.746c0,0-3.761-6.327-8.992-10.338l-8.019,5.344L107.856,28.81z"/>
			</g>
			<path fill="#C4942F" d="M110.634,41.691l11.266-0.742c0,0-0.39,6.478-3.942,12.028l-9.714-3.992L110.634,41.691z"/>
		</g>
	</g>
</g>
<g>
	<ellipse fill="#F2F1F0" cx="-191.184" cy="180.816" rx="60.264" ry="37.53"/>
	<ellipse fill="#FFFFFF" cx="-191.184" cy="174.878" rx="60.264" ry="37.529"/>
	
		<line fill="none" stroke="#C4942F" stroke-width="4" stroke-miterlimit="10" x1="-251.448" y1="169.878" x2="-130.92" y2="169.878"/>
	
		<line fill="none" stroke="#C4942F" stroke-width="4" stroke-miterlimit="10" x1="-192.185" y1="137.348" x2="-190.4" y2="212.382"/>
	<ellipse fill="#C4942F" cx="-191.169" cy="174.593" rx="49.124" ry="30.592"/>
	
		<ellipse fill="none" stroke="#CFA54B" stroke-width="3" stroke-miterlimit="10" cx="-191.169" cy="174.093" rx="39.765" ry="24.764"/>
	<g>
		<g>
			<g>
				<path fill="#C4942F" d="M-208.019,203.337l-5.776,6.336c0,0,9.053,2.014,13.716,2.328l2.513-7.074L-208.019,203.337z"/>
			</g>
			<g>
				<path fill="#C4942F" d="M-183.075,204.376l2,7.625c0,0,9.899-1.227,14.299-2.801l-6.799-6.719L-183.075,204.376z"/>
			</g>
		</g>
	</g>
	<path fill="#C4942F" d="M-208.019,146.394l-5.776-6.334c0,0,9.053-2.014,13.716-2.328l2.513,7.072L-208.019,146.394z"/>
	<path fill="#C4942F" d="M-183.075,145.356l2-7.625c0,0,9.899,1.225,14.299,2.799l-6.799,6.719L-183.075,145.356z"/>
	<g>
		<g>
			<g>
				<path fill="#C4942F" d="M-237.36,164.157l-10.683-1.746c0,0,3.76-6.327,8.992-10.338l8.018,5.344L-237.36,164.157z"/>
			</g>
			<path fill="#C4942F" d="M-240.137,177.039l-11.268-0.742c0,0,0.391,6.478,3.943,12.028l9.714-3.992L-240.137,177.039z"/>
		</g>
	</g>
	<g>
		<g>
			<g>
				<path fill="#C4942F" d="M-145.077,164.157l10.684-1.746c0,0-3.761-6.327-8.992-10.338l-8.019,5.344L-145.077,164.157z"/>
			</g>
			<path fill="#C4942F" d="M-142.3,177.039l11.266-0.742c0,0-0.39,6.478-3.942,12.028l-9.714-3.992L-142.3,177.039z"/>
		</g>
	</g>
</g>
<g>
	<ellipse fill="#F2F1F0" cx="-58.803" cy="178.735" rx="60.264" ry="37.53"/>
	<ellipse fill="#FFFFFF" cx="-58.803" cy="172.797" rx="60.264" ry="37.529"/>
	<line fill="none" stroke="#724D8D" stroke-width="4" stroke-miterlimit="10" x1="-119.067" y1="167.797" x2="1.461" y2="167.797"/>
	<line fill="none" stroke="#724D8D" stroke-width="4" stroke-miterlimit="10" x1="-59.804" y1="135.267" x2="-58.02" y2="210.301"/>
	<ellipse fill="#724D8D" cx="-58.789" cy="172.512" rx="49.124" ry="30.592"/>
	
		<ellipse fill="none" stroke="#7A5A94" stroke-width="3" stroke-miterlimit="10" cx="-58.789" cy="172.012" rx="39.765" ry="24.764"/>
	<g>
		<g>
			<g>
				<path fill="#724D8D" d="M-75.638,201.256l-5.777,6.336c0,0,9.055,2.014,13.717,2.328l2.514-7.074L-75.638,201.256z"/>
			</g>
			<g>
				<path fill="#724D8D" d="M-50.694,202.295l2,7.625c0,0,9.899-1.227,14.299-2.801l-6.799-6.719L-50.694,202.295z"/>
			</g>
		</g>
	</g>
	<path fill="#724D8D" d="M-75.638,144.313l-5.777-6.334c0,0,9.055-2.014,13.717-2.328l2.514,7.072L-75.638,144.313z"/>
	<path fill="#724D8D" d="M-50.694,143.275l2-7.625c0,0,9.899,1.225,14.299,2.799l-6.799,6.719L-50.694,143.275z"/>
	<g>
		<g>
			<g>
				<path fill="#724D8D" d="M-104.979,162.076l-10.684-1.746c0,0,3.761-6.327,8.992-10.338l8.019,5.344L-104.979,162.076z"/>
			</g>
			<path fill="#724D8D" d="M-107.757,174.958l-11.266-0.742c0,0,0.39,6.478,3.942,12.028l9.714-3.992L-107.757,174.958z"/>
		</g>
	</g>
	<g>
		<g>
			<g>
				<path fill="#724D8D" d="M-12.696,162.076l10.684-1.746c0,0-3.761-6.327-8.992-10.338l-8.019,5.344L-12.696,162.076z"/>
			</g>
			<path fill="#724D8D" d="M-9.919,174.958l11.266-0.742c0,0-0.39,6.478-3.942,12.028l-9.714-3.992L-9.919,174.958z"/>
		</g>
	</g>
</g>
</svg>
