<?xml version="1.0" encoding="iso-8859-1"?>
<!-- Generator: Adobe Illustrator 16.0.0, SVG Export Plug-In . SVG Version: 6.00 Build 0)  -->
<!DOCTYPE svg PUBLIC "-//W3C//DTD SVG 1.1//EN" "http://www.w3.org/Graphics/SVG/1.1/DTD/svg11.dtd">
<svg version="1.1" id="Layer_1" xmlns="http://www.w3.org/2000/svg" xmlns:xlink="http://www.w3.org/1999/xlink" x="0px" y="0px"
	 width="210px" height="210px" viewBox="0 0 210 210" style="enable-background:new 0 0 210 210;" xml:space="preserve">
<g>
	<g>
		<path style="fill-rule:evenodd;clip-rule:evenodd;fill:#A41D21;" d="M192.914,98.962c0,10.626,0,21.045,0,31.559
			c-2.934,0-5.788,0-8.772,0c0-10.465,0-20.918,0-31.559C187.032,98.962,189.885,98.962,192.914,98.962z"/>
		<circle style="fill:#DEE8EC;" cx="105.571" cy="106.592" r="104.999"/>
		<path style="fill-rule:evenodd;clip-rule:evenodd;fill:#7A5A94;" d="M33.446,106.107c-0.187-40.008,32.786-72.746,73.091-72.149
			c39.028,0.578,71.488,32.526,71.08,72.839c-0.405,39.795-32.888,71.941-72.914,71.454
			C64.716,177.764,33.163,145.085,33.446,106.107z"/>
		<path style="fill-rule:evenodd;clip-rule:evenodd;fill:#724D8D;" d="M39.374,106.57c-0.173-36.728,30.096-66.782,67.097-66.235
			c35.829,0.531,65.628,29.859,65.251,66.867c-0.371,36.533-30.188,66.043-66.934,65.597
			C68.08,172.352,39.113,142.352,39.374,106.57z"/>
		<path style="fill-rule:evenodd;clip-rule:evenodd;fill:#724D8D;" d="M195.891,159.927c-9.2-5.096-18.354-10.166-27.341-15.145
			c1.846-3.97,3.817-7.715,5.34-11.634c1.505-3.873,2.555-7.922,3.854-12.052c3.007,0.754,6.171,1.542,9.332,2.34
			c6.595,1.668,13.187,3.349,19.784,5.008c0.767,0.192,1.409,0.269,1.147,1.408c-2.401,10.443-6.267,20.3-11.676,29.55
			C196.259,159.526,196.146,159.627,195.891,159.927z"/>
		<path style="fill-rule:evenodd;clip-rule:evenodd;fill:#724D8D;" d="M66.966,169.089c7.389,4.492,15.15,7.565,23.596,9.381
			c-0.537,2.149-1.058,4.244-1.583,6.337c-1.892,7.513-3.822,15.015-5.646,22.542c-0.36,1.484-0.903,1.698-2.345,1.352
			c-9.781-2.353-19.028-6.02-27.763-10.995c-0.468-0.268-0.913-0.578-1.542-0.979C56.765,187.535,61.824,178.389,66.966,169.089z"/>
		<path style="fill-rule:evenodd;clip-rule:evenodd;fill:#724D8D;" d="M14.789,160.137c-2.292-4.858-4.762-9.413-6.615-14.206
			c-1.98-5.124-3.379-10.474-5.032-15.725c-0.266-0.843-0.327-1.436,0.847-1.729c9.779-2.429,19.54-4.925,29.522-7.456
			c1.754,8.348,4.716,16.193,9.215,23.63C33.516,149.759,24.37,154.825,14.789,160.137z"/>
		<path style="fill-rule:evenodd;clip-rule:evenodd;fill:#724D8D;" d="M128.205,209.083c-2.614-10.34-5.154-20.39-7.663-30.315
			c4.115-1.34,8.186-2.447,12.082-3.995c3.905-1.553,7.637-3.545,11.6-5.419c4.955,8.953,10.014,18.095,15.168,27.411
			C149.636,202.598,139.342,206.667,128.205,209.083z"/>
		<path style="fill-rule:evenodd;clip-rule:evenodd;fill:#724D8D;" d="M15.532,52.568c9.217,5.104,18.323,10.148,27.577,15.273
			c-4.414,7.299-7.558,15.021-9.379,23.443c-2.475-0.613-4.864-1.192-7.247-1.795c-7.408-1.876-14.809-3.778-22.225-5.622
			c-0.924-0.23-1.223-0.538-0.991-1.511c2.442-10.27,6.327-19.951,11.689-29.042C15.079,53.107,15.253,52.927,15.532,52.568z"/>
		<path style="fill-rule:evenodd;clip-rule:evenodd;fill:#724D8D;" d="M177.355,91.312c-1.808-8.388-4.926-16.124-9.411-23.467
			c9.224-5.112,18.357-10.172,27.627-15.308c0.434,0.691,0.818,1.255,1.153,1.845c4.975,8.727,8.663,17.963,10.999,27.738
			c0.201,0.837,0.347,1.443-0.844,1.739C197.105,86.285,187.347,88.781,177.355,91.312z"/>
		<path style="fill-rule:evenodd;clip-rule:evenodd;fill:#724D8D;" d="M159.022,16.193c-5.141,9.289-10.183,18.398-15.288,27.624
			c-7.328-4.371-15.041-7.427-23.381-9.178c0.103-0.546,0.164-1.02,0.281-1.479c2.348-9.291,4.726-18.573,7.03-27.875
			c0.287-1.159,0.67-1.361,1.82-1.091c9.88,2.326,19.216,6.006,28.03,11.029C157.98,15.487,158.419,15.803,159.022,16.193z"/>
		<path style="fill-rule:evenodd;clip-rule:evenodd;fill:#724D8D;" d="M90.656,34.352c-4.094,1.307-8.133,2.376-11.994,3.894
			c-3.868,1.52-7.559,3.488-11.481,5.332c-4.958-8.96-10.024-18.114-15.125-27.332c0.336-0.262,0.579-0.499,0.862-0.662
			c9.042-5.246,18.654-9.046,28.83-11.437c0.913-0.215,1.347-0.083,1.59,0.887c2.381,9.541,4.797,19.073,7.2,28.608
			C90.598,33.879,90.62,34.125,90.656,34.352z"/>
		<path style="fill-rule:evenodd;clip-rule:evenodd;fill:#724D8D;" d="M210.549,110.58c-10.659,0-21.117,0-31.668,0
			c0-2.944,0-5.844,0-8.863c0.485-0.027,0.964-0.075,1.443-0.075c9.488,0.004,18.977,0.042,28.465-0.015
			c1.4-0.009,1.824,0.433,1.781,1.773C210.492,105.73,210.549,108.065,210.549,110.58z"/>
		<path style="fill-rule:evenodd;clip-rule:evenodd;fill:#724D8D;" d="M101.2,179.961c2.855,0,5.71,0,8.723,0
			c0.032,0.472,0.091,0.945,0.091,1.417c-0.001,9.496-0.035,18.991,0.01,28.488c0.006,1.313-0.399,1.771-1.689,1.723
			c-2.034-0.075-4.07-0.033-6.105-0.034c-0.76,0-1.191-0.248-1.189-1.125c0.017-9.993,0.01-19.986,0.015-29.979
			C101.056,180.312,101.135,180.172,101.2,179.961z"/>
		<path style="fill-rule:evenodd;clip-rule:evenodd;fill:#724D8D;" d="M32.187,110.581c-10.545,0-21.006,0-31.614,0
			c0-2.948,0-5.814,0-8.811c10.612,0,21.106,0,31.614,0C32.187,104.692,32.187,107.596,32.187,110.581z"/>
	</g>
	<g>
		<g>
			<path style="fill:#FFFFFF;" d="M66.226,109.102l6.811-0.627c0.194,1.37,0.771,2.455,1.727,3.256c0.957,0.8,2.059,1.2,3.309,1.2
				c1.427,0,2.636-0.515,3.625-1.547c0.988-1.03,1.483-2.584,1.483-4.662c0-1.946-0.49-3.407-1.471-4.38
				c-0.981-0.974-2.259-1.46-3.832-1.46c-1.962,0-3.722,0.771-5.278,2.314l-5.546-0.714l3.502-16.505h18.074v5.69H75.737
				l-1.071,5.386c1.525-0.678,3.082-1.016,4.671-1.016c3.032,0,5.603,0.981,7.71,2.942c2.109,1.961,3.164,4.507,3.164,7.636
				c0,2.611-0.853,4.939-2.555,6.987c-2.32,2.798-5.539,4.197-9.658,4.197c-3.292,0-5.976-0.786-8.052-2.359
				C67.871,113.869,66.631,111.756,66.226,109.102z"/>
			<path style="fill:#FFFFFF;" d="M105.39,85.415c3.454,0,6.155,1.096,8.101,3.288c2.319,2.596,3.478,6.901,3.478,12.916
				c0,5.999-1.167,10.31-3.503,12.936c-1.929,2.163-4.622,3.245-8.076,3.245c-3.471,0-6.267-1.187-8.392-3.558
				c-2.125-2.374-3.188-6.603-3.188-12.688c0-5.971,1.167-10.269,3.503-12.894C99.244,86.496,101.936,85.415,105.39,85.415z
				 M105.39,90.456c-0.827,0-1.564,0.235-2.212,0.702c-0.649,0.47-1.153,1.308-1.509,2.521c-0.47,1.572-0.705,4.219-0.705,7.94
				c0,3.72,0.21,6.276,0.632,7.668c0.421,1.391,0.952,2.318,1.594,2.78c0.639,0.462,1.374,0.691,2.201,0.691
				c0.827,0,1.565-0.233,2.214-0.703c0.649-0.468,1.152-1.308,1.508-2.52c0.47-1.559,0.706-4.197,0.706-7.917
				c0-3.721-0.21-6.278-0.633-7.669c-0.42-1.392-0.952-2.321-1.592-2.791C106.951,90.69,106.217,90.456,105.39,90.456z"/>
			<path style="fill:#FFFFFF;" d="M133.097,85.415c3.455,0,6.154,1.096,8.1,3.288c2.319,2.596,3.479,6.901,3.479,12.916
				c0,5.999-1.167,10.31-3.504,12.936c-1.929,2.163-4.62,3.245-8.075,3.245c-3.47,0-6.269-1.187-8.393-3.558
				c-2.125-2.374-3.187-6.603-3.187-12.688c0-5.971,1.168-10.269,3.503-12.894C126.951,86.496,129.643,85.415,133.097,85.415z
				 M133.097,90.456c-0.828,0-1.565,0.235-2.214,0.702c-0.649,0.47-1.151,1.308-1.508,2.521c-0.47,1.572-0.704,4.219-0.704,7.94
				c0,3.72,0.21,6.276,0.631,7.668c0.422,1.391,0.953,2.318,1.593,2.78c0.641,0.462,1.375,0.691,2.203,0.691
				c0.827,0,1.564-0.233,2.213-0.703c0.648-0.468,1.15-1.308,1.507-2.52c0.471-1.559,0.706-4.197,0.706-7.917
				c0-3.721-0.211-6.278-0.633-7.669c-0.421-1.392-0.953-2.321-1.592-2.791C134.657,90.69,133.924,90.456,133.097,90.456z"/>
		</g>
	</g>
</g>
</svg>
