<?xml version="1.0" encoding="iso-8859-1"?>
<!-- Generator: Adobe Illustrator 16.0.0, SVG Export Plug-In . SVG Version: 6.00 Build 0)  -->
<!DOCTYPE svg PUBLIC "-//W3C//DTD SVG 1.1//EN" "http://www.w3.org/Graphics/SVG/1.1/DTD/svg11.dtd">
<svg version="1.1" id="Layer_1" xmlns="http://www.w3.org/2000/svg" xmlns:xlink="http://www.w3.org/1999/xlink" x="0px" y="0px"
	 width="210px" height="210px" viewBox="0 0 210 210" style="enable-background:new 0 0 210 210;" xml:space="preserve">
<g>
	<g>
		<circle style="fill:#DEE8EC;" cx="105.851" cy="104.9" r="104.999"/>
		<path style="fill-rule:evenodd;clip-rule:evenodd;fill:#CFA54B;" d="M33.727,104.417C33.54,64.409,66.512,31.67,106.817,32.268
			c39.027,0.577,71.488,32.526,71.08,72.839c-0.405,39.796-32.886,71.942-72.913,71.455
			C64.997,176.074,33.444,143.395,33.727,104.417z"/>
		<path style="fill-rule:evenodd;clip-rule:evenodd;fill:#C4942F;" d="M39.654,104.879c-0.173-36.728,30.097-66.782,67.098-66.233
			c35.828,0.529,65.627,29.859,65.251,66.866c-0.371,36.533-30.19,66.044-66.935,65.598
			C68.36,170.661,39.394,140.661,39.654,104.879z"/>
		<path style="fill-rule:evenodd;clip-rule:evenodd;fill:#CFA54B;" d="M196.171,158.236c-9.2-5.096-18.353-10.165-27.34-15.144
			c1.845-3.973,3.817-7.716,5.341-11.635c1.504-3.873,2.554-7.924,3.854-12.053c3.006,0.754,6.17,1.54,9.331,2.34
			c6.595,1.667,13.188,3.348,19.784,5.007c0.767,0.192,1.409,0.269,1.147,1.41c-2.4,10.442-6.267,20.299-11.674,29.549
			C196.539,157.836,196.425,157.936,196.171,158.236z"/>
		<path style="fill-rule:evenodd;clip-rule:evenodd;fill:#CFA54B;" d="M67.248,167.399c7.388,4.49,15.149,7.564,23.596,9.381
			c-0.536,2.147-1.057,4.242-1.584,6.335c-1.892,7.512-3.822,15.016-5.646,22.544c-0.359,1.485-0.902,1.697-2.344,1.351
			c-9.781-2.352-19.028-6.018-27.762-10.996c-0.469-0.267-0.914-0.577-1.542-0.978C57.047,185.844,62.105,176.698,67.248,167.399z"
			/>
		<path style="fill-rule:evenodd;clip-rule:evenodd;fill:#CFA54B;" d="M15.07,158.445c-2.292-4.858-4.763-9.411-6.616-14.205
			c-1.981-5.125-3.379-10.474-5.032-15.726c-0.266-0.844-0.328-1.435,0.848-1.727c9.778-2.43,19.54-4.928,29.522-7.458
			c1.753,8.35,4.715,16.194,9.215,23.631C33.796,148.067,24.652,153.136,15.07,158.445z"/>
		<path style="fill-rule:evenodd;clip-rule:evenodd;fill:#CFA54B;" d="M128.485,207.394c-2.613-10.341-5.153-20.392-7.661-30.316
			c4.114-1.339,8.185-2.446,12.08-3.995c3.906-1.552,7.637-3.545,11.601-5.418c4.954,8.954,10.013,18.095,15.167,27.411
			C149.916,200.907,139.623,204.976,128.485,207.394z"/>
		<path style="fill-rule:evenodd;clip-rule:evenodd;fill:#CFA54B;" d="M15.813,50.877c9.217,5.105,18.324,10.149,27.576,15.274
			c-4.414,7.298-7.558,15.021-9.379,23.442c-2.475-0.611-4.863-1.192-7.246-1.795c-7.408-1.876-14.81-3.778-22.224-5.622
			c-0.926-0.229-1.224-0.538-0.993-1.511C5.99,70.396,9.875,60.714,15.237,51.625C15.36,51.416,15.534,51.237,15.813,50.877z"/>
		<path style="fill-rule:evenodd;clip-rule:evenodd;fill:#CFA54B;" d="M177.636,89.622c-1.808-8.389-4.925-16.126-9.41-23.469
			c9.223-5.112,18.357-10.172,27.626-15.308c0.434,0.692,0.818,1.257,1.154,1.846c4.974,8.726,8.663,17.963,10.999,27.738
			c0.201,0.837,0.346,1.443-0.844,1.738C197.386,84.595,187.628,87.089,177.636,89.622z"/>
		<path style="fill-rule:evenodd;clip-rule:evenodd;fill:#CFA54B;" d="M159.302,14.503c-5.141,9.288-10.181,18.398-15.288,27.623
			c-7.327-4.37-15.04-7.427-23.38-9.178c0.102-0.546,0.164-1.021,0.28-1.48c2.349-9.29,4.725-18.572,7.029-27.873
			c0.287-1.16,0.671-1.361,1.82-1.092c9.879,2.325,19.216,6.005,28.029,11.027C158.26,13.797,158.7,14.112,159.302,14.503z"/>
		<path style="fill-rule:evenodd;clip-rule:evenodd;fill:#CFA54B;" d="M90.937,32.661c-4.094,1.308-8.133,2.376-11.995,3.894
			c-3.868,1.521-7.559,3.488-11.479,5.332c-4.959-8.961-10.026-18.114-15.127-27.332c0.336-0.262,0.579-0.499,0.862-0.663
			c9.042-5.245,18.654-9.045,28.83-11.437c0.914-0.215,1.347-0.084,1.589,0.888c2.382,9.54,4.798,19.072,7.202,28.607
			C90.879,32.188,90.9,32.436,90.937,32.661z"/>
		<path style="fill-rule:evenodd;clip-rule:evenodd;fill:#CFA54B;" d="M210.828,108.89c-10.657,0-21.115,0-31.667,0
			c0-2.942,0-5.845,0-8.864c0.485-0.024,0.964-0.074,1.443-0.074c9.487,0.003,18.977,0.041,28.464-0.016
			c1.402-0.007,1.825,0.434,1.781,1.774C210.773,104.04,210.828,106.374,210.828,108.89z"/>
		<path style="fill-rule:evenodd;clip-rule:evenodd;fill:#CFA54B;" d="M101.48,178.271c2.855,0,5.711,0,8.723,0
			c0.031,0.472,0.091,0.943,0.091,1.416c-0.002,9.495-0.035,18.992,0.01,28.487c0.006,1.313-0.4,1.771-1.689,1.724
			c-2.033-0.075-4.069-0.032-6.104-0.032c-0.76,0-1.192-0.25-1.19-1.128c0.018-9.992,0.01-19.985,0.016-29.978
			C101.337,178.621,101.416,178.483,101.48,178.271z"/>
		<path style="fill-rule:evenodd;clip-rule:evenodd;fill:#CFA54B;" d="M32.467,108.89c-10.544,0-21.005,0-31.614,0
			c0-2.946,0-5.813,0-8.809c10.612,0,21.107,0,31.614,0C32.467,103.001,32.467,105.905,32.467,108.89z"/>
		<path style="fill-rule:evenodd;clip-rule:evenodd;fill:#CFA54B;" d="M110.215-0.099c0,10.628,0,21.045,0,31.558
			c-2.934,0-5.789,0-8.772,0c0-10.463,0-20.918,0-31.558C104.333-0.099,107.187-0.099,110.215-0.099z"/>
	</g>
	<g>
		<g>
			<path style="fill:#FFFFFF;" d="M75.64,109.922v5.646H51.68c0.259-2.135,1.038-4.157,2.334-6.069
				c1.297-1.91,3.86-4.445,7.688-7.604c3.081-2.553,4.97-4.283,5.668-5.191c0.94-1.255,1.41-2.496,1.41-3.722
				c0-1.354-0.409-2.397-1.228-3.126c-0.819-0.728-1.951-1.091-3.394-1.091c-1.427,0-2.563,0.382-3.405,1.145
				c-0.844,0.765-1.33,2.034-1.46,3.808l-6.811-0.605c0.405-3.346,1.679-5.747,3.819-7.204s4.816-2.185,8.027-2.185
				c3.519,0,6.284,0.844,8.295,2.531c2.011,1.688,3.016,3.786,3.016,6.294c0,1.429-0.288,2.789-0.863,4.079
				c-0.577,1.291-1.488,2.642-2.737,4.056c-0.827,0.938-2.319,2.286-4.476,4.046c-2.157,1.759-3.523,2.927-4.099,3.504
				c-0.576,0.578-1.042,1.14-1.398,1.688H75.64z"/>
			<path style="fill:#FFFFFF;" d="M80.359,107.412l6.812-0.629c0.194,1.37,0.77,2.456,1.727,3.258c0.956,0.8,2.059,1.2,3.308,1.2
				c1.426,0,2.635-0.516,3.625-1.547c0.989-1.03,1.484-2.585,1.484-4.663c0-1.945-0.491-3.405-1.472-4.379
				c-0.981-0.974-2.259-1.461-3.832-1.461c-1.962,0-3.722,0.772-5.278,2.314l-5.547-0.714l3.503-16.505h18.074v5.688H89.871
				l-1.07,5.387c1.524-0.678,3.081-1.016,4.67-1.016c3.032,0,5.603,0.98,7.711,2.941s3.163,4.507,3.163,7.636
				c0,2.61-0.852,4.94-2.554,6.988c-2.319,2.798-5.539,4.195-9.658,4.195c-3.292,0-5.976-0.785-8.052-2.357
				C82.005,112.179,80.765,110.065,80.359,107.412z"/>
			<path style="fill:#FFFFFF;" d="M119.523,83.724c3.454,0,6.155,1.097,8.101,3.289c2.319,2.596,3.479,6.9,3.479,12.915
				c0,5.999-1.168,10.311-3.503,12.936c-1.93,2.163-4.622,3.244-8.076,3.244c-3.471,0-6.268-1.185-8.392-3.558
				c-2.125-2.373-3.187-6.602-3.187-12.688c0-5.971,1.168-10.268,3.503-12.894C113.377,84.805,116.069,83.724,119.523,83.724z
				 M119.523,88.766c-0.828,0-1.565,0.233-2.213,0.702c-0.649,0.469-1.152,1.308-1.509,2.521c-0.47,1.572-0.705,4.218-0.705,7.939
				c0,3.72,0.21,6.277,0.632,7.668c0.422,1.393,0.952,2.319,1.594,2.779c0.64,0.462,1.374,0.692,2.201,0.692
				c0.827,0,1.565-0.233,2.213-0.702c0.649-0.469,1.152-1.31,1.508-2.521c0.47-1.558,0.706-4.196,0.706-7.916
				c0-3.722-0.211-6.277-0.633-7.671c-0.421-1.39-0.953-2.32-1.593-2.789C121.084,88.999,120.351,88.766,119.523,88.766z"/>
			<path style="fill:#FFFFFF;" d="M147.23,83.724c3.454,0,6.154,1.097,8.101,3.289c2.318,2.596,3.479,6.9,3.479,12.915
				c0,5.999-1.167,10.311-3.504,12.936c-1.93,2.163-4.622,3.244-8.076,3.244c-3.47,0-6.268-1.185-8.393-3.558
				s-3.187-6.602-3.187-12.688c0-5.971,1.168-10.268,3.503-12.894C141.084,84.805,143.776,83.724,147.23,83.724z M147.23,88.766
				c-0.827,0-1.565,0.233-2.214,0.702c-0.649,0.469-1.151,1.308-1.508,2.521c-0.471,1.572-0.706,4.218-0.706,7.939
				c0,3.72,0.21,6.277,0.632,7.668c0.421,1.393,0.953,2.319,1.593,2.779c0.641,0.462,1.375,0.692,2.202,0.692
				s1.565-0.233,2.214-0.702c0.648-0.469,1.151-1.31,1.508-2.521c0.47-1.558,0.706-4.196,0.706-7.916
				c0-3.722-0.21-6.277-0.633-7.671c-0.421-1.39-0.953-2.32-1.593-2.789C148.791,88.999,148.058,88.766,147.23,88.766z"/>
		</g>
	</g>
</g>
</svg>
