<?xml version="1.0" encoding="iso-8859-1"?>
<!-- Generator: Adobe Illustrator 16.0.0, SVG Export Plug-In . SVG Version: 6.00 Build 0)  -->
<!DOCTYPE svg PUBLIC "-//W3C//DTD SVG 1.1//EN" "http://www.w3.org/Graphics/SVG/1.1/DTD/svg11.dtd">
<svg version="1.1" id="Layer_1" xmlns="http://www.w3.org/2000/svg" xmlns:xlink="http://www.w3.org/1999/xlink" x="0px" y="0px"
	 width="210px" height="210px" viewBox="0 0 210 210" style="enable-background:new 0 0 210 210;" xml:space="preserve">
<g>
	<circle style="fill:#DEE8EC;" cx="107.215" cy="105.603" r="104.999"/>
	<path style="fill-rule:evenodd;clip-rule:evenodd;fill:#E290BD;" d="M35.09,105.118c-0.187-40.01,32.786-72.747,73.091-72.149
		c39.027,0.577,71.488,32.525,71.079,72.839c-0.404,39.795-32.886,71.941-72.913,71.454C66.36,176.774,34.808,144.096,35.09,105.118
		z"/>
	<path style="fill-rule:evenodd;clip-rule:evenodd;fill:#E982B5;" d="M41.018,105.58c-0.172-36.728,30.097-66.781,67.099-66.233
		c35.828,0.53,65.627,29.857,65.251,66.865c-0.371,36.533-30.19,66.046-66.935,65.598C69.724,171.363,40.757,141.362,41.018,105.58z
		"/>
	<path style="fill-rule:evenodd;clip-rule:evenodd;fill:#E982B5;" d="M197.535,158.938c-9.2-5.097-18.353-10.167-27.34-15.146
		c1.845-3.97,3.818-7.717,5.341-11.635c1.504-3.872,2.554-7.922,3.854-12.053c3.007,0.754,6.17,1.541,9.331,2.341
		c6.595,1.668,13.188,3.348,19.785,5.006c0.766,0.194,1.409,0.271,1.147,1.409c-2.401,10.443-6.267,20.3-11.675,29.552
		C197.903,158.536,197.79,158.639,197.535,158.938z"/>
	<path style="fill-rule:evenodd;clip-rule:evenodd;fill:#E982B5;" d="M68.611,168.101c7.388,4.49,15.15,7.565,23.596,9.38
		c-0.537,2.147-1.058,4.243-1.585,6.337c-1.891,7.513-3.821,15.015-5.646,22.543c-0.359,1.484-0.902,1.696-2.344,1.35
		c-9.781-2.351-19.028-6.017-27.762-10.994c-0.469-0.269-0.914-0.577-1.542-0.978C58.41,186.547,63.469,177.399,68.611,168.101z"/>
	<path style="fill-rule:evenodd;clip-rule:evenodd;fill:#E982B5;" d="M16.433,159.147c-2.292-4.857-4.762-9.412-6.615-14.205
		c-1.981-5.125-3.379-10.474-5.033-15.726c-0.266-0.844-0.328-1.437,0.848-1.729c9.778-2.428,19.54-4.926,29.522-7.458
		c1.753,8.35,4.715,16.194,9.214,23.633C35.159,148.768,26.015,153.837,16.433,159.147z"/>
	<path style="fill-rule:evenodd;clip-rule:evenodd;fill:#E982B5;" d="M129.85,208.094c-2.614-10.341-5.153-20.39-7.662-30.315
		c4.115-1.34,8.186-2.447,12.081-3.994c3.905-1.553,7.637-3.546,11.6-5.42c4.955,8.954,10.014,18.095,15.168,27.411
		C151.28,201.609,140.986,205.677,129.85,208.094z"/>
	<path style="fill-rule:evenodd;clip-rule:evenodd;fill:#E982B5;" d="M17.177,51.579c9.216,5.104,18.323,10.149,27.576,15.273
		c-4.413,7.298-7.558,15.021-9.379,23.442c-2.475-0.612-4.864-1.193-7.247-1.796c-7.408-1.876-14.809-3.778-22.224-5.62
		c-0.926-0.231-1.224-0.538-0.992-1.514C7.354,71.098,11.239,61.414,16.6,52.324C16.724,52.117,16.897,51.938,17.177,51.579z"/>
	<path style="fill-rule:evenodd;clip-rule:evenodd;fill:#E982B5;" d="M179,90.322c-1.807-8.388-4.926-16.126-9.411-23.468
		c9.224-5.111,18.359-10.173,27.627-15.308c0.436,0.692,0.818,1.255,1.155,1.846c4.974,8.727,8.663,17.964,10.999,27.737
		c0.2,0.839,0.346,1.443-0.845,1.738C198.75,85.295,188.991,87.79,179,90.322z"/>
	<path style="fill-rule:evenodd;clip-rule:evenodd;fill:#E982B5;" d="M160.667,15.205c-5.141,9.287-10.182,18.397-15.288,27.622
		c-7.327-4.37-15.04-7.427-23.38-9.178c0.102-0.546,0.164-1.021,0.28-1.48c2.349-9.289,4.725-18.572,7.029-27.874
		c0.287-1.16,0.671-1.362,1.82-1.091c9.879,2.325,19.216,6.005,28.03,11.027C159.625,14.498,160.063,14.813,160.667,15.205z"/>
	<path style="fill-rule:evenodd;clip-rule:evenodd;fill:#E982B5;" d="M92.301,33.362c-4.094,1.309-8.133,2.377-11.994,3.894
		c-3.868,1.521-7.559,3.488-11.479,5.332C63.868,33.627,58.802,24.475,53.7,15.256c0.336-0.262,0.578-0.499,0.862-0.662
		c9.042-5.246,18.654-9.046,28.83-11.438c0.914-0.215,1.347-0.084,1.589,0.886c2.382,9.542,4.798,19.073,7.202,28.609
		C92.243,32.89,92.264,33.138,92.301,33.362z"/>
	<path style="fill-rule:evenodd;clip-rule:evenodd;fill:#E982B5;" d="M212.192,109.592c-10.658,0-21.116,0-31.667,0
		c0-2.945,0-5.846,0-8.866c0.484-0.024,0.964-0.073,1.443-0.073c9.488,0.002,18.977,0.041,28.464-0.015
		c1.401-0.008,1.826,0.433,1.781,1.772C212.137,104.741,212.192,107.077,212.192,109.592z"/>
	<path style="fill-rule:evenodd;clip-rule:evenodd;fill:#E982B5;" d="M102.844,178.973c2.855,0,5.711,0,8.722,0
		c0.032,0.472,0.091,0.943,0.091,1.415c-0.001,9.497-0.035,18.992,0.01,28.488c0.006,1.313-0.4,1.771-1.689,1.725
		c-2.033-0.075-4.069-0.034-6.104-0.034c-0.76,0-1.191-0.247-1.19-1.125c0.018-9.993,0.011-19.986,0.016-29.979
		C102.701,179.323,102.779,179.185,102.844,178.973z"/>
	<path style="fill-rule:evenodd;clip-rule:evenodd;fill:#E982B5;" d="M33.831,109.592c-10.544,0-21.005,0-31.614,0
		c0-2.948,0-5.814,0-8.812c10.612,0,21.107,0,31.614,0C33.831,103.702,33.831,106.605,33.831,109.592z"/>
	<path style="fill-rule:evenodd;clip-rule:evenodd;fill:#E982B5;" d="M111.579,0.604c0,10.627,0,21.046,0,31.558
		c-2.934,0-5.789,0-8.772,0c0-10.465,0-20.919,0-31.558C105.696,0.604,108.55,0.604,111.579,0.604z"/>
</g>
</svg>
