<?xml version="1.0" encoding="iso-8859-1"?>
<!-- Generator: Adobe Illustrator 16.0.0, SVG Export Plug-In . SVG Version: 6.00 Build 0)  -->
<!DOCTYPE svg PUBLIC "-//W3C//DTD SVG 1.1//EN" "http://www.w3.org/Graphics/SVG/1.1/DTD/svg11.dtd">
<svg version="1.1" id="Layer_1" xmlns="http://www.w3.org/2000/svg" xmlns:xlink="http://www.w3.org/1999/xlink" x="0px" y="0px"
	 width="210px" height="210px" viewBox="0 0 210 210" style="enable-background:new 0 0 210 210;" xml:space="preserve">
<g>
	<circle style="fill:#DEE8EC;" cx="108.058" cy="106.203" r="104.998"/>
	<path style="fill-rule:evenodd;clip-rule:evenodd;fill:#CB2827;" d="M35.934,105.72c-0.187-40.01,32.786-72.748,73.091-72.151
		c39.027,0.578,71.488,32.527,71.079,72.839c-0.404,39.795-32.886,71.942-72.913,71.454
		C67.205,177.375,35.651,144.697,35.934,105.72z"/>
	<path style="fill-rule:evenodd;clip-rule:evenodd;fill:#A41D21;" d="M41.861,106.181c-0.172-36.727,30.097-66.782,67.099-66.233
		c35.827,0.53,65.627,29.858,65.251,66.867c-0.372,36.532-30.189,66.043-66.935,65.596
		C70.568,171.964,41.602,141.964,41.861,106.181z"/>
	<path style="fill-rule:evenodd;clip-rule:evenodd;fill:#A41D21;" d="M198.38,159.54c-9.201-5.096-18.354-10.167-27.341-15.146
		c1.846-3.971,3.816-7.716,5.341-11.634c1.504-3.873,2.555-7.922,3.854-12.053c3.007,0.754,6.171,1.542,9.332,2.341
		c6.595,1.667,13.187,3.347,19.783,5.007c0.767,0.192,1.409,0.269,1.148,1.408c-2.402,10.444-6.268,20.3-11.677,29.55
		C198.747,159.138,198.634,159.239,198.38,159.54z"/>
	<path style="fill-rule:evenodd;clip-rule:evenodd;fill:#A41D21;" d="M69.455,168.702c7.389,4.491,15.15,7.564,23.597,9.38
		c-0.537,2.148-1.058,4.243-1.585,6.337c-1.892,7.512-3.822,15.014-5.646,22.543c-0.359,1.484-0.903,1.697-2.345,1.35
		c-9.781-2.351-19.028-6.017-27.762-10.994c-0.469-0.269-0.914-0.578-1.542-0.978C59.254,187.147,64.313,178.001,69.455,168.702z"/>
	<path style="fill-rule:evenodd;clip-rule:evenodd;fill:#A41D21;" d="M17.277,159.749c-2.292-4.859-4.763-9.413-6.615-14.205
		c-1.981-5.125-3.38-10.475-5.033-15.726c-0.266-0.844-0.328-1.437,0.848-1.729c9.778-2.428,19.54-4.926,29.522-7.457
		c1.753,8.349,4.715,16.194,9.214,23.631C36.003,149.37,26.859,154.438,17.277,159.749z"/>
	<path style="fill-rule:evenodd;clip-rule:evenodd;fill:#A41D21;" d="M130.694,208.696c-2.614-10.34-5.154-20.39-7.663-30.316
		c4.116-1.34,8.186-2.447,12.081-3.995c3.905-1.553,7.638-3.546,11.601-5.419c4.955,8.953,10.015,18.095,15.168,27.41
		C152.124,202.21,141.83,206.278,130.694,208.696z"/>
	<path style="fill-rule:evenodd;clip-rule:evenodd;fill:#A41D21;" d="M18.021,52.181c9.216,5.104,18.323,10.148,27.576,15.273
		c-4.413,7.298-7.558,15.02-9.379,23.441c-2.475-0.611-4.863-1.192-7.247-1.796c-7.408-1.876-14.809-3.776-22.224-5.62
		c-0.925-0.231-1.224-0.539-0.992-1.512c2.442-10.27,6.328-19.952,11.689-29.042C17.567,52.718,17.741,52.539,18.021,52.181z"/>
	<path style="fill-rule:evenodd;clip-rule:evenodd;fill:#A41D21;" d="M179.844,90.924c-1.807-8.389-4.926-16.125-9.411-23.468
		c9.226-5.111,18.358-10.172,27.628-15.308c0.435,0.691,0.818,1.255,1.153,1.845c4.975,8.727,8.663,17.963,10.999,27.738
		c0.201,0.838,0.346,1.443-0.844,1.739C199.594,85.896,189.836,88.392,179.844,90.924z"/>
	<path style="fill-rule:evenodd;clip-rule:evenodd;fill:#A41D21;" d="M161.511,15.806c-5.141,9.287-10.183,18.397-15.287,27.624
		c-7.328-4.372-15.041-7.428-23.382-9.179c0.103-0.546,0.165-1.019,0.281-1.48c2.348-9.288,4.725-18.573,7.029-27.873
		c0.286-1.16,0.67-1.362,1.82-1.091c9.879,2.326,19.215,6.005,28.03,11.027C160.468,15.099,160.907,15.414,161.511,15.806z"/>
	<path style="fill-rule:evenodd;clip-rule:evenodd;fill:#A41D21;" d="M93.145,33.964c-4.094,1.307-8.132,2.375-11.994,3.893
		c-3.867,1.52-7.559,3.488-11.479,5.332c-4.959-8.96-10.025-18.114-15.127-27.332c0.336-0.261,0.579-0.498,0.862-0.662
		C64.448,9.95,74.06,6.148,84.236,3.758c0.914-0.215,1.348-0.084,1.59,0.886c2.382,9.541,4.798,19.073,7.202,28.609
		C93.087,33.49,93.108,33.738,93.145,33.964z"/>
	<path style="fill-rule:evenodd;clip-rule:evenodd;fill:#A41D21;" d="M213.037,110.192c-10.659,0-21.117,0-31.667,0
		c0-2.943,0-5.844,0-8.863c0.484-0.026,0.963-0.074,1.442-0.074c9.488,0.002,18.976,0.04,28.465-0.016
		c1.401-0.008,1.824,0.433,1.779,1.774C212.98,105.342,213.037,107.677,213.037,110.192z"/>
	<path style="fill-rule:evenodd;clip-rule:evenodd;fill:#A41D21;" d="M103.688,179.575c2.856,0,5.711,0,8.723,0
		c0.031,0.471,0.091,0.943,0.091,1.415c-0.002,9.497-0.035,18.992,0.01,28.488c0.006,1.313-0.4,1.771-1.689,1.724
		c-2.033-0.075-4.07-0.033-6.104-0.033c-0.76,0-1.191-0.249-1.189-1.126c0.018-9.992,0.01-19.986,0.016-29.978
		C103.545,179.923,103.624,179.785,103.688,179.575z"/>
	<path style="fill-rule:evenodd;clip-rule:evenodd;fill:#A41D21;" d="M34.675,110.192c-10.545,0-21.006,0-31.615,0
		c0-2.946,0-5.813,0-8.809c10.612,0,21.107,0,31.615,0C34.675,104.303,34.675,107.208,34.675,110.192z"/>
</g>
</svg>
