<?xml version="1.0" encoding="iso-8859-1"?>
<!-- Generator: Adobe Illustrator 16.0.0, SVG Export Plug-In . SVG Version: 6.00 Build 0)  -->
<!DOCTYPE svg PUBLIC "-//W3C//DTD SVG 1.1//EN" "http://www.w3.org/Graphics/SVG/1.1/DTD/svg11.dtd">
<svg version="1.1" id="Layer_1" xmlns="http://www.w3.org/2000/svg" xmlns:xlink="http://www.w3.org/1999/xlink" x="0px" y="0px"
	 width="210px" height="210px" viewBox="0 0 210 210" style="enable-background:new 0 0 210 210;" xml:space="preserve">
<g>
	<circle style="fill:#DEE8EC;" cx="107.215" cy="105.811" r="104.999"/>
	<path style="fill-rule:evenodd;clip-rule:evenodd;fill:#606060;" d="M35.09,105.328c-0.187-40.01,32.786-72.748,73.091-72.151
		c39.027,0.578,71.488,32.527,71.079,72.839c-0.404,39.795-32.886,71.942-72.913,71.454C66.36,176.983,34.808,144.304,35.09,105.328
		z"/>
	<path style="fill-rule:evenodd;clip-rule:evenodd;" d="M41.018,105.789c-0.172-36.727,30.097-66.782,67.099-66.233
		c35.828,0.53,65.627,29.858,65.251,66.867c-0.371,36.532-30.19,66.043-66.935,65.596C69.724,171.571,40.757,141.571,41.018,105.789
		z"/>
	<path style="fill-rule:evenodd;clip-rule:evenodd;" d="M197.535,159.147c-9.2-5.096-18.353-10.167-27.34-15.146
		c1.845-3.971,3.818-7.716,5.341-11.634c1.504-3.873,2.554-7.922,3.854-12.053c3.007,0.754,6.17,1.542,9.331,2.341
		c6.595,1.667,13.188,3.347,19.785,5.007c0.766,0.192,1.409,0.269,1.147,1.408c-2.401,10.444-6.267,20.3-11.675,29.55
		C197.903,158.745,197.79,158.846,197.535,159.147z"/>
	<path style="fill-rule:evenodd;clip-rule:evenodd;" d="M68.611,168.309c7.388,4.491,15.15,7.564,23.596,9.38
		c-0.537,2.148-1.058,4.243-1.585,6.337c-1.891,7.511-3.821,15.014-5.646,22.542c-0.359,1.484-0.902,1.697-2.344,1.35
		c-9.781-2.351-19.028-6.017-27.762-10.994c-0.469-0.269-0.914-0.578-1.542-0.978C58.41,186.754,63.469,177.608,68.611,168.309z"/>
	<path style="fill-rule:evenodd;clip-rule:evenodd;" d="M16.433,159.356c-2.292-4.859-4.762-9.413-6.615-14.205
		c-1.981-5.125-3.379-10.475-5.033-15.726c-0.266-0.844-0.328-1.437,0.848-1.729c9.778-2.428,19.54-4.926,29.522-7.457
		c1.753,8.349,4.715,16.194,9.214,23.631C35.159,148.978,26.015,154.045,16.433,159.356z"/>
	<path style="fill-rule:evenodd;clip-rule:evenodd;" d="M129.85,208.303c-2.614-10.34-5.153-20.39-7.662-30.316
		c4.115-1.34,8.186-2.447,12.081-3.995c3.905-1.553,7.637-3.546,11.6-5.419c4.955,8.953,10.014,18.095,15.168,27.41
		C151.28,201.818,140.986,205.886,129.85,208.303z"/>
	<path style="fill-rule:evenodd;clip-rule:evenodd;" d="M17.177,51.788c9.216,5.104,18.323,10.148,27.576,15.273
		c-4.413,7.298-7.558,15.02-9.379,23.441c-2.475-0.611-4.864-1.192-7.247-1.796c-7.408-1.876-14.809-3.776-22.224-5.62
		c-0.926-0.231-1.224-0.539-0.992-1.512c2.442-10.27,6.328-19.952,11.689-29.042C16.724,52.325,16.897,52.146,17.177,51.788z"/>
	<path style="fill-rule:evenodd;clip-rule:evenodd;" d="M179,90.531c-1.807-8.389-4.926-16.125-9.411-23.468
		c9.224-5.111,18.359-10.172,27.627-15.308c0.436,0.691,0.818,1.255,1.155,1.845c4.974,8.726,8.663,17.962,10.999,27.738
		c0.2,0.838,0.346,1.443-0.845,1.739C198.75,85.504,188.991,88,179,90.531z"/>
	<path style="fill-rule:evenodd;clip-rule:evenodd;" d="M160.667,15.413c-5.141,9.287-10.182,18.397-15.288,27.624
		c-7.327-4.372-15.04-7.428-23.38-9.179c0.102-0.546,0.164-1.019,0.28-1.48c2.349-9.288,4.725-18.573,7.029-27.873
		c0.287-1.16,0.671-1.362,1.82-1.091c9.879,2.326,19.216,6.005,28.03,11.027C159.625,14.707,160.063,15.021,160.667,15.413z"/>
	<path style="fill-rule:evenodd;clip-rule:evenodd;" d="M92.301,33.572c-4.094,1.307-8.133,2.375-11.994,3.893
		c-3.868,1.52-7.559,3.488-11.479,5.332c-4.959-8.96-10.025-18.114-15.127-27.332c0.336-0.261,0.578-0.498,0.862-0.662
		c9.042-5.245,18.654-9.046,28.83-11.437c0.914-0.215,1.347-0.084,1.589,0.886c2.382,9.541,4.798,19.073,7.202,28.609
		C92.243,33.098,92.264,33.345,92.301,33.572z"/>
	<path style="fill-rule:evenodd;clip-rule:evenodd;" d="M212.192,109.799c-10.658,0-21.116,0-31.667,0c0-2.943,0-5.844,0-8.863
		c0.484-0.026,0.964-0.074,1.443-0.074c9.488,0.002,18.977,0.04,28.464-0.016c1.401-0.008,1.826,0.433,1.781,1.774
		C212.137,104.95,212.192,107.285,212.192,109.799z"/>
	<path style="fill-rule:evenodd;clip-rule:evenodd;" d="M102.844,179.182c2.855,0,5.711,0,8.722,0
		c0.032,0.471,0.091,0.943,0.091,1.415c-0.001,9.497-0.035,18.992,0.01,28.488c0.006,1.313-0.4,1.771-1.689,1.724
		c-2.033-0.075-4.069-0.033-6.104-0.033c-0.76,0-1.191-0.249-1.19-1.126c0.018-9.992,0.011-19.986,0.016-29.978
		C102.701,179.531,102.779,179.393,102.844,179.182z"/>
	<path style="fill-rule:evenodd;clip-rule:evenodd;" d="M33.831,109.799c-10.544,0-21.005,0-31.614,0c0-2.946,0-5.813,0-8.809
		c10.612,0,21.107,0,31.614,0C33.831,103.911,33.831,106.815,33.831,109.799z"/>
</g>
</svg>
