<?xml version="1.0" encoding="iso-8859-1"?>
<!-- Generator: Adobe Illustrator 16.0.0, SVG Export Plug-In . SVG Version: 6.00 Build 0)  -->
<!DOCTYPE svg PUBLIC "-//W3C//DTD SVG 1.1//EN" "http://www.w3.org/Graphics/SVG/1.1/DTD/svg11.dtd">
<svg version="1.1" id="Layer_1" xmlns="http://www.w3.org/2000/svg" xmlns:xlink="http://www.w3.org/1999/xlink" x="0px" y="0px"
	 width="210px" height="210px" viewBox="0 0 210 210" style="enable-background:new 0 0 210 210;" xml:space="preserve">
<g>
	<circle style="fill:#DEE8EC;" cx="105.903" cy="105.811" r="104.999"/>
	<path style="fill-rule:evenodd;clip-rule:evenodd;fill:#7A5A94;" d="M33.778,105.328c-0.188-40.01,32.786-72.748,73.091-72.151
		c39.027,0.578,71.487,32.527,71.079,72.839c-0.405,39.795-32.887,71.942-72.912,71.454
		C65.048,176.983,33.495,144.304,33.778,105.328z"/>
	<path style="fill-rule:evenodd;clip-rule:evenodd;fill:#724D8D;" d="M39.705,105.789c-0.172-36.727,30.097-66.782,67.099-66.233
		c35.828,0.53,65.627,29.858,65.252,66.867c-0.371,36.532-30.189,66.043-66.935,65.596
		C68.412,171.571,39.444,141.571,39.705,105.789z"/>
	<path style="fill-rule:evenodd;clip-rule:evenodd;fill:#724D8D;" d="M196.223,159.147c-9.201-5.096-18.354-10.167-27.341-15.146
		c1.847-3.971,3.818-7.716,5.341-11.634c1.505-3.873,2.556-7.922,3.854-12.053c3.006,0.754,6.17,1.542,9.331,2.341
		c6.595,1.667,13.188,3.347,19.785,5.007c0.766,0.192,1.408,0.269,1.146,1.408c-2.4,10.444-6.268,20.3-11.676,29.55
		C196.592,158.745,196.478,158.846,196.223,159.147z"/>
	<path style="fill-rule:evenodd;clip-rule:evenodd;fill:#724D8D;" d="M67.299,168.309c7.389,4.491,15.149,7.564,23.596,9.38
		c-0.536,2.148-1.057,4.243-1.584,6.337c-1.892,7.511-3.822,15.014-5.646,22.542c-0.36,1.484-0.903,1.697-2.346,1.35
		c-9.78-2.351-19.027-6.017-27.762-10.994c-0.47-0.269-0.914-0.578-1.542-0.978C57.098,186.754,62.157,177.608,67.299,168.309z"/>
	<path style="fill-rule:evenodd;clip-rule:evenodd;fill:#724D8D;" d="M15.121,159.356c-2.292-4.859-4.763-9.413-6.615-14.205
		c-1.98-5.125-3.38-10.475-5.032-15.726c-0.267-0.844-0.328-1.437,0.848-1.729c9.777-2.428,19.54-4.926,29.521-7.457
		c1.754,8.349,4.717,16.194,9.215,23.631C33.848,148.978,24.702,154.045,15.121,159.356z"/>
	<path style="fill-rule:evenodd;clip-rule:evenodd;fill:#724D8D;" d="M128.537,208.303c-2.613-10.34-5.154-20.39-7.662-30.316
		c4.115-1.34,8.186-2.447,12.082-3.995c3.904-1.553,7.637-3.546,11.599-5.419c4.955,8.953,10.015,18.095,15.168,27.41
		C149.968,201.818,139.674,205.886,128.537,208.303z"/>
	<path style="fill-rule:evenodd;clip-rule:evenodd;fill:#724D8D;" d="M15.864,51.788c9.217,5.104,18.323,10.148,27.576,15.273
		c-4.413,7.298-7.558,15.02-9.379,23.441c-2.474-0.611-4.863-1.192-7.246-1.796c-7.407-1.876-14.809-3.776-22.225-5.62
		c-0.925-0.231-1.224-0.539-0.991-1.512c2.442-10.27,6.326-19.952,11.688-29.042C15.411,52.325,15.586,52.146,15.864,51.788z"/>
	<path style="fill-rule:evenodd;clip-rule:evenodd;fill:#724D8D;" d="M177.688,90.531c-1.807-8.389-4.926-16.125-9.41-23.468
		c9.224-5.111,18.356-10.172,27.626-15.308c0.435,0.691,0.818,1.255,1.154,1.845c4.974,8.726,8.663,17.962,10.999,27.738
		c0.2,0.838,0.347,1.443-0.845,1.739C197.438,85.504,187.679,88,177.688,90.531z"/>
	<path style="fill-rule:evenodd;clip-rule:evenodd;fill:#724D8D;" d="M159.354,15.413c-5.141,9.287-10.183,18.397-15.287,27.624
		c-7.328-4.372-15.041-7.428-23.382-9.179c0.103-0.546,0.164-1.019,0.281-1.48c2.348-9.288,4.725-18.573,7.029-27.873
		c0.287-1.16,0.671-1.362,1.819-1.091c9.881,2.326,19.217,6.005,28.03,11.027C158.313,14.707,158.751,15.021,159.354,15.413z"/>
	<path style="fill-rule:evenodd;clip-rule:evenodd;fill:#724D8D;" d="M90.987,33.572c-4.093,1.307-8.132,2.375-11.993,3.893
		c-3.867,1.52-7.559,3.488-11.48,5.332c-4.958-8.96-10.024-18.114-15.126-27.332c0.337-0.261,0.578-0.498,0.862-0.662
		c9.041-5.245,18.653-9.046,28.83-11.437c0.913-0.215,1.347-0.084,1.59,0.886c2.382,9.541,4.798,19.073,7.2,28.609
		C90.931,33.098,90.953,33.345,90.987,33.572z"/>
	<path style="fill-rule:evenodd;clip-rule:evenodd;fill:#724D8D;" d="M210.88,109.799c-10.658,0-21.115,0-31.667,0
		c0-2.943,0-5.844,0-8.863c0.485-0.026,0.965-0.074,1.442-0.074c9.489,0.002,18.978,0.04,28.465-0.016
		c1.401-0.008,1.825,0.433,1.781,1.774C210.824,104.95,210.88,107.285,210.88,109.799z"/>
	<path style="fill-rule:evenodd;clip-rule:evenodd;fill:#724D8D;" d="M101.532,179.182c2.854,0,5.71,0,8.723,0
		c0.031,0.471,0.091,0.943,0.091,1.415c-0.002,9.497-0.035,18.992,0.01,28.488c0.006,1.313-0.399,1.771-1.688,1.724
		c-2.033-0.075-4.07-0.033-6.105-0.033c-0.76,0-1.19-0.249-1.188-1.126c0.017-9.992,0.01-19.986,0.015-29.978
		C101.389,179.531,101.468,179.393,101.532,179.182z"/>
	<path style="fill-rule:evenodd;clip-rule:evenodd;fill:#724D8D;" d="M32.519,109.799c-10.545,0-21.006,0-31.614,0
		c0-2.946,0-5.813,0-8.809c10.612,0,21.106,0,31.614,0C32.519,103.911,32.519,106.815,32.519,109.799z"/>
</g>
</svg>
