<?xml version="1.0" encoding="iso-8859-1"?>
<!-- Generator: Adobe Illustrator 16.0.0, SVG Export Plug-In . SVG Version: 6.00 Build 0)  -->
<!DOCTYPE svg PUBLIC "-//W3C//DTD SVG 1.1//EN" "http://www.w3.org/Graphics/SVG/1.1/DTD/svg11.dtd">
<svg version="1.1" id="Layer_1" xmlns="http://www.w3.org/2000/svg" xmlns:xlink="http://www.w3.org/1999/xlink" x="0px" y="0px"
	 width="210px" height="210px" viewBox="0 0 210 210" style="enable-background:new 0 0 210 210;" xml:space="preserve">
<g>
	<circle style="fill:#DEE8EC;" cx="105.058" cy="105.21" r="104.998"/>
	<path style="fill-rule:evenodd;clip-rule:evenodd;fill:#CFA54B;" d="M32.934,104.726c-0.187-40.009,32.786-72.747,73.091-72.149
		c39.027,0.577,71.488,32.525,71.079,72.839c-0.404,39.795-32.886,71.941-72.913,71.454
		C64.205,176.382,32.651,143.703,32.934,104.726z"/>
	<path style="fill-rule:evenodd;clip-rule:evenodd;fill:#C4942F;" d="M38.861,105.188C38.689,68.46,68.958,38.406,105.96,38.954
		c35.827,0.53,65.627,29.858,65.251,66.866c-0.372,36.532-30.189,66.045-66.935,65.597C67.568,170.971,38.602,140.97,38.861,105.188
		z"/>
	<path style="fill-rule:evenodd;clip-rule:evenodd;fill:#CFA54B;" d="M195.38,158.546c-9.201-5.097-18.354-10.167-27.341-15.146
		c1.846-3.97,3.817-7.716,5.341-11.634c1.504-3.873,2.555-7.923,3.854-12.053c3.007,0.754,6.171,1.54,9.332,2.34
		c6.595,1.668,13.187,3.349,19.783,5.008c0.767,0.192,1.409,0.269,1.148,1.407c-2.402,10.444-6.268,20.3-11.677,29.552
		C195.747,158.145,195.634,158.246,195.38,158.546z"/>
	<path style="fill-rule:evenodd;clip-rule:evenodd;fill:#CFA54B;" d="M66.455,167.708c7.389,4.491,15.15,7.565,23.597,9.38
		c-0.537,2.147-1.058,4.243-1.585,6.337c-1.892,7.513-3.822,15.016-5.646,22.543c-0.359,1.484-0.903,1.697-2.345,1.351
		c-9.781-2.352-19.028-6.018-27.762-10.995c-0.469-0.268-0.914-0.577-1.542-0.978C56.254,186.154,61.313,177.007,66.455,167.708z"/>
	<path style="fill-rule:evenodd;clip-rule:evenodd;fill:#CFA54B;" d="M14.277,158.755c-2.292-4.857-4.763-9.412-6.615-14.205
		c-1.981-5.125-3.38-10.474-5.033-15.726c-0.266-0.844-0.328-1.437,0.848-1.729c9.778-2.428,19.54-4.926,29.522-7.457
		c1.753,8.35,4.715,16.193,9.214,23.632C33.003,148.376,23.859,153.444,14.277,158.755z"/>
	<path style="fill-rule:evenodd;clip-rule:evenodd;fill:#CFA54B;" d="M127.694,207.701c-2.614-10.34-5.154-20.39-7.663-30.315
		c4.116-1.34,8.186-2.446,12.081-3.994c3.905-1.553,7.638-3.546,11.601-5.419c4.955,8.953,10.015,18.094,15.168,27.409
		C149.124,201.217,138.83,205.284,127.694,207.701z"/>
	<path style="fill-rule:evenodd;clip-rule:evenodd;fill:#CFA54B;" d="M15.021,51.187c9.216,5.104,18.323,10.149,27.576,15.273
		c-4.413,7.298-7.558,15.021-9.379,23.442c-2.475-0.612-4.863-1.192-7.247-1.796c-7.408-1.876-14.809-3.777-22.224-5.62
		c-0.925-0.231-1.224-0.538-0.992-1.513c2.442-10.269,6.328-19.952,11.689-29.042C14.567,51.725,14.741,51.545,15.021,51.187z"/>
	<path style="fill-rule:evenodd;clip-rule:evenodd;fill:#CFA54B;" d="M176.844,89.93c-1.807-8.388-4.926-16.125-9.411-23.468
		c9.226-5.111,18.358-10.173,27.628-15.308c0.435,0.692,0.818,1.255,1.153,1.846c4.975,8.727,8.663,17.964,10.999,27.737
		c0.201,0.839,0.346,1.443-0.844,1.739C196.594,84.902,186.836,87.397,176.844,89.93z"/>
	<path style="fill-rule:evenodd;clip-rule:evenodd;fill:#CFA54B;" d="M158.511,14.813c-5.141,9.287-10.183,18.397-15.287,27.622
		c-7.328-4.37-15.041-7.427-23.382-9.178c0.103-0.546,0.165-1.021,0.281-1.48c2.348-9.289,4.725-18.572,7.029-27.874
		c0.286-1.16,0.67-1.362,1.82-1.091c9.879,2.325,19.215,6.005,28.03,11.027C157.468,14.105,157.907,14.42,158.511,14.813z"/>
	<path style="fill-rule:evenodd;clip-rule:evenodd;fill:#CFA54B;" d="M90.145,32.97c-4.094,1.309-8.132,2.377-11.994,3.894
		c-3.867,1.521-7.559,3.488-11.479,5.332c-4.959-8.961-10.025-18.113-15.127-27.332c0.336-0.262,0.579-0.499,0.862-0.662
		c9.042-5.246,18.654-9.046,28.83-11.438c0.914-0.215,1.348-0.084,1.59,0.886c2.382,9.542,4.798,19.073,7.202,28.609
		C90.087,32.497,90.108,32.744,90.145,32.97z"/>
	<path style="fill-rule:evenodd;clip-rule:evenodd;fill:#CFA54B;" d="M210.037,109.199c-10.659,0-21.117,0-31.667,0
		c0-2.945,0-5.846,0-8.865c0.484-0.025,0.963-0.074,1.442-0.074c9.488,0.003,18.976,0.041,28.465-0.015
		c1.401-0.008,1.824,0.433,1.779,1.773C209.98,104.349,210.037,106.685,210.037,109.199z"/>
	<path style="fill-rule:evenodd;clip-rule:evenodd;fill:#CFA54B;" d="M100.688,178.58c2.856,0,5.712,0,8.723,0
		c0.032,0.472,0.091,0.944,0.091,1.416c-0.002,9.496-0.035,18.991,0.01,28.487c0.007,1.313-0.4,1.771-1.69,1.725
		c-2.032-0.075-4.069-0.033-6.104-0.034c-0.76,0-1.191-0.247-1.189-1.125c0.018-9.993,0.01-19.986,0.016-29.979
		C100.545,178.931,100.624,178.792,100.688,178.58z"/>
	<path style="fill-rule:evenodd;clip-rule:evenodd;fill:#CFA54B;" d="M31.675,109.199c-10.545,0-21.006,0-31.615,0
		c0-2.948,0-5.814,0-8.812c10.612,0,21.107,0,31.615,0C31.675,103.31,31.675,106.213,31.675,109.199z"/>
	<path style="fill-rule:evenodd;clip-rule:evenodd;fill:#CFA54B;" d="M109.423,0.211c0,10.627,0,21.045,0,31.558
		c-2.934,0-5.789,0-8.773,0c0-10.465,0-20.919,0-31.558C103.54,0.211,106.394,0.211,109.423,0.211z"/>
</g>
</svg>
