<?xml version="1.0" encoding="utf-8"?>
<!-- Generator: Adobe Illustrator 16.0.0, SVG Export Plug-In . SVG Version: 6.00 Build 0)  -->
<!DOCTYPE svg PUBLIC "-//W3C//DTD SVG 1.1//EN" "http://www.w3.org/Graphics/SVG/1.1/DTD/svg11.dtd">
<svg version="1.1" id="Layer_1" xmlns="http://www.w3.org/2000/svg" xmlns:xlink="http://www.w3.org/1999/xlink" x="0px" y="0px"
	 width="64.735px" height="64.706px" viewBox="0 0 64.735 64.706" enable-background="new 0 0 64.735 64.706" xml:space="preserve">
<linearGradient id="SVGID_1_" gradientUnits="userSpaceOnUse" x1="4.7559" y1="831.1309" x2="55.7604" y2="207.0685">
	<stop  offset="0" style="stop-color:#240D29"/>
	<stop  offset="1" style="stop-color:#302A3E"/>
</linearGradient>
<rect x="-1236.083" y="-641.563" display="none" fill="url(#SVGID_1_)" width="2607" height="1412"/>
<g>
	<g>
		<g>
			<circle fill="#1E101F" cx="1416.429" cy="-181.788" r="32"/>
		</g>
		<g>
			<path fill="#3A3039" d="M1416.429-148.288c-18.472,0-33.5-15.028-33.5-33.5s15.028-33.5,33.5-33.5s33.5,15.028,33.5,33.5
				S1434.9-148.288,1416.429-148.288z M1416.429-212.288c-16.817,0-30.5,13.683-30.5,30.5s13.683,30.5,30.5,30.5
				s30.5-13.683,30.5-30.5S1433.246-212.288,1416.429-212.288z"/>
		</g>
	</g>
	<g>
		<g>
			<rect x="1404.917" y="-192.563" fill="#FFFFFF" width="23" height="2"/>
		</g>
	</g>
	<g>
		<g>
			<rect x="1404.917" y="-181.563" fill="#FFFFFF" width="23" height="2"/>
		</g>
	</g>
	<g>
		<g>
			<rect x="1404.917" y="-169.563" fill="#FFFFFF" width="23" height="2"/>
		</g>
	</g>
</g>
<g>
	<g>
		<g>
			<circle fill="#ADB4B4" cx="1416.429" cy="345.212" r="32"/>
		</g>
	</g>
	<g>
		<g>
			<rect x="1404.917" y="335.438" fill="#242A2A" width="23" height="3"/>
		</g>
	</g>
	<g>
		<g>
			<rect x="1404.917" y="346.438" fill="#242A2A" width="23" height="3"/>
		</g>
	</g>
	<g>
		<g>
			<rect x="1404.917" y="358.438" fill="#242A2A" width="23" height="3"/>
		</g>
	</g>
</g>
<g>
	<g>
		<g>
			<circle fill="#102223" cx="1416.429" cy="-102.676" r="32"/>
		</g>
		<g>
			<path fill="#1B3637" d="M1416.429-69.176c-18.472,0-33.5-15.028-33.5-33.5s15.028-33.5,33.5-33.5s33.5,15.028,33.5,33.5
				S1434.9-69.176,1416.429-69.176z M1416.429-133.176c-16.817,0-30.5,13.683-30.5,30.5s13.683,30.5,30.5,30.5
				s30.5-13.683,30.5-30.5S1433.246-133.176,1416.429-133.176z"/>
		</g>
	</g>
	<g>
		<g>
			<g>
				<path fill="#545555" d="M1419.507-92.563h-12.59v-2h12.59c4.865,0,7.41-4.877,7.41-9.695c0-4.867-2.493-7.305-7.41-7.305h-9.59
					v-2h9.59c5.98,0,9.41,3.369,9.41,9.244C1428.917-98.446,1425.685-92.563,1419.507-92.563z"/>
			</g>
		</g>
		<g>
			<g>
				<line fill="#3A3039" x1="1410.09" y1="-113.676" x2="1410.09" y2="-113.676"/>
			</g>
		</g>
		<g>
			<g>
				<g>
					<path fill="#545555" d="M1405.823-112.182c2.751-1.269,6.126-3.331,8.157-5.397l-1.351,4.874l2.08,4.608
						C1412.387-109.827,1408.735-111.35,1405.823-112.182z"/>
				</g>
			</g>
		</g>
	</g>
</g>
<g>
	<g>
		<circle fill="#102223" cx="1416.429" cy="81.353" r="32"/>
	</g>
	<g>
		<path fill="#1B3637" d="M1416.429,114.853c-18.472,0-33.5-15.028-33.5-33.5s15.028-33.499,33.5-33.499s33.5,15.027,33.5,33.499
			S1434.9,114.853,1416.429,114.853z M1416.429,50.854c-16.817,0-30.5,13.682-30.5,30.499s13.683,30.5,30.5,30.5
			s30.5-13.683,30.5-30.5S1433.246,50.854,1416.429,50.854z"/>
	</g>
</g>
<g>
	<g>
		<circle fill="#66625F" cx="1415.809" cy="81.354" r="15.286"/>
	</g>
</g>
<g>
	<g>
		<path fill="#1B3637" d="M1408.677,86.031v-0.918l1.172-1.139c2.822-2.686,4.097-4.113,4.113-5.779
			c0-1.122-0.543-2.159-2.192-2.159c-1.003,0-1.835,0.51-2.346,0.935l-0.476-1.054c0.765-0.646,1.853-1.122,3.127-1.122
			c2.381,0,3.383,1.632,3.383,3.213c0,2.04-1.479,3.688-3.807,5.933l-0.885,0.816v0.033h4.964v1.241H1408.677z"/>
	</g>
	<g>
		<path fill="#1B3637" d="M1418.569,77.804l1.174,1.769c0.305,0.459,0.561,0.884,0.832,1.343h0.051
			c0.272-0.493,0.545-0.918,0.816-1.36l1.156-1.751h1.614l-2.805,3.978l2.89,4.25h-1.699l-1.207-1.853
			c-0.323-0.477-0.596-0.936-0.885-1.428h-0.033c-0.271,0.492-0.561,0.935-0.867,1.428l-1.189,1.853h-1.648l2.923-4.198
			l-2.788-4.029H1418.569z"/>
	</g>
</g>
<g>
	<g>
		<g>
			<circle fill="#A69AA6" cx="32.429" cy="32.353" r="32"/>
		</g>
	</g>
	<g>
		<g>
			<path fill="#020202" d="M41.669,41.438h-5.752v-2h5.75c0.484-0.001,0.966-0.056,1.431-0.164l0.453,1.947
				C42.939,41.363,42.306,41.437,41.669,41.438z M33.917,41.438h-8v-2h8V41.438z M23.917,41.438h-2.75
				c-1.869,0-3.632-0.609-5.097-1.762l1.236-1.572c1.109,0.873,2.444,1.334,3.86,1.334h2.75V41.438z M45.827,40.313l-1.01-1.727
				c1.912-1.118,3.1-3.188,3.1-5.399l2-0.084v0.084C49.917,36.107,48.35,38.838,45.827,40.313z M14.392,37.896
				c-0.965-1.386-1.475-3.014-1.475-4.708v-0.5c0-1.02,0.185-2.015,0.547-2.958l1.867,0.719c-0.274,0.713-0.414,1.467-0.414,2.239
				v0.5c0,1.284,0.386,2.517,1.115,3.565L14.392,37.896z M47.738,31.196c-0.525-2.15-2.172-3.876-4.296-4.504l0.566-1.918
				c2.805,0.829,4.979,3.107,5.673,5.947L47.738,31.196z M16.246,28.834L14.672,27.6c1.576-2.01,3.942-3.162,6.492-3.162h0.003h0.75
				v2h-0.75h-0.003C19.232,26.438,17.44,27.311,16.246,28.834z M41.917,26.438h-8v-2h8V26.438z M31.917,26.438h-8v-2h8V26.438z"/>
		</g>
	</g>
</g>
<g>
	<g>
		<g>
			<circle fill="#E3E7E3" cx="1416.138" cy="253.745" r="32"/>
		</g>
	</g>
	<g>
		<g>
			<circle fill="#A51700" cx="1416.138" cy="253.745" r="19.958"/>
		</g>
	</g>
	<g>
		<g>
			<path fill="#F98878" d="M1416.138,270.897c-9.457,0-17.15-7.694-17.15-17.152c0-9.457,7.693-17.15,17.15-17.15
				s17.151,7.693,17.151,17.15C1433.289,263.203,1425.595,270.897,1416.138,270.897z M1416.138,237.595
				c-8.905,0-16.15,7.245-16.15,16.15c0,8.906,7.245,16.152,16.15,16.152c8.906,0,16.151-7.246,16.151-16.152
				C1432.289,244.84,1425.044,237.595,1416.138,237.595z"/>
		</g>
	</g>
	<g>
		<g>
			<path fill="#F2F7F7" d="M1420.675,248.705h-5.76l-0.32,2.285c0.32-0.045,0.595-0.045,0.96-0.045c1.418,0,2.857,0.32,3.909,1.074
				c1.12,0.754,1.806,1.988,1.806,3.727c0,2.766-2.377,5.211-6.377,5.211c-1.806,0-3.314-0.412-4.138-0.846l0.617-2.605
				c0.663,0.32,2.012,0.73,3.36,0.73c1.439,0,2.972-0.686,2.972-2.262c0-1.531-1.212-2.469-4.184-2.469
				c-0.822,0-1.395,0.045-2.012,0.137l0.983-7.795h8.183V248.705z"/>
		</g>
	</g>
	<g>
		<g>
			<rect x="1384.917" y="255.438" fill="#A51700" width="12" height="2"/>
		</g>
	</g>
	<g>
		<g>
			<rect x="1434.917" y="255.438" fill="#A51700" width="13" height="2"/>
		</g>
	</g>
	<g>
		<g>
			<g>
				<rect x="1413.917" y="222.438" fill="#A51700" width="2" height="12"/>
			</g>
		</g>
		<g>
			<g>
				<polygon fill="#A51700" points="1401.178,225.458 1405.139,237.095 1409.795,234.823 1406.663,223.174 				"/>
			</g>
		</g>
		<g>
			<g>
				<polygon fill="#A51700" points="1422.252,222.897 1419.558,234.891 1424.714,236.383 1428.123,223.811 				"/>
			</g>
		</g>
	</g>
	<g>
		<g>
			<rect x="1413.917" y="272.438" fill="#A51700" width="2" height="13"/>
		</g>
	</g>
	<g>
		<g>
			<polygon fill="#A51700" points="1406.076,269.788 1400.839,281.328 1405.888,283.489 1410.778,272.463 			"/>
		</g>
	</g>
	<g>
		<g>
			<polygon fill="#A51700" points="1419.752,272.988 1422.332,285.007 1427.22,283.293 1425.465,271.357 			"/>
		</g>
	</g>
	<g>
		<g>
			<path fill="#A51700" d="M1395.917,252.438h-11c0,0-0.056-5.49,0-5.736s-0.025-0.246-0.025-0.246l12.306,0.992l-0.28,4.99
				H1395.917z"/>
		</g>
	</g>
	<g>
		<g>
			<path fill="#A51700" d="M1398.393,265.349l-10.774,2.313c0,0-2.132-5.569-2.124-5.822c0.007-0.252,0.928-0.236,0.928-0.236
				l12.266-1.397l1.687,4.951L1398.393,265.349z"/>
		</g>
	</g>
	<g>
		<g>
			<path fill="#A51700" d="M1433.917,247.438h13c0,0,1.199,4.785,1.21,5.469c0.011,0.686,0.011,0.531,0.011,0.531h-13.221
				L1433.917,247.438z"/>
		</g>
	</g>
	<g>
		<g>
			<polygon fill="#A51700" points="1434.917,260.438 1446.917,260.438 1445.782,265.438 1431.917,265.438 			"/>
		</g>
	</g>
</g>
<g display="none">
	<path display="inline" opacity="0.55" fill="#327F37" d="M407.917-489.866c0,44.35-35.953,80.303-80.303,80.303H-88.78
		c-44.35,0-80.303-35.953-80.303-80.303v-0.394c0-44.35,35.953-80.303,80.303-80.303h416.395c44.35,0,80.303,35.953,80.303,80.303
		V-489.866z"/>
	<path display="inline" opacity="0.55" fill="#327F37" d="M346.917-489.866c0,44.35-35.953,80.303-80.303,80.303H-149.78
		c-44.35,0-80.303-35.953-80.303-80.303v-0.394c0-44.35,35.953-80.303,80.303-80.303h416.395c44.35,0,80.303,35.953,80.303,80.303
		V-489.866z"/>
	<path display="inline" opacity="0.55" fill="#327F37" d="M370.917-470.866c0,44.35-35.315,80.303-78.372,80.303h-404.256
		c-43.057,0-78.372-35.953-78.372-80.303v-0.394c0-44.35,35.315-80.303,78.372-80.303h404.256c43.057,0,78.372,35.953,78.372,80.303
		V-470.866z"/>
	<path display="inline" opacity="0.55" fill="#327F37" d="M370.917-514.866c0,44.35-35.315,80.303-78.372,80.303h-404.256
		c-43.057,0-78.372-35.953-78.372-80.303v-0.394c0-44.35,35.315-80.303,78.372-80.303h404.256c43.057,0,78.372,35.953,78.372,80.303
		V-514.866z"/>
	<path display="inline" fill="#327F37" d="M378.917-496.866c0,44.35-35.953,80.303-80.303,80.303H-117.78
		c-44.35,0-80.303-35.953-80.303-80.303v-0.394c0-44.35,35.953-80.303,80.303-80.303h416.395c44.35,0,80.303,35.953,80.303,80.303
		V-496.866z"/>
	
		<text transform="matrix(1 0 0 1 -126.1475 -450.3193)" display="inline" fill="#1E191F" stroke="#000000" stroke-miterlimit="10" font-family="'Georgia'" font-size="139.5249">ICONS</text>
</g>
</svg>
