<?xml version="1.0" encoding="utf-8"?>
<!-- Generator: Adobe Illustrator 16.0.0, SVG Export Plug-In . SVG Version: 6.00 Build 0)  -->
<!DOCTYPE svg PUBLIC "-//W3C//DTD SVG 1.1//EN" "http://www.w3.org/Graphics/SVG/1.1/DTD/svg11.dtd">
<svg version="1.1" id="Layer_1" xmlns="http://www.w3.org/2000/svg" xmlns:xlink="http://www.w3.org/1999/xlink" x="0px" y="0px"
	 width="84.459px" height="53.486px" viewBox="0 0 84.459 53.486" enable-background="new 0 0 84.459 53.486" xml:space="preserve">
<g>
	<g>
		
			<ellipse transform="matrix(0.9965 -0.0833 0.0833 0.9965 -2.0748 3.7343)" fill="#083740" cx="43.732" cy="26.742" rx="37.319" ry="19.807"/>
		<path fill="#B8CC86" d="M39.53,49.226c-19.63,0-34.551-8.062-35.479-19.169C3.53,23.819,7.389,17.718,14.917,12.879
			c7.05-4.531,16.624-7.503,26.958-8.365c2.023-0.169,4.062-0.255,6.06-0.255c19.629,0,34.55,8.061,35.479,19.167
			C84.454,35.891,67.84,47.112,45.59,48.971C43.567,49.14,41.528,49.226,39.53,49.226z M47.935,9.259
			c-1.859,0-3.758,0.08-5.644,0.237c-9.534,0.796-18.295,3.491-24.67,7.589c-5.897,3.791-8.947,8.25-8.587,12.556
			c0.695,8.314,13.806,14.585,30.497,14.585c1.859,0,3.758-0.08,5.644-0.237c18.807-1.572,34.036-10.798,33.256-20.146
			C77.735,15.529,64.625,9.259,47.935,9.259z"/>
	</g>
	<g>
		<path fill="#FFFFFF" d="M22.688,20.972c0.686-0.089,1.505-0.154,2.425-0.154c1.153,0,1.99,0.164,2.592,0.517
			c0.519,0.275,0.819,0.671,0.819,1.155c0,0.936-1.153,1.629-2.441,1.848v0.022c1.021,0.198,1.873,0.759,1.856,1.65
			c0,0.759-0.619,1.353-1.354,1.716c-0.887,0.44-2.124,0.605-3.646,0.605c-0.971,0-1.807-0.033-2.342-0.1L22.688,20.972z
			 M22.153,27.55c0.351,0.033,0.769,0.045,1.153,0.045c1.639,0.01,3.178-0.441,3.178-1.629c0-0.869-1.12-1.254-2.392-1.254h-1.12
			L22.153,27.55z M23.189,24.019h1.037c1.605,0,2.859-0.551,2.859-1.452c0-0.716-0.819-1.023-2.04-1.023
			c-0.519,0-0.937,0.033-1.153,0.077L23.189,24.019z"/>
		<path fill="#FFFFFF" d="M39.728,23.789c0,1.287-0.702,2.705-2.04,3.586c-1.004,0.648-2.308,1.034-3.863,1.034
			c-2.91,0-4.281-1.441-4.281-3.015c0-1.309,0.786-2.75,2.157-3.642c0.953-0.616,2.358-1.001,3.779-1.001
			C38.507,20.751,39.728,22.204,39.728,23.789z M32.721,22.269c-1.087,0.716-1.723,2.014-1.723,3.049c0,1.209,0.819,2.32,3.027,2.32
			c0.953,0,1.873-0.275,2.575-0.736c1.054-0.705,1.672-2.035,1.672-3.07c0-1.056-0.519-2.311-2.977-2.311
			C34.293,21.521,33.406,21.808,32.721,22.269z"/>
		<path fill="#FFFFFF" d="M40.428,28.288l2.141-7.415h1.521l2.593,4.203c0.484,0.836,0.752,1.43,0.986,2.068l0.033-0.012
			c0.067-0.671,0.185-1.287,0.469-2.321l1.137-3.938h1.321l-2.157,7.415h-1.371l-2.559-4.191c-0.552-0.913-0.803-1.441-1.054-2.134
			l-0.051,0.01c-0.117,0.693-0.301,1.431-0.585,2.443l-1.12,3.872H40.428z"/>
		<path fill="#FFFFFF" d="M54.506,20.873l-1.271,4.39c-0.084,0.308-0.134,0.627-0.134,0.935c0,0.947,0.836,1.431,2.09,1.431
			c1.539,0,2.676-0.683,3.145-2.343l1.287-4.412h1.389l-1.288,4.434c-0.652,2.211-2.324,3.103-4.716,3.103
			c-1.856,0-3.295-0.66-3.295-2.189c0-0.319,0.051-0.683,0.15-1.022l1.255-4.324H54.506z"/>
		<path fill="#FFFFFF" d="M61.411,27.144c0.603,0.274,1.455,0.473,2.392,0.473c1.271,0,2.441-0.495,2.441-1.397
			c0-0.55-0.484-0.957-1.655-1.386c-1.438-0.506-2.241-1.101-2.241-1.904c0-1.319,1.739-2.178,3.813-2.178
			c1.087,0,1.906,0.221,2.308,0.396l-0.502,0.736c-0.351-0.132-1.054-0.352-1.956-0.341c-1.389,0-2.225,0.605-2.225,1.21
			c0,0.605,0.568,0.946,1.739,1.375c1.388,0.484,2.157,1.068,2.157,1.98c0,1.287-1.538,2.289-4.063,2.289
			c-1.138,0-2.241-0.242-2.709-0.506L61.411,27.144z"/>
	</g>
</g>
</svg>
