<?xml version="1.0" encoding="iso-8859-1"?>
<!-- Generator: Adobe Illustrator 16.0.0, SVG Export Plug-In . SVG Version: 6.00 Build 0)  -->
<!DOCTYPE svg PUBLIC "-//W3C//DTD SVG 1.1//EN" "http://www.w3.org/Graphics/SVG/1.1/DTD/svg11.dtd">
<svg version="1.1" id="Layer_1" xmlns="http://www.w3.org/2000/svg" xmlns:xlink="http://www.w3.org/1999/xlink" x="0px" y="0px"
	 width="210px" height="210px" viewBox="0 0 210 210" style="enable-background:new 0 0 210 210;" xml:space="preserve">
<g>
	<circle style="fill:#00913C;stroke:#4CD34C;stroke-width:3;stroke-miterlimit:10;" cx="104.532" cy="104.502" r="101.833"/>
	<g>
		<path style="fill:#FFFFFF;" d="M68.04,124.333h31.465c2.377,0,4.572,0.96,4.572,3.431c0,2.47-2.195,3.429-4.572,3.429H58.893
			v-22.37c0-5.145,3.476-7.752,10.335-7.752h25.704v-16.4H63.467c-2.379,0-4.574-0.96-4.574-3.429c0-2.47,2.195-3.431,4.574-3.431
			h30.368c3.017,0,5.123,0.344,7.409,1.92c2.56,1.785,2.834,3.637,2.834,6.108v14.065c0,2.471-0.274,4.322-2.834,6.109
			c-2.286,1.577-4.392,1.92-7.409,1.92H68.04V124.333z"/>
		<path style="fill:#FFFFFF;" d="M124.129,112.735l-9.571-11.936c-0.715-0.963-1.497-1.853-1.497-3.089c0-1.852,1.368-3.5,3.127-3.5
			c1.886,0,3.125,2.057,4.23,3.5l7.945,10.295l7.942-10.295c1.106-1.443,2.343-3.5,4.232-3.5c1.758,0,3.125,1.648,3.125,3.5
			c0,1.237-0.782,2.126-1.499,3.089l-9.57,11.936l9.57,11.94c0.716,0.96,1.499,1.851,1.499,3.089c0,1.852-1.367,3.429-3.125,3.429
			c-1.889,0-3.126-1.99-4.232-3.429l-7.942-10.293l-7.945,10.293c-1.105,1.439-2.344,3.429-4.23,3.429
			c-1.759,0-3.127-1.577-3.127-3.429c0-1.238,0.782-2.129,1.497-3.089L124.129,112.735z"/>
	</g>
</g>
</svg>
