<?xml version="1.0" encoding="utf-8"?>
<!-- Generator: Adobe Illustrator 16.0.0, SVG Export Plug-In . SVG Version: 6.00 Build 0)  -->
<!DOCTYPE svg PUBLIC "-//W3C//DTD SVG 1.1//EN" "http://www.w3.org/Graphics/SVG/1.1/DTD/svg11.dtd">
<svg version="1.1" id="Layer_1" xmlns="http://www.w3.org/2000/svg" xmlns:xlink="http://www.w3.org/1999/xlink" x="0px" y="0px"
	 width="215.081px" height="212.862px" viewBox="0 0 215.081 212.862" enable-background="new 0 0 215.081 212.862"
	 xml:space="preserve">
<g>
	<g opacity="0.89">
		<g>
			<circle fill="#1D2725" cx="107.54" cy="107.862" r="93.642"/>
		</g>
	</g>
	<g>
		<path fill="#FFF36A" d="M107.54,2.862c-57.989,0-105,47.01-105,105c0,57.987,47.01,105,105,105c57.99,0,105-47.013,105-105
			C212.54,49.872,165.53,2.862,107.54,2.862z M107.54,201.504c-51.716,0-93.642-41.927-93.642-93.642
			c0-51.717,41.926-93.642,93.642-93.642c51.717,0,93.642,41.925,93.642,93.642C201.182,159.577,159.257,201.504,107.54,201.504z"/>
	</g>
	<g>
		<path fill="#FFFFFD" d="M59.013,115.379l-3.5,10.601h-4.5l11.451-33.702h5.25l11.5,33.702h-4.65l-3.601-10.601H59.013z
			 M70.063,111.979l-3.3-9.7c-0.75-2.2-1.25-4.2-1.75-6.15h-0.1c-0.5,2-1.05,4.05-1.7,6.101l-3.3,9.75H70.063z"/>
		<path fill="#FFFFFD" d="M84.163,125.979V92.277h4.75l10.801,17.051c2.5,3.95,4.45,7.501,6.05,10.951l0.1-0.05
			c-0.4-4.501-0.5-8.601-0.5-13.852V92.277h4.1v33.702h-4.4l-10.701-17.101c-2.35-3.751-4.601-7.601-6.3-11.251l-0.15,0.05
			c0.25,4.25,0.35,8.301,0.35,13.9v14.401H84.163z"/>
		<path fill="#FFFFFD" d="M123.462,95.978h-10.25v-3.7h24.951v3.7h-10.301v30.002h-4.4V95.978z"/>
		<path fill="#FFFFFD" d="M159.362,110.179h-13.101v12.15h14.601v3.65h-18.951V92.277h18.201v3.65h-13.851v10.65h13.101V110.179z"/>
	</g>
</g>
</svg>
