<svg id="Layer_1" data-name="Layer 1" xmlns="http://www.w3.org/2000/svg" xmlns:xlink="http://www.w3.org/1999/xlink" viewBox="0 0 256 128"><defs><style>.cls-1{fill:#adee98;}.cls-2{fill:#3a5d44;}.cls-3{fill:#4da462;}.cls-4{fill:#3a5c44;}.cls-5{fill:#5cdf78;}.cls-6{fill:#24392a;}.cls-7{fill:#5ee47b;}.cls-8{fill:#52d167;}.cls-9{opacity:0.19;fill:url(#linear-gradient);}</style><linearGradient id="linear-gradient" x1="128" x2="128" y2="128" gradientUnits="userSpaceOnUse"><stop offset="0" stop-color="lime"/><stop offset="0.24417" stop-color="#00de0c"/><stop offset="0.77856" stop-color="#008b2a"/><stop offset="0.99438" stop-color="#006837"/></linearGradient></defs><title>i4</title><rect class="cls-1" width="256" height="128"/><rect class="cls-2" x="5.6947" y="4.51402" width="244.61061" height="118.97197"/><rect class="cls-3" x="14.53484" y="11.48029" width="226.93032" height="105.03943"/><path class="cls-4" d="M-1268.26442-736.27051v65.88969a14.64188,14.64188,0,0,0-14.35925,14.90847h-190.56477a14.6419,14.6419,0,0,0-14.35938-14.90847v-65.88969a14.6419,14.6419,0,0,0,14.35938-14.90848h190.56477A14.64188,14.64188,0,0,0-1268.26442-736.27051Z" transform="translate(1505.90305 767.32594)"/><ellipse class="cls-5" cx="128" cy="64" rx="53.63864" ry="31.1908"/><ellipse class="cls-6" cx="128" cy="64" rx="48.97197" ry="28.47714"/><rect class="cls-5" x="78.77803" y="104.89471" width="97.94394" height="22"/><rect class="cls-6" x="80.6947" y="106.1866" width="94.11061" height="19.41623"/><circle class="cls-3" cx="53.49955" cy="64.00028" r="5.33333"/><circle class="cls-3" cx="204.66344" cy="64.00028" r="5.33333"/><path class="cls-7" d="M-1413.97863-657.37752h4.354c2.59815,0,4.83008.95166,4.83008,3.95215,0,2.90869-2.26855,4.1709-4.75683,4.1709h-1.28076v3.769h-3.14649Zm4.28076,5.63525c1.24414,0,1.82959-.62207,1.82959-1.6831,0-1.06152-.69531-1.46387-1.90234-1.46387h-1.06152v3.147Z" transform="translate(1505.90305 767.32594)"/><path class="cls-7" d="M-1401.64953-657.37752h3.80567l3.62207,11.89209h-3.32959l-1.354-5.78125c-.29248-1.13428-.58545-2.57959-.87793-3.769h-.07324c-.25586,1.20752-.54883,2.63476-.8418,3.769l-1.35351,5.78125h-3.22022Zm-1.02441,6.93408h5.81787v2.43311h-5.81787Z" transform="translate(1505.90305 767.32594)"/><path class="cls-7" d="M-1391.36925-649.58357l-3.58594-7.79395h3.3667l.87793,2.48828c.293.89649.58545,1.71973.89648,2.65283h.07324c.311-.9331.62207-1.75634.93311-2.65283l.87793-2.48828h3.29346l-3.58594,7.79395v4.09814h-3.147Z" transform="translate(1505.90305 767.32594)"/><path class="cls-7" d="M-1384.60168-646.96736l1.793-2.15869a4.83182,4.83182,0,0,0,2.78076,1.15234c.95166,0,1.354-.311,1.354-.84131,0-.56738-.604-.75049-1.60986-1.15283l-1.48194-.62207a3.51413,3.51413,0,0,1-2.397-3.31153c0-2.03076,1.82959-3.69531,4.42773-3.69531a5.71783,5.71783,0,0,1,3.95166,1.59131l-1.57324,1.97607a3.92159,3.92159,0,0,0-2.37842-.85986c-.76855,0-1.24414.27442-1.24414.80518,0,.56689.67676.76806,1.75635,1.189l1.44531.56738a3.26817,3.26817,0,0,1,2.32324,3.25635c0,2.0127-1.6831,3.80567-4.647,3.80567A6.88663,6.88663,0,0,1-1384.60168-646.96736Z" transform="translate(1505.90305 767.32594)"/><path class="cls-7" d="M-1370.00451-648.01033h2.48828v-6.00049h-2.1958v-1.93945a8.22973,8.22973,0,0,0,3.03711-1.13428h2.30518v9.07422h2.08594v2.5249h-7.72071Z" transform="translate(1505.90305 767.32594)"/><path class="cls-7" d="M-1360.71252-651.33992c0-3.97022,1.75635-5.96436,4.31788-5.96436,2.561,0,4.31738,2.0127,4.31738,5.96436,0,3.97021-1.75635,6.07422-4.31738,6.07422C-1358.95617-645.2657-1360.71252-647.36971-1360.71252-651.33992Zm5.67139,0c0-3.07373-.62207-3.54932-1.35351-3.54932-.73194,0-1.354.47559-1.354,3.54932s.62207,3.65918,1.354,3.65918C-1355.6632-647.68074-1355.04113-648.26619-1355.04113-651.33992Z" transform="translate(1505.90305 767.32594)"/><path class="cls-7" d="M-1348.45666-650.24227l-2.59814-4.39062h3.3667l.6582,1.28027c.23828.5127.49414,1.06153.73193,1.57373h.07325c.16455-.5122.38427-1.061.54883-1.57373l.439-1.28027h3.25684l-2.59815,4.75684,2.74463,4.39062h-3.3667l-.73144-1.28076c-.27442-.51221-.53077-1.061-.80518-1.57324h-.07324c-.20117.5122-.4209,1.043-.62207,1.57324l-.51221,1.28076h-3.25635Z" transform="translate(1505.90305 767.32594)"/><path class="cls-8" d="M-1386.38195-684.0486h-23.14453v-1.377h4.80469v-34.57032h-4.80469v-1.377h4.01367a54.14168,54.14168,0,0,0,6.57715-.4541,22.886,22.886,0,0,0,7.89551-2.71v39.11133h4.6582Z" transform="translate(1505.90305 767.32594)"/><path class="cls-8" d="M-1359.253-724.30251a16.22726,16.22726,0,0,1,12.70019,5.918,21.38884,21.38884,0,0,1,5.1709,14.58985q0,9.22851-5.00977,14.9707a16.42089,16.42089,0,0,1-12.97851,5.74219,16.09576,16.09576,0,0,1-12.6416-5.83008,21.401,21.401,0,0,1-5.083-14.58984,21.83648,21.83648,0,0,1,5.2002-14.76563A16.09716,16.09716,0,0,1-1359.253-724.30251Zm2.8125,35.94727v-30.67383a4.95489,4.95489,0,0,0-.62989-2.87109,2.47334,2.47334,0,0,0-2.124-.84961,2.39535,2.39535,0,0,0-2.13867.9082,5.5025,5.5025,0,0,0-.61524,2.98828v30.49805a5.67983,5.67983,0,0,0,.57129,2.959,2.20943,2.20943,0,0,0,2.00684.87891,2.74287,2.74287,0,0,0,2.31445-.82031A5.305,5.305,0,0,0-1356.44054-688.35524Z" transform="translate(1505.90305 767.32594)"/><rect class="cls-9" width="256" height="128"/></svg>