<svg id="Layer_1" data-name="Layer 1" xmlns="http://www.w3.org/2000/svg" xmlns:xlink="http://www.w3.org/1999/xlink" viewBox="0 0 256 128"><defs><style>.cls-1{fill:#f3d07e;}.cls-2{fill:#c58633;}.cls-3{fill:#dfa725;}.cls-4{fill:#d2892e;}.cls-5{fill:#e1b957;}.cls-6{fill:#84433b;}.cls-7{fill:#63361f;}.cls-8{fill:#c39c47;}.cls-9{fill:#d89d35;}.cls-10{opacity:0.16;fill:url(#linear-gradient);}</style><linearGradient id="linear-gradient" x1="128" x2="128" y2="128" gradientUnits="userSpaceOnUse"><stop offset="0" stop-color="#fcee21"/><stop offset="0.26169" stop-color="#e2cd27"/><stop offset="0.83475" stop-color="#9f7a35"/><stop offset="0.99438" stop-color="#8c6239"/></linearGradient></defs><title>i!</title><rect class="cls-1" width="256" height="128"/><rect class="cls-2" x="5.6947" y="4.51402" width="244.61061" height="118.97197"/><rect class="cls-3" x="14.53484" y="11.48029" width="226.93032" height="105.03943"/><path class="cls-4" d="M-1567.0824-903.59539v65.88969a14.64188,14.64188,0,0,0-14.35925,14.90848h-190.56477a14.6419,14.6419,0,0,0-14.35938-14.90848v-65.88969a14.6419,14.6419,0,0,0,14.35938-14.90848h190.56477A14.64188,14.64188,0,0,0-1567.0824-903.59539Z" transform="translate(1804.72103 934.65082)"/><ellipse class="cls-5" cx="128" cy="64" rx="53.63864" ry="31.1908"/><ellipse class="cls-6" cx="128" cy="64" rx="48.97197" ry="28.47714"/><rect class="cls-5" x="78.77803" y="104.89471" width="97.94394" height="22"/><rect class="cls-7" x="80.6947" y="106.1866" width="94.11061" height="19.41623"/><circle class="cls-5" cx="53.49955" cy="64.00028" r="5.33333"/><circle class="cls-5" cx="204.66344" cy="64.00028" r="5.33333"/><path class="cls-8" d="M-1711.23833-824.72362h4.82718c2.88051,0,5.355,1.05509,5.355,4.38166,0,3.22479-2.5151,4.62417-5.27379,4.62417h-1.41995v4.17865h-3.48844Zm4.746,6.24768c1.37935,0,2.02842-.68968,2.02842-1.866,0-1.17689-.77087-1.623-2.10908-1.623h-1.17688v3.489Z" transform="translate(1804.72103 934.65082)"/><path class="cls-8" d="M-1697.56934-824.72362h4.21925l4.0157,13.18448h-3.69144l-1.50115-6.40953c-.32427-1.25755-.64907-2.85993-.97334-4.17865h-.0812c-.28367,1.33875-.60848,2.9211-.93328,4.17865l-1.50061,6.40953h-3.57018Zm-1.13575,7.68766h6.45014v2.69752h-6.45014Z" transform="translate(1804.72103 934.65082)"/><path class="cls-8" d="M-1686.17185-816.08265l-3.97564-8.641h3.73258l.97334,2.7587c.3248.99391.64907,1.90662.99391,2.94113h.0812c.34484-1.03451.68967-1.94722,1.03451-2.94113l.97334-2.7587h3.65138l-3.97564,8.641v4.54351h-3.489Z" transform="translate(1804.72103 934.65082)"/><path class="cls-8" d="M-1678.6688-813.18212l1.98783-2.39329a5.35688,5.35688,0,0,0,3.083,1.27757c1.05508,0,1.50115-.34483,1.50115-.93274,0-.629-.66964-.832-1.78481-1.27811l-1.643-.68968a3.896,3.896,0,0,1-2.65747-3.67141c0-2.25145,2.02843-4.0969,4.90893-4.0969a6.3392,6.3392,0,0,1,4.38111,1.76425l-1.74422,2.19082a4.34776,4.34776,0,0,0-2.63689-.95331c-.85208,0-1.37935.30424-1.37935.89268,0,.6285.7503.85154,1.94722,1.31818l1.60238.629a3.62335,3.62335,0,0,1,2.57573,3.61024c0,2.23143-1.866,4.21925-5.152,4.21925A7.63505,7.63505,0,0,1-1678.6688-813.18212Z" transform="translate(1804.72103 934.65082)"/><path class="cls-8" d="M-1662.48526-814.33844h2.7587v-6.6526h-2.43444v-2.15022a9.12424,9.12424,0,0,0,3.36718-1.25755h2.55569v10.06037h2.31263v2.7993h-8.55976Z" transform="translate(1804.72103 934.65082)"/><path class="cls-8" d="M-1649.54655-816.81293l-2.88051-4.86778h3.73258l.72974,1.41941c.26418.56841.54784,1.17688.81148,1.74475h.0812c.18243-.56787.426-1.17634.60847-1.74475l.48667-1.41941h3.61078l-2.8805,5.27379,3.0429,4.86778h-3.73258l-.81093-1.41995c-.30424-.56787-.58845-1.17634-.89268-1.74421h-.08121c-.223.56787-.46664,1.15631-.68967,1.74421l-.56787,1.41995h-3.61024Z" transform="translate(1804.72103 934.65082)"/><path class="cls-9" d="M-1667.09653-850.40668h-23.14453v-1.37695h4.80469v-34.57031h-4.80469v-1.377h4.01367a54.14168,54.14168,0,0,0,6.57715-.4541,22.886,22.886,0,0,0,7.89551-2.71v39.11133h4.6582Z" transform="translate(1804.72103 934.65082)"/><rect class="cls-10" width="256" height="128"/></svg>