<svg id="Layer_1" data-name="Layer 1" xmlns="http://www.w3.org/2000/svg" xmlns:xlink="http://www.w3.org/1999/xlink" viewBox="0 0 256 128"><defs><style>.cls-1{fill:#f2a580;}.cls-2{fill:#893d34;}.cls-3{fill:#c45937;}.cls-4{fill:#813833;}.cls-5{fill:#e06334;}.cls-6{fill:#502320;}.cls-7{fill:#ef6a33;}.cls-8{fill:#ff7136;}.cls-9{opacity:0.12;fill:url(#linear-gradient);}</style><linearGradient id="linear-gradient" x1="128" x2="128" y2="128" gradientUnits="userSpaceOnUse"><stop offset="0" stop-color="#f15a24"/><stop offset="0.25345" stop-color="#d05220"/><stop offset="0.80828" stop-color="#7d3f16"/><stop offset="0.99438" stop-color="#603813"/></linearGradient></defs><title>i5</title><rect class="cls-1" width="256" height="128"/><rect class="cls-2" x="5.6947" y="4.51402" width="244.61061" height="118.97197"/><rect class="cls-3" x="14.53484" y="11.48029" width="226.93032" height="105.03943"/><path class="cls-4" d="M-1568.22331-573.51252v65.88968a14.6419,14.6419,0,0,0-14.35926,14.90848h-190.56477a14.64191,14.64191,0,0,0-14.35938-14.90848v-65.88968a14.64191,14.64191,0,0,0,14.35938-14.90848h190.56477A14.6419,14.6419,0,0,0-1568.22331-573.51252Z" transform="translate(1805.86195 604.56796)"/><ellipse class="cls-5" cx="128" cy="64" rx="53.63864" ry="31.1908"/><ellipse class="cls-6" cx="128" cy="64" rx="48.97197" ry="28.47714"/><rect class="cls-5" x="78.77803" y="104.89471" width="97.94394" height="22"/><rect class="cls-6" x="80.6947" y="106.1866" width="94.11061" height="19.41623"/><circle class="cls-3" cx="53.49955" cy="64.00028" r="5.33333"/><circle class="cls-3" cx="204.66344" cy="64.00028" r="5.33333"/><path class="cls-7" d="M-1713.93446-494.61953h4.354c2.59814,0,4.83007.95166,4.83007,3.95215,0,2.90869-2.26855,4.17089-4.75683,4.17089h-1.28076v3.769h-3.14649Zm4.28076,5.63525c1.24414,0,1.82959-.62207,1.82959-1.6831,0-1.06153-.69531-1.46387-1.90234-1.46387h-1.06152v3.147Z" transform="translate(1805.86195 604.56796)"/><path class="cls-7" d="M-1701.60536-494.61953h3.80567l3.62207,11.89209h-3.32959l-1.354-5.78125c-.29248-1.13428-.58544-2.57959-.87792-3.769h-.07325c-.25586,1.20752-.54883,2.63477-.84179,3.769l-1.35352,5.78125h-3.22021Zm-1.02441,6.93408h5.81787v2.4331h-5.81787Z" transform="translate(1805.86195 604.56796)"/><path class="cls-7" d="M-1691.32508-486.82559l-3.58594-7.79394h3.3667l.87793,2.48828c.293.89648.58545,1.71973.89648,2.65283h.07325c.311-.9331.62207-1.75635.9331-2.65283l.87793-2.48828h3.29346l-3.58594,7.79394v4.09815h-3.147Z" transform="translate(1805.86195 604.56796)"/><path class="cls-7" d="M-1684.5575-484.20938l1.793-2.15869a4.8318,4.8318,0,0,0,2.78077,1.15235c.95166,0,1.354-.311,1.354-.84131,0-.56739-.604-.75049-1.60986-1.15283l-1.48194-.62207a3.51413,3.51413,0,0,1-2.397-3.31153c0-2.03076,1.82959-3.69531,4.42773-3.69531a5.71787,5.71787,0,0,1,3.95167,1.59131l-1.57325,1.97607a3.92159,3.92159,0,0,0-2.37842-.85986c-.76855,0-1.24414.27441-1.24414.80517,0,.5669.67676.76807,1.75635,1.189l1.44531.56738a3.26818,3.26818,0,0,1,2.32325,3.25635c0,2.0127-1.68311,3.80566-4.647,3.80566A6.88654,6.88654,0,0,1-1684.5575-484.20938Z" transform="translate(1805.86195 604.56796)"/><path class="cls-7" d="M-1670.50916-484.52041c2.74414-2.5249,4.86669-4.46387,4.86669-6.0376a1.35084,1.35084,0,0,0-1.42724-1.53662,2.85634,2.85634,0,0,0-1.90283,1.09766l-1.68311-1.68311a5.02083,5.02083,0,0,1,4.0249-1.86621,3.69964,3.69964,0,0,1,3.98828,3.80566c0,1.86573-1.75634,3.915-3.32959,5.52491a18.66974,18.66974,0,0,1,1.93946-.14649h1.939v2.63477h-8.41552Z" transform="translate(1805.86195 604.56796)"/><path class="cls-7" d="M-1660.66834-488.58193c0-3.97022,1.75634-5.96436,4.31787-5.96436,2.561,0,4.31738,2.01269,4.31738,5.96436,0,3.97021-1.75635,6.07421-4.31738,6.07421C-1658.912-482.50772-1660.66834-484.61172-1660.66834-488.58193Zm5.67138,0c0-3.07374-.62207-3.54932-1.35351-3.54932-.73194,0-1.354.47558-1.354,3.54932s.62207,3.65917,1.354,3.65917C-1655.619-484.92276-1654.997-485.5082-1654.997-488.58193Z" transform="translate(1805.86195 604.56796)"/><path class="cls-7" d="M-1648.41248-487.48428l-2.59815-4.39062h3.3667l.6582,1.28027c.23828.5127.49414,1.06152.73194,1.57373h.07324c.16455-.51221.38428-1.061.54883-1.57373l.439-1.28027h3.25684l-2.59815,4.75683,2.74463,4.39063h-3.3667l-.73144-1.28076c-.27442-.51221-.53076-1.061-.80518-1.57325h-.07324c-.20117.51221-.4209,1.043-.62207,1.57325l-.51221,1.28076h-3.25635Z" transform="translate(1805.86195 604.56796)"/><path class="cls-8" d="M-1675.53033-535.63534a47.09767,47.09767,0,0,1-4.2041,7.86621q-2.71,4.1748-5.47852,5.30274a13.16125,13.16125,0,0,1-4.84863,1.12793,30.41472,30.41472,0,0,1-4.01367-.498,75.96583,75.96583,0,0,0-9.78516-1.20117,8.49954,8.49954,0,0,0-5.85937,2.168l-1.20117-.73243a15.71291,15.71291,0,0,1,3.2373-6.48925,24.131,24.131,0,0,1,4.43848-4.292q4.74609-3.39843,6.21093-4.6582a16.20487,16.20487,0,0,0,2.71-3.04687,12.7826,12.7826,0,0,0,1.86036-4.2334,25.99223,25.99223,0,0,0,.61523-6.19629,16.24853,16.24853,0,0,0-.74707-5.69824,6.21066,6.21066,0,0,0-2.59277-3.00293,7.63706,7.63706,0,0,0-4.10157-1.14258,9.24311,9.24311,0,0,0-3.67675.86426,10.71216,10.71216,0,0,0-3.23731,2.09472l.11719.11719a7.02564,7.02564,0,0,1,2.28516-.38086,5.57483,5.57483,0,0,1,4.10156,1.53809,5.45717,5.45717,0,0,1,1.55273,4.05761,6.09326,6.09326,0,0,1-1.71386,4.40918,5.72205,5.72205,0,0,1-4.292,1.77246,6.19582,6.19582,0,0,1-4.45312-1.8457,5.84582,5.84582,0,0,1-1.9043-4.33594q0-4.18944,4.2041-7.19238,4.20338-3.00292,10.91309-3.00293,8.52539,0,13.47656,3.60352a11.39011,11.39011,0,0,1,4.95117,9.69726,9.67106,9.67106,0,0,1-2.43164,6.82617,17.56316,17.56316,0,0,1-6.25488,4.2334,42.28025,42.28025,0,0,1-7.57324,2.3877q-2.60815.58667-3.91114.99609a7.95386,7.95386,0,0,0-2.50488,1.34766l.11719.11719a7.64306,7.64306,0,0,1,3.7207-.84961q1.43482,0,5.56641.38086,4.21875.35156,5.71289.35156a18.82263,18.82263,0,0,0,4.87793-.4541,5.19826,5.19826,0,0,0,2.79785-2.79785Z" transform="translate(1805.86195 604.56796)"/><path class="cls-8" d="M-1653.93853-562.2662a16.22726,16.22726,0,0,1,12.70019,5.918,21.3888,21.3888,0,0,1,5.1709,14.58984q0,9.22852-5.00976,14.97071a16.42092,16.42092,0,0,1-12.97852,5.74218,16.09575,16.09575,0,0,1-12.6416-5.83007,21.40107,21.40107,0,0,1-5.083-14.58985,21.83645,21.83645,0,0,1,5.2002-14.76562A16.09716,16.09716,0,0,1-1653.93853-562.2662Zm2.8125,35.94727v-30.67383a4.95486,4.95486,0,0,0-.62989-2.87109,2.47334,2.47334,0,0,0-2.124-.84961,2.39536,2.39536,0,0,0-2.13867.9082,5.5025,5.5025,0,0,0-.61524,2.98828v30.498a5.67988,5.67988,0,0,0,.57129,2.959,2.20943,2.20943,0,0,0,2.00684.87891,2.74287,2.74287,0,0,0,2.31445-.82031A5.305,5.305,0,0,0-1651.126-526.31893Z" transform="translate(1805.86195 604.56796)"/><rect class="cls-9" width="256" height="128"/></svg>