<svg id="Layer_1" data-name="Layer 1" xmlns="http://www.w3.org/2000/svg" xmlns:xlink="http://www.w3.org/1999/xlink" viewBox="0 0 256 128"><defs><style>.cls-1{fill:#8fa6d8;}.cls-2{fill:#6d67a0;}.cls-3{fill:#7a80bf;}.cls-4{fill:#46439d;}.cls-5{fill:#738acd;}.cls-6{fill:#413776;}.cls-7{fill:#343466;}.cls-8{fill:#6070c2;}.cls-9{fill:#6a91ea;}.cls-10{fill:#586fc2;}.cls-11{opacity:0.16;fill:url(#linear-gradient);}</style><linearGradient id="linear-gradient" x1="128" x2="128" y2="128" gradientUnits="userSpaceOnUse"><stop offset="0" stop-color="#29abe2"/><stop offset="0.24417" stop-color="#268ac7"/><stop offset="0.77856" stop-color="#1e3781"/><stop offset="0.99438" stop-color="#1b1464"/></linearGradient></defs><title>i2</title><rect class="cls-1" width="256" height="128"/><rect class="cls-2" x="5.6947" y="4.51402" width="244.61061" height="118.97197"/><rect class="cls-3" x="14.53484" y="11.48029" width="226.93032" height="105.03943"/><path class="cls-4" d="M-1276.74331-906.159v65.88969a14.64188,14.64188,0,0,0-14.35926,14.90848h-190.56477a14.6419,14.6419,0,0,0-14.35938-14.90848V-906.159a14.6419,14.6419,0,0,0,14.35938-14.90848h190.56477A14.64188,14.64188,0,0,0-1276.74331-906.159Z" transform="translate(1514.38195 937.21441)"/><ellipse class="cls-5" cx="128" cy="64" rx="53.63864" ry="31.1908"/><ellipse class="cls-6" cx="128" cy="64" rx="48.97197" ry="28.47714"/><rect class="cls-5" x="78.77803" y="104.89471" width="97.94394" height="22"/><rect class="cls-7" x="80.6947" y="106.1866" width="94.11061" height="19.41623"/><circle class="cls-8" cx="53.49955" cy="64.00028" r="5.33333"/><circle class="cls-8" cx="204.66344" cy="64.00028" r="5.33333"/><path class="cls-9" d="M-1369.67283-866.12642a47.09777,47.09777,0,0,1-4.20411,7.86621q-2.71,4.17482-5.47851,5.30274a13.16134,13.16134,0,0,1-4.84863,1.12793,30.41462,30.41462,0,0,1-4.01368-.49805,75.966,75.966,0,0,0-9.78515-1.20117,8.49957,8.49957,0,0,0-5.85938,2.168l-1.20117-.73242a15.71313,15.71313,0,0,1,3.2373-6.48926,24.13093,24.13093,0,0,1,4.43848-4.292q4.74609-3.39845,6.21094-4.65821a16.20557,16.20557,0,0,0,2.71-3.04687,12.78238,12.78238,0,0,0,1.86035-4.2334,25.99165,25.99165,0,0,0,.61524-6.19629,16.24881,16.24881,0,0,0-.74707-5.69824,6.21068,6.21068,0,0,0-2.59278-3.00293,7.637,7.637,0,0,0-4.10156-1.14258,9.24316,9.24316,0,0,0-3.67676.86426,10.712,10.712,0,0,0-3.2373,2.09472l.11718.11719a7.02564,7.02564,0,0,1,2.28516-.38086,5.5748,5.5748,0,0,1,4.10156,1.53809A5.45715,5.45715,0,0,1-1392.29-882.562a6.09322,6.09322,0,0,1-1.71387,4.40917,5.72206,5.72206,0,0,1-4.292,1.77247,6.19585,6.19585,0,0,1-4.45313-1.84571,5.84581,5.84581,0,0,1-1.90429-4.33593q0-4.18945,4.2041-7.19239,4.20336-3.00292,10.91308-3.00293,8.5254,0,13.47657,3.60352a11.39011,11.39011,0,0,1,4.95117,9.69726,9.67115,9.67115,0,0,1-2.43164,6.82618,17.56332,17.56332,0,0,1-6.25489,4.23339,42.27838,42.27838,0,0,1-7.57324,2.3877q-2.60815.58667-3.91113.99609a7.95386,7.95386,0,0,0-2.50488,1.34766l.11718.11719a7.6431,7.6431,0,0,1,3.72071-.84961q1.43481,0,5.5664.38086,4.21875.35155,5.71289.35156a18.82258,18.82258,0,0,0,4.87793-.4541,5.1983,5.1983,0,0,0,2.79786-2.79785Z" transform="translate(1514.38195 937.21441)"/><path class="cls-10" d="M-1418.50194-827.266h4.354c2.59814,0,4.83008.95166,4.83008,3.95215,0,2.90869-2.26856,4.1709-4.75684,4.1709h-1.28076v3.769h-3.14649Zm4.28077,5.63526c1.24414,0,1.82959-.62207,1.82959-1.68311,0-1.06152-.69532-1.46386-1.90235-1.46386h-1.06152v3.147Z" transform="translate(1514.38195 937.21441)"/><path class="cls-10" d="M-1406.17283-827.266h3.80566l3.62207,11.89209h-3.32959l-1.354-5.78125c-.29248-1.13427-.58545-2.57959-.87793-3.769h-.07325c-.25586,1.20752-.54882,2.63477-.84179,3.769l-1.35352,5.78125h-3.22021Zm-1.02442,6.93409h5.81787v2.4331h-5.81787Z" transform="translate(1514.38195 937.21441)"/><path class="cls-10" d="M-1395.89256-819.472l-3.58594-7.79395h3.3667l.87793,2.48829c.293.89648.58545,1.71972.89648,2.65283h.07325c.311-.93311.62207-1.75635.9331-2.65283l.87793-2.48829h3.29346l-3.58594,7.79395v4.09814h-3.147Z" transform="translate(1514.38195 937.21441)"/><path class="cls-10" d="M-1389.125-816.85583l1.793-2.15869a4.83173,4.83173,0,0,0,2.78076,1.15234c.95166,0,1.354-.311,1.354-.84131,0-.56738-.604-.75048-1.60986-1.15283l-1.48194-.62207a3.51411,3.51411,0,0,1-2.397-3.31152c0-2.03076,1.82959-3.69531,4.42774-3.69531a5.71785,5.71785,0,0,1,3.95166,1.5913l-1.57325,1.97608a3.9215,3.9215,0,0,0-2.37841-.85986c-.76856,0-1.24414.27441-1.24414.80517,0,.5669.67675.76807,1.75634,1.189l1.44532.56738a3.26817,3.26817,0,0,1,2.32324,3.25635c0,2.01269-1.68311,3.80566-4.647,3.80566A6.88661,6.88661,0,0,1-1389.125-816.85583Z" transform="translate(1514.38195 937.21441)"/><path class="cls-10" d="M-1375.07664-817.16686c2.74414-2.52491,4.8667-4.46387,4.8667-6.0376a1.35085,1.35085,0,0,0-1.42725-1.53662,2.85637,2.85637,0,0,0-1.90283,1.09765l-1.68311-1.6831a5.02083,5.02083,0,0,1,4.0249-1.86621,3.69965,3.69965,0,0,1,3.98829,3.80566c0,1.86572-1.75635,3.915-3.32959,5.5249a18.67218,18.67218,0,0,1,1.93945-.14648h1.939v2.63476h-8.41552Z" transform="translate(1514.38195 937.21441)"/><path class="cls-10" d="M-1362.85741-820.13073l-2.59814-4.39063h3.3667l.6582,1.28028c.23828.51269.49414,1.06152.73194,1.57373h.07324c.16455-.51221.38428-1.061.54883-1.57373l.439-1.28028h3.25684l-2.59815,4.75684,2.74463,4.39062h-3.3667l-.73144-1.28076c-.27442-.5122-.53076-1.061-.80518-1.57324h-.07324c-.20117.51221-.4209,1.043-.62207,1.57324l-.51221,1.28076h-3.25635Z" transform="translate(1514.38195 937.21441)"/><rect class="cls-11" width="256" height="128"/></svg>