<svg id="Layer_1" data-name="Layer 1" xmlns="http://www.w3.org/2000/svg" xmlns:xlink="http://www.w3.org/1999/xlink" viewBox="0 0 256 128"><defs><style>.cls-1{fill:#d15a58;}.cls-2{fill:#7a1f37;}.cls-3{fill:#b43343;}.cls-4{fill:#741d35;}.cls-5{fill:#d33f4b;}.cls-6{fill:#491322;}.cls-7{fill:#c55367;}.cls-8{fill:#ee4851;}.cls-9{opacity:0.19;fill:url(#linear-gradient);}</style><linearGradient id="linear-gradient" x1="128" x2="128" y2="128" gradientUnits="userSpaceOnUse"><stop offset="0" stop-color="#ed1c24"/><stop offset="0.2179" stop-color="#cc1d1f"/><stop offset="0.69435" stop-color="#791f13"/><stop offset="0.99438" stop-color="#42210b"/></linearGradient></defs><title>i6</title><rect class="cls-1" width="256" height="128"/><rect class="cls-2" x="5.6947" y="4.51402" width="244.61061" height="118.97197"/><rect class="cls-3" x="14.53484" y="11.48029" width="226.93032" height="105.03943"/><path class="cls-4" d="M-1271.21031-574.60041v65.88968a14.64188,14.64188,0,0,0-14.35925,14.90848h-190.56477a14.64191,14.64191,0,0,0-14.35939-14.90848v-65.88968a14.64192,14.64192,0,0,0,14.35939-14.90848h190.56477A14.64189,14.64189,0,0,0-1271.21031-574.60041Z" transform="translate(1508.84895 605.65585)"/><ellipse class="cls-5" cx="128" cy="64" rx="53.63864" ry="31.1908"/><ellipse class="cls-6" cx="128" cy="64" rx="48.97197" ry="28.47714"/><rect class="cls-5" x="78.77803" y="104.89471" width="97.94394" height="22"/><rect class="cls-6" x="80.6947" y="106.1866" width="94.11061" height="19.41623"/><circle class="cls-3" cx="53.49955" cy="64.00028" r="5.33333"/><circle class="cls-3" cx="204.66344" cy="64.00028" r="5.33333"/><path class="cls-7" d="M-1417.17145-495.90011h4.354c2.59814,0,4.83008.95166,4.83008,3.95214,0,2.9087-2.26856,4.1709-4.75684,4.1709h-1.28076v3.769h-3.14648Zm4.28076,5.63525c1.24414,0,1.82959-.62207,1.82959-1.68311,0-1.06152-.69532-1.46386-1.90235-1.46386h-1.06152v3.147Z" transform="translate(1508.84895 605.65585)"/><path class="cls-7" d="M-1404.84235-495.90011h3.80566l3.62207,11.89209h-3.32959l-1.354-5.78125c-.29248-1.13428-.58545-2.57959-.87793-3.769h-.07324c-.25586,1.20752-.54883,2.63477-.8418,3.769l-1.35352,5.78125h-3.22021Zm-1.02442,6.93408h5.81787v2.4331h-5.81787Z" transform="translate(1508.84895 605.65585)"/><path class="cls-7" d="M-1394.56208-488.10617l-3.58594-7.79394h3.3667l.87793,2.48828c.293.89648.58545,1.71972.89649,2.65283h.07324c.311-.93311.62207-1.75635.9331-2.65283l.87793-2.48828h3.29346l-3.58594,7.79394v4.09815h-3.147Z" transform="translate(1508.84895 605.65585)"/><path class="cls-7" d="M-1387.7945-485.49l1.793-2.15869a4.83173,4.83173,0,0,0,2.78076,1.15234c.95166,0,1.354-.311,1.354-.8413,0-.56739-.604-.75049-1.60986-1.15284l-1.48193-.62207a3.5141,3.5141,0,0,1-2.397-3.31152c0-2.03076,1.82959-3.69531,4.42774-3.69531a5.71782,5.71782,0,0,1,3.95166,1.59131l-1.57324,1.97607a3.92161,3.92161,0,0,0-2.37842-.85986c-.76856,0-1.24414.27441-1.24414.80517,0,.5669.67675.76807,1.75634,1.189l1.44532.56738a3.26817,3.26817,0,0,1,2.32324,3.25635c0,2.01269-1.68311,3.80566-4.647,3.80566A6.88661,6.88661,0,0,1-1387.7945-485.49Z" transform="translate(1508.84895 605.65585)"/><path class="cls-7" d="M-1369.09919-490.30148c0-.78662.07324-1.95752.10986-2.74463h-.07324c-.293.69531-.62207,1.39062-.95166,2.08594l-1.061,1.97558h6.14746v2.37842h-9.11133v-2.19531l3.95215-6.80567h3.915V-484.008h-2.92725Z" transform="translate(1508.84895 605.65585)"/><path class="cls-7" d="M-1363.90534-489.86252c0-3.97021,1.75635-5.96435,4.31787-5.96435,2.561,0,4.31738,2.01269,4.31738,5.96435,0,3.97022-1.75635,6.07422-4.31738,6.07422C-1362.149-483.7883-1363.90534-485.8923-1363.90534-489.86252Zm5.67139,0c0-3.07373-.62208-3.54931-1.35352-3.54931-.73193,0-1.354.47558-1.354,3.54931s.62207,3.65918,1.354,3.65918C-1358.856-486.20334-1358.23395-486.78879-1358.23395-489.86252Z" transform="translate(1508.84895 605.65585)"/><path class="cls-7" d="M-1351.64948-488.76486l-2.59815-4.39063h3.3667l.65821,1.28028c.23828.51269.49414,1.06152.73193,1.57373h.07324c.16455-.51221.38428-1.061.54883-1.57373l.439-1.28028h3.25684l-2.59814,4.75684,2.74462,4.39063h-3.36669l-.73145-1.28077c-.27441-.5122-.53076-1.061-.80518-1.57324h-.07324c-.20117.51221-.4209,1.043-.62207,1.57324l-.51221,1.28077h-3.25634Z" transform="translate(1508.84895 605.65585)"/><path class="cls-8" d="M-1384.64558-522.69552h-23.3789v-1.377h5.44922v-8.23242h-18.19336l20.47851-29.67773h11.51367v28.30078h4.13086v1.377h-4.13086v8.23242h4.13086Zm-17.92968-10.98633v-22.32422h-.11719l-15.11719,22.32422Z" transform="translate(1508.84895 605.65585)"/><path class="cls-8" d="M-1362.32136-562.94943a16.22727,16.22727,0,0,1,12.7002,5.918,21.3888,21.3888,0,0,1,5.1709,14.58984q0,9.22852-5.00977,14.9707a16.42086,16.42086,0,0,1-12.97851,5.74219,16.09578,16.09578,0,0,1-12.64161-5.83008,21.401,21.401,0,0,1-5.083-14.58984,21.83649,21.83649,0,0,1,5.20019-14.76562A16.09719,16.09719,0,0,1-1362.32136-562.94943Zm2.8125,35.94726V-557.676a4.955,4.955,0,0,0-.62988-2.8711,2.47337,2.47337,0,0,0-2.124-.84961,2.39537,2.39537,0,0,0-2.13868.90821,5.50261,5.50261,0,0,0-.61523,2.98828v30.498a5.6799,5.6799,0,0,0,.57129,2.959,2.20942,2.20942,0,0,0,2.00684.87891,2.74285,2.74285,0,0,0,2.31445-.82032A5.30506,5.30506,0,0,0-1359.50886-527.00217Z" transform="translate(1508.84895 605.65585)"/><rect class="cls-9" width="256" height="128"/></svg>