<svg id="Layer_1" data-name="Layer 1" xmlns="http://www.w3.org/2000/svg" xmlns:xlink="http://www.w3.org/1999/xlink" viewBox="0 0 256 128"><defs><style>.cls-1{fill:#b789e0;}.cls-2{fill:#683680;}.cls-3{fill:#9a59c1;}.cls-4{fill:#673780;}.cls-5{fill:#a965d7;}.cls-6{fill:#422450;}.cls-7{fill:#b571e7;}.cls-8{fill:#c87bff;}.cls-9{opacity:0.3;fill:url(#linear-gradient);}</style><linearGradient id="linear-gradient" x1="128" x2="128" y2="128" gradientUnits="userSpaceOnUse"><stop offset="0" stop-color="#662d91"/><stop offset="0.60442" stop-color="#452f92"/><stop offset="0.99438" stop-color="#2e3192"/></linearGradient></defs><title>i3</title><rect class="cls-1" width="256" height="128"/><rect class="cls-2" x="5.6947" y="4.51402" width="244.61061" height="118.97197"/><rect class="cls-3" x="14.53484" y="11.48029" width="226.93032" height="105.03943"/><path class="cls-4" d="M-1567.97331-736.27051v65.88969a14.64189,14.64189,0,0,0-14.35926,14.90847h-190.56477a14.6419,14.6419,0,0,0-14.35938-14.90847v-65.88969a14.6419,14.6419,0,0,0,14.35938-14.90848h190.56477A14.64189,14.64189,0,0,0-1567.97331-736.27051Z" transform="translate(1805.61195 767.32594)"/><ellipse class="cls-5" cx="128" cy="64" rx="53.63864" ry="31.1908"/><ellipse class="cls-6" cx="128" cy="64" rx="48.97197" ry="28.47714"/><rect class="cls-5" x="78.77803" y="104.89471" width="97.94394" height="22"/><rect class="cls-6" x="80.6947" y="106.1866" width="94.11061" height="19.41623"/><circle class="cls-3" cx="53.49955" cy="64.00028" r="5.33333"/><circle class="cls-3" cx="204.66344" cy="64.00028" r="5.33333"/><path class="cls-7" d="M-1710.67172-656.54533h4.354c2.59814,0,4.83008.95166,4.83008,3.95215,0,2.90869-2.26856,4.1709-4.75684,4.1709h-1.28076v3.769h-3.14649Zm4.28077,5.63525c1.24414,0,1.82958-.62207,1.82958-1.6831,0-1.06153-.69531-1.46387-1.90234-1.46387h-1.06152v3.147Z" transform="translate(1805.61195 767.32594)"/><path class="cls-7" d="M-1698.34262-656.54533h3.80567l3.62207,11.89209h-3.32959l-1.354-5.78125c-.29248-1.13428-.58545-2.57959-.87793-3.769h-.07325c-.25586,1.20752-.54882,2.63476-.84179,3.769l-1.35352,5.78125h-3.22021Zm-1.02441,6.93408h5.81787v2.43311h-5.81787Z" transform="translate(1805.61195 767.32594)"/><path class="cls-7" d="M-1688.06234-648.75139l-3.58594-7.79394h3.3667l.87793,2.48828c.293.89648.58545,1.71973.89648,2.65283h.07325c.311-.9331.62207-1.75635.9331-2.65283l.87793-2.48828h3.29346l-3.58594,7.79394v4.09815h-3.147Z" transform="translate(1805.61195 767.32594)"/><path class="cls-7" d="M-1681.29476-646.13517l1.793-2.1587a4.83174,4.83174,0,0,0,2.78076,1.15235c.95166,0,1.354-.311,1.354-.84131,0-.56738-.604-.75049-1.60986-1.15283l-1.48194-.62207a3.51413,3.51413,0,0,1-2.397-3.31153c0-2.03076,1.82959-3.69531,4.42774-3.69531a5.71787,5.71787,0,0,1,3.95166,1.59131l-1.57325,1.97607a3.92156,3.92156,0,0,0-2.37841-.85986c-.76856,0-1.24414.27441-1.24414.80518,0,.56689.67675.76806,1.75634,1.189l1.44532.56738a3.26818,3.26818,0,0,1,2.32324,3.25635c0,2.0127-1.68311,3.80567-4.647,3.80567A6.88659,6.88659,0,0,1-1681.29476-646.13517Z" transform="translate(1805.61195 767.32594)"/><path class="cls-7" d="M-1667.50277-646.08049l1.39062-1.97558a3.67735,3.67735,0,0,0,2.3418,1.09765c1.09766,0,1.71973-.47558,1.71973-1.50048a1.42249,1.42249,0,0,0-1.57325-1.5,2.51554,2.51554,0,0,0-1.61035.54882l-1.35351-.87793.29248-5.96435h6.87939v2.63428h-4.17138l-.14649,1.6831a2.95024,2.95024,0,0,1,1.09766-.18262,3.41442,3.41442,0,0,1,3.73242,3.58594,4.08449,4.08449,0,0,1-4.39111,4.09815A5.71151,5.71151,0,0,1-1667.50277-646.08049Z" transform="translate(1805.61195 767.32594)"/><path class="cls-7" d="M-1655.02719-649.41008l-2.59814-4.39062h3.3667l.6582,1.28027c.23828.5127.49414,1.06153.73194,1.57373h.07324c.16455-.5122.38428-1.061.54883-1.57373l.439-1.28027h3.25684l-2.59815,4.75683,2.74463,4.39063h-3.3667l-.73144-1.28076c-.27442-.51221-.53076-1.061-.80518-1.57324h-.07324c-.20117.5122-.4209,1.043-.62207,1.57324l-.51221,1.28076h-3.25635Z" transform="translate(1805.61195 767.32594)"/><path class="cls-8" d="M-1664.03347-723.60613q-2.43237,10.89844-14.35547,10.89844h-9.28711l-.498,4.62891a23.62329,23.62329,0,0,1,8.11524-1.43555q6.82617,0,11.001,3.63281a12.34662,12.34662,0,0,1,4.17481,9.81446,11.87823,11.87823,0,0,1-5.1416,10.23925q-5.14161,3.67677-13.81348,3.67676-5.918,0-9.19922-2.13867a6.70329,6.70329,0,0,1-3.28125-5.918,5.75081,5.75081,0,0,1,1.626-4.2041,5.52828,5.52828,0,0,1,4.11621-1.65527,5.15,5.15,0,0,1,3.92578,1.582,5.73039,5.73039,0,0,1,1.49414,4.10156q0,4.89332-5.5957,5.15625v.17578a10.47519,10.47519,0,0,0,5.15625,1.20117,7.76051,7.76051,0,0,0,3.457-.65918,3.56846,3.56846,0,0,0,1.72852-1.52343,6.49187,6.49187,0,0,0,.41015-2.65137v-15.14649q0-3.89574-3.42773-3.89648-2.57812,0-6.5918,2.34375l1.8457-17.8125a72.92609,72.92609,0,0,0,11.39649.791A56.73262,56.73262,0,0,0-1664.03347-723.60613Z" transform="translate(1805.61195 767.32594)"/><rect class="cls-9" width="256" height="128"/></svg>