<svg width="232" height="54" xmlns="http://www.w3.org/2000/svg">
 <!-- Created with Method Draw - http://github.com/duopixel/Method-Draw/ -->

 <g>
  <title>background</title>
  <rect fill="#fff" id="canvas_background" height="56" width="234" y="-1" x="-1"/>
 </g>
 <g>
  <title>Layer 1</title>
  <g id="svg_152">
   <g id="svg_4">
    <g id="svg_3">
     <rect y="0" id="svg_2" height="54" width="234" fill="#324041" x="-1"/>
    </g>
   </g>
   <g id="svg_7">
    <g id="svg_6">
     <path id="svg_5" d="m25.379,9.026c-9.953,0 -18.022,8.068 -18.022,18.021s8.069,18.021 18.022,18.021s18.021,-8.068 18.021,-18.021s-8.068,-18.021 -18.021,-18.021zm-0.616,24.478c-1.124,0 -1.887,-0.828 -1.887,-1.93c0,-1.123 0.784,-1.93 1.887,-1.93c1.145,0 1.886,0.807 1.907,1.93c0,1.102 -0.763,1.93 -1.907,1.93zm2.441,-7.885c-0.784,0.867 -1.204,1.695 -1.204,2.648l0,0.732l-2.572,0l-0.021,-0.728c-0.064,-1.08 0.297,-2.271 1.25,-3.415c0.679,-0.807 1.23,-1.528 1.23,-2.249c0,-0.742 -0.488,-1.249 -1.549,-1.292c-0.699,0 -1.547,0.242 -2.098,0.625l-0.721,-2.317c0.764,-0.445 2.035,-0.873 3.539,-0.873c2.799,0 4.008,1.548 4.008,3.308c0.001,1.612 -1.056,2.671 -1.862,3.561z" fill="#F4F9F9"/>
    </g>
   </g>
   <g id="svg_16">
    <g id="svg_9">
     <path id="svg_8" d="m70.353,21.92l0,5.215l6.028,0l0,-5.215l1.628,0l0,12.465l-1.628,0l0,-5.844l-6.028,0l0,5.844l-1.609,0l0,-12.465l1.609,0z" fill="#FCFAFC"/>
    </g>
    <g id="svg_11">
     <path id="svg_10" d="m81.648,30.205c0.037,2.201 1.442,3.107 3.069,3.107c1.166,0 1.868,-0.205 2.479,-0.463l0.277,1.164c-0.573,0.26 -1.553,0.555 -2.978,0.555c-2.755,0 -4.401,-1.811 -4.401,-4.512c0,-2.699 1.591,-4.826 4.198,-4.826c2.922,0 3.698,2.57 3.698,4.217c0,0.332 -0.037,0.592 -0.055,0.758l-6.287,0zm4.771,-1.166c0.019,-1.035 -0.426,-2.645 -2.257,-2.645c-1.646,0 -2.367,1.518 -2.496,2.645l4.753,0z" fill="#FCFAFC"/>
    </g>
    <g id="svg_13">
     <path id="svg_12" d="m90.003,21.254l1.628,0l0,13.131l-1.628,0l0,-13.131z" fill="#FCFAFC"/>
    </g>
    <g id="svg_15">
     <path id="svg_14" d="m94.365,28.356c0,-1.146 -0.037,-2.072 -0.074,-2.922l1.462,0l0.073,1.535l0.037,0c0.666,-1.092 1.721,-1.738 3.182,-1.738c2.164,0 3.791,1.83 3.791,4.549c0,3.219 -1.961,4.809 -4.068,4.809c-1.184,0 -2.22,-0.518 -2.756,-1.406l-0.037,0l0,4.865l-1.609,0l0,-9.692l-0.001,0zm1.61,2.384c0,0.242 0.037,0.463 0.074,0.666c0.296,1.129 1.275,1.906 2.441,1.906c1.719,0 2.719,-1.406 2.719,-3.459c0,-1.795 -0.943,-3.328 -2.664,-3.328c-1.109,0 -2.145,0.795 -2.459,2.016c-0.056,0.203 -0.111,0.443 -0.111,0.666l0,1.533z" fill="#FCFAFC"/>
    </g>
   </g>
  </g>
 </g>
</svg>