<?xml version="1.0" encoding="utf-8"?>
<!-- Generator: Adobe Illustrator 16.0.0, SVG Export Plug-In . SVG Version: 6.00 Build 0)  -->
<!DOCTYPE svg PUBLIC "-//W3C//DTD SVG 1.1//EN" "http://www.w3.org/Graphics/SVG/1.1/DTD/svg11.dtd">
<svg version="1.1" id="Layer_1" xmlns="http://www.w3.org/2000/svg" xmlns:xlink="http://www.w3.org/1999/xlink" x="0px" y="0px"
	 width="234px" height="54px" viewBox="0 0 234 54" enable-background="new 0 0 234 54" xml:space="preserve">
<linearGradient id="SVGID_1_" gradientUnits="userSpaceOnUse" x1="27.8701" y1="776.0596" x2="78.8747" y2="151.9973">
	<stop  offset="0" style="stop-color:#240D29"/>
	<stop  offset="1" style="stop-color:#302A3E"/>
</linearGradient>
<rect x="-1212.969" y="-696.634" display="none" fill="url(#SVGID_1_)" width="2607" height="1412"/>
<g>
	<g>
		<g>
			<rect x="0.031" y="0.366" fill="#324343" width="234" height="54"/>
		</g>
	</g>
	<g>
		<g>
			<g>
				<g>
					<path fill="#F9F2F9" d="M37.64,44.411c-6.194,0-11.146-2.544-14.715-7.562l1.223-0.869c3.271,4.599,7.812,6.931,13.492,6.931
						c9.37,0,16.993-7.673,16.993-17.104S47.01,8.929,37.64,8.929s-16.993,7.438-16.993,17.438h-1.5
						c0-11,8.296-18.938,18.493-18.938s18.493,8.233,18.493,18.491S47.837,44.411,37.64,44.411z"/>
				</g>
			</g>
		</g>
		<g>
			<g>
				<g>
					<polygon fill="#F9F2F9" points="23.411,23.704 20.08,29.838 16.433,23.887 					"/>
				</g>
			</g>
		</g>
		<g>
			<g>
				<polygon fill="#F9F2F9" points="39.802,31.25 36.031,29.3 36.031,21.366 37.031,21.366 37.031,28.69 40.261,30.361 				"/>
			</g>
		</g>
	</g>
	<g>
		<g>
			<path fill="#FCFAFC" d="M75.385,20.716v5.215h6.029v-5.215h1.627v12.465h-1.627v-5.844h-6.029v5.844h-1.609V20.716H75.385z"/>
		</g>
		<g>
			<path fill="#FCFAFC" d="M87.771,21.715c0.019,0.555-0.389,0.998-1.036,0.998c-0.573,0-0.98-0.443-0.98-0.998
				c0-0.573,0.426-1.018,1.018-1.018C87.382,20.697,87.771,21.142,87.771,21.715z M85.958,33.181v-8.951h1.628v8.951H85.958z"/>
		</g>
		<g>
			<path fill="#FCFAFC" d="M90.062,31.517c0.481,0.314,1.331,0.646,2.146,0.646c1.184,0,1.738-0.592,1.738-1.331
				c0-0.776-0.463-1.202-1.664-1.646c-1.609-0.574-2.367-1.462-2.367-2.534c0-1.442,1.165-2.626,3.088-2.626
				c0.906,0,1.701,0.259,2.201,0.555l-0.407,1.184c-0.351-0.222-0.999-0.518-1.831-0.518c-0.961,0-1.498,0.555-1.498,1.221
				c0,0.739,0.537,1.072,1.701,1.517c1.555,0.592,2.35,1.368,2.35,2.699c0,1.572-1.221,2.682-3.348,2.682
				c-0.98,0-1.887-0.24-2.516-0.61L90.062,31.517z"/>
		</g>
		<g>
			<path fill="#FCFAFC" d="M99.564,21.659v2.57h2.33v1.239h-2.33v4.827c0,1.109,0.314,1.738,1.221,1.738
				c0.426,0,0.74-0.056,0.943-0.111l0.074,1.221c-0.314,0.13-0.814,0.222-1.443,0.222c-0.758,0-1.368-0.24-1.756-0.684
				c-0.463-0.481-0.629-1.276-0.629-2.33v-4.883h-1.387v-1.239h1.387v-2.145L99.564,21.659z"/>
		</g>
		<g>
			<path fill="#FCFAFC" d="M111.713,28.631c0,3.311-2.293,4.753-4.457,4.753c-2.422,0-4.291-1.775-4.291-4.604
				c0-2.996,1.961-4.753,4.439-4.753C109.975,24.026,111.713,25.895,111.713,28.631z M104.611,28.724
				c0,1.96,1.128,3.439,2.719,3.439c1.553,0,2.719-1.461,2.719-3.477c0-1.517-0.759-3.439-2.682-3.439
				C105.443,25.247,104.611,27.022,104.611,28.724z"/>
		</g>
		<g>
			<path fill="#FCFAFC" d="M113.762,27.022c0-1.055-0.018-1.961-0.074-2.793h1.425l0.056,1.757h0.074
				c0.406-1.202,1.387-1.96,2.478-1.96c0.185,0,0.314,0.019,0.462,0.056v1.535c-0.166-0.037-0.332-0.056-0.555-0.056
				c-1.146,0-1.96,0.869-2.182,2.09c-0.037,0.222-0.074,0.48-0.074,0.758v4.771h-1.609V27.022z"/>
		</g>
		<g>
			<path fill="#FCFAFC" d="M120.861,24.229l1.961,5.289c0.203,0.592,0.426,1.295,0.573,1.831h0.037
				c0.166-0.536,0.351-1.221,0.573-1.868l1.775-5.252h1.72l-2.441,6.381c-1.165,3.069-1.96,4.642-3.069,5.604
				c-0.795,0.702-1.591,0.979-1.998,1.054l-0.406-1.368c0.406-0.13,0.943-0.389,1.424-0.795c0.443-0.352,0.998-0.98,1.369-1.813
				c0.073-0.167,0.129-0.296,0.129-0.389s-0.037-0.222-0.111-0.426l-3.311-8.248H120.861z"/>
		</g>
	</g>
</g>
<g>
	<g>
		<g>
			<rect x="1256.031" y="-168.634" fill="#39514F" width="234" height="54"/>
		</g>
	</g>
	<g>
		<g>
			<g>
				<path fill="#FDFFFF" d="M1292.648-154.302c6.225,5.054,7.291,14.051,7.291,14.051s-9.025,0.806-15.249-4.247
					s-7.291-14.05-7.291-14.05S1286.424-159.354,1292.648-154.302z"/>
			</g>
		</g>
		<g>
			<g>
				<path fill="#FDFFFF" d="M1284.277-137.919c7.048-3.822,15.77-1.37,15.77-1.37s-2.702,8.647-9.749,12.47
					c-7.048,3.822-15.77,1.371-15.77,1.371S1277.23-134.096,1284.277-137.919z"/>
			</g>
		</g>
	</g>
	<g>
		<g>
			<path fill="#FCFAFC" d="M1325.77-148.261h1.609v11.115h5.326v1.35h-6.936V-148.261z"/>
		</g>
		<g>
			<path fill="#FCFAFC" d="M1342.281-140.346c0,3.311-2.293,4.753-4.457,4.753c-2.422,0-4.291-1.775-4.291-4.604
				c0-2.996,1.961-4.753,4.439-4.753C1340.543-144.95,1342.281-143.082,1342.281-140.346z M1335.18-140.253
				c0,1.96,1.128,3.439,2.719,3.439c1.553,0,2.719-1.461,2.719-3.477c0-1.517-0.759-3.439-2.682-3.439
				C1336.012-143.729,1335.18-141.954,1335.18-140.253z"/>
		</g>
		<g>
			<path fill="#FCFAFC" d="M1344.256-135.796c0.037-0.61,0.074-1.517,0.074-2.312v-10.819h1.609v5.622h0.037
				c0.573-0.998,1.609-1.646,3.051-1.646c2.22,0,3.792,1.85,3.773,4.567c0,3.2-2.016,4.79-4.014,4.79
				c-1.294,0-2.33-0.499-2.996-1.683h-0.055l-0.074,1.479H1344.256z M1345.939-139.384c0,0.203,0.037,0.407,0.074,0.592
				c0.314,1.128,1.258,1.905,2.441,1.905c1.701,0,2.719-1.388,2.719-3.44c0-1.794-0.926-3.328-2.664-3.328
				c-1.109,0-2.145,0.758-2.479,1.997c-0.036,0.185-0.092,0.406-0.092,0.666V-139.384z"/>
		</g>
		<g>
			<path fill="#FCFAFC" d="M1354.775-135.796c0.037-0.61,0.074-1.517,0.074-2.312v-10.819h1.609v5.622h0.037
				c0.572-0.998,1.608-1.646,3.051-1.646c2.219,0,3.791,1.85,3.773,4.567c0,3.2-2.017,4.79-4.014,4.79
				c-1.295,0-2.33-0.499-2.996-1.683h-0.056l-0.073,1.479H1354.775z M1356.459-139.384c0,0.203,0.037,0.407,0.073,0.592
				c0.314,1.128,1.258,1.905,2.441,1.905c1.701,0,2.719-1.388,2.719-3.44c0-1.794-0.925-3.328-2.663-3.328
				c-1.109,0-2.146,0.758-2.479,1.997c-0.037,0.185-0.092,0.406-0.092,0.666V-139.384z"/>
		</g>
		<g>
			<path fill="#FCFAFC" d="M1365.832-144.747l1.96,5.289c0.203,0.592,0.425,1.295,0.573,1.831h0.037
				c0.166-0.536,0.352-1.221,0.573-1.867l1.775-5.253h1.72l-2.441,6.381c-1.165,3.069-1.96,4.642-3.07,5.604
				c-0.795,0.702-1.59,0.979-1.996,1.054l-0.407-1.368c0.407-0.13,0.942-0.389,1.424-0.796c0.444-0.351,0.999-0.979,1.368-1.812
				c0.074-0.167,0.13-0.296,0.13-0.389s-0.037-0.222-0.111-0.426l-3.31-8.248H1365.832z"/>
		</g>
	</g>
</g>
<g>
	<g>
		<g>
			<rect x="366.031" y="-51.634" fill="#324746" width="234" height="54"/>
		</g>
	</g>
	<g>
		<g>
			<g>
				<g>
					<path fill="#FFFFFF" d="M393.305-34.798c-7.799,0-14.121,5.637-14.121,12.434c0,3.885,2.07,6.73,5.298,9.73h-0.743
						c0,0-2.873,3.709-4.975,4.678c1.203-0.43,4.104-1.614,7.799-3.66c2.004,0.949,4.301,1.458,6.742,1.458
						c7.799,0,14.121-5.524,14.121-12.319S401.104-34.798,393.305-34.798z"/>
				</g>
			</g>
			<g>
				<g>
					<path fill="#FFFFFF" d="M378.764-8.085c-0.391,0.138-0.613,0.208-0.613,0.208C378.344-7.909,378.551-7.987,378.764-8.085z"/>
				</g>
			</g>
		</g>
		<g>
			<g>
				<path fill="#FFFFFF" d="M414.113-19.755l-0.742-0.027c3.313-2.131,5.512-5.512,5.659-9.395
					c0.259-6.79-5.849-12.535-13.642-12.832c-5.699-0.219-10.719,2.541-13.107,6.694c0.533-0.053,1.074-0.083,1.624-0.083
					c7.799,0,14.121,5.508,14.121,12.303c0,2.027-0.565,3.938-1.562,5.623c1.698-0.146,3.313-0.552,4.779-1.181
					c3.615,2.187,6.471,3.415,7.658,3.89C416.838-15.812,414.113-19.755,414.113-19.755z"/>
			</g>
		</g>
	</g>
	<g>
		<g>
			<path fill="#FCFAFC" d="M444.147-19.93c-0.592,0.296-1.775,0.592-3.292,0.592c-3.514,0-6.158-2.22-6.158-6.307
				c0-3.901,2.645-6.546,6.51-6.546c1.553,0,2.533,0.332,2.959,0.555l-0.389,1.313c-0.61-0.296-1.479-0.518-2.516-0.518
				c-2.922,0-4.863,1.867-4.863,5.141c0,3.052,1.757,5.012,4.79,5.012c0.979,0,1.979-0.203,2.626-0.518L444.147-19.93z"/>
		</g>
		<g>
			<path fill="#FCFAFC" d="M446.104-32.653h1.627v5.585h0.037c0.26-0.462,0.666-0.869,1.166-1.146
				c0.48-0.277,1.054-0.462,1.664-0.462c1.201,0,3.125,0.739,3.125,3.828v5.326h-1.627v-5.142c0-1.442-0.537-2.663-2.072-2.663
				c-1.054,0-1.886,0.74-2.182,1.627c-0.092,0.223-0.111,0.463-0.111,0.777v5.4h-1.627V-32.653z"/>
		</g>
		<g>
			<path fill="#FCFAFC" d="M461.32-19.522l-0.13-1.129h-0.056c-0.499,0.703-1.461,1.332-2.736,1.332
				c-1.813,0-2.737-1.276-2.737-2.57c0-2.164,1.923-3.348,5.382-3.33v-0.184c0-0.74-0.203-2.072-2.035-2.072
				c-0.832,0-1.701,0.26-2.33,0.666l-0.369-1.072c0.739-0.48,1.813-0.795,2.939-0.795c2.738,0,3.403,1.867,3.403,3.661v3.347
				c0,0.777,0.037,1.535,0.147,2.146H461.32z M461.08-24.091c-1.775-0.037-3.791,0.277-3.791,2.016c0,1.055,0.702,1.554,1.534,1.554
				c1.165,0,1.905-0.739,2.164-1.498c0.056-0.167,0.093-0.352,0.093-0.519V-24.091z"/>
		</g>
		<g>
			<path fill="#FCFAFC" d="M467.16-31.044v2.57h2.33v1.238h-2.33v4.828c0,1.109,0.314,1.738,1.221,1.738
				c0.426,0,0.74-0.057,0.943-0.111l0.074,1.221c-0.314,0.129-0.814,0.222-1.443,0.222c-0.758,0-1.368-0.241-1.756-0.685
				c-0.463-0.48-0.629-1.275-0.629-2.33v-4.883h-1.387v-1.238h1.387v-2.146L467.16-31.044z"/>
		</g>
	</g>
</g>
<g>
	<g>
		<g>
			<rect x="366.031" y="1.366" fill="#3B4D4A" width="234" height="54"/>
		</g>
	</g>
	<g>
		<g>
			<g>
				<rect x="387.031" y="18.366" fill="#FCFCFC" width="5" height="30"/>
			</g>
		</g>
		<g>
			<g>
				<g>
					<polygon fill="#FCFCFC" points="379.559,26.366 389.531,9.096 399.504,26.366 					"/>
				</g>
			</g>
		</g>
	</g>
	<g>
		<g>
			<g>
				<rect x="407.031" y="9.366" fill="#FCFCFC" width="5" height="30"/>
			</g>
		</g>
		<g>
			<g>
				<g>
					<polygon fill="#FCFCFC" points="419.504,31.366 409.531,48.637 399.559,31.366 					"/>
				</g>
			</g>
		</g>
	</g>
	<g>
		<g>
			<path fill="#FCFAFC" d="M434.937,21.471h1.609v11.115h5.326v1.35h-6.936V21.471z"/>
		</g>
		<g>
			<path fill="#FCFAFC" d="M445.42,22.47c0.018,0.555-0.389,0.998-1.036,0.998c-0.573,0-0.98-0.443-0.98-0.998
				c0-0.573,0.425-1.018,1.017-1.018C445.031,21.452,445.42,21.896,445.42,22.47z M443.607,33.936v-8.951h1.627v8.951H443.607z"/>
		</g>
		<g>
			<path fill="#FCFAFC" d="M447.933,27.407c0-0.925-0.019-1.683-0.074-2.423h1.425l0.073,1.442h0.056
				c0.499-0.851,1.332-1.646,2.811-1.646c1.221,0,2.146,0.739,2.534,1.794h0.037c0.277-0.499,0.628-0.888,0.999-1.165
				c0.535-0.407,1.127-0.629,1.979-0.629c1.184,0,2.94,0.776,2.94,3.884v5.271h-1.591v-5.067c0-1.72-0.629-2.756-1.941-2.756
				c-0.925,0-1.646,0.685-1.924,1.479c-0.074,0.223-0.129,0.519-0.129,0.814v5.529h-1.591v-5.363c0-1.424-0.629-2.46-1.868-2.46
				c-1.017,0-1.757,0.814-2.016,1.628c-0.092,0.24-0.129,0.518-0.129,0.795v5.4h-1.591V27.407z"/>
		</g>
		<g>
			<path fill="#FCFAFC" d="M465.164,22.47c0.018,0.555-0.389,0.998-1.036,0.998c-0.573,0-0.98-0.443-0.98-0.998
				c0-0.573,0.425-1.018,1.017-1.018C464.775,21.452,465.164,21.896,465.164,22.47z M463.352,33.936v-8.951h1.627v8.951H463.352z"/>
		</g>
		<g>
			<path fill="#FCFAFC" d="M469.637,22.414v2.57h2.33v1.239h-2.33v4.827c0,1.109,0.314,1.738,1.221,1.738
				c0.426,0,0.74-0.056,0.943-0.111l0.074,1.221c-0.314,0.13-0.814,0.222-1.443,0.222c-0.758,0-1.368-0.24-1.756-0.684
				c-0.463-0.481-0.629-1.276-0.629-2.33v-4.883h-1.387v-1.239h1.387V22.84L469.637,22.414z"/>
		</g>
		<g>
			<path fill="#FCFAFC" d="M473.574,32.271c0.48,0.314,1.331,0.646,2.145,0.646c1.184,0,1.738-0.592,1.738-1.331
				c0-0.776-0.462-1.202-1.664-1.646c-1.609-0.574-2.367-1.462-2.367-2.534c0-1.442,1.165-2.626,3.089-2.626
				c0.905,0,1.701,0.259,2.2,0.555l-0.406,1.184c-0.352-0.222-0.999-0.518-1.831-0.518c-0.962,0-1.498,0.555-1.498,1.221
				c0,0.739,0.536,1.072,1.701,1.517c1.554,0.592,2.349,1.368,2.349,2.699c0,1.572-1.221,2.682-3.348,2.682
				c-0.979,0-1.886-0.24-2.515-0.61L473.574,32.271z"/>
		</g>
		<g>
			<path fill="#FCFAFC" d="M492.896,33.936c-0.352-0.352-0.685-0.703-1.165-1.221c-1.072,0.999-2.275,1.424-3.644,1.424
				c-2.423,0-3.828-1.627-3.828-3.495c0-1.701,1.017-2.866,2.441-3.644v-0.055c-0.647-0.814-1.036-1.721-1.036-2.608
				c0-1.516,1.092-3.069,3.162-3.069c1.555,0,2.756,1.035,2.756,2.645c0,1.313-0.758,2.349-2.736,3.329v0.055
				c1.054,1.221,2.237,2.59,3.033,3.478c0.572-0.869,0.961-2.071,1.201-3.644h1.479c-0.333,1.96-0.869,3.514-1.794,4.604
				c0.666,0.703,1.313,1.406,2.053,2.201H492.896z M490.936,31.79c-0.74-0.813-2.127-2.33-3.514-3.921
				c-0.666,0.426-1.609,1.221-1.609,2.534c0,1.424,1.054,2.515,2.552,2.515C489.438,32.918,490.344,32.438,490.936,31.79z
				 M487.145,24.189c0,0.888,0.406,1.572,0.942,2.237c1.258-0.721,2.071-1.387,2.071-2.44c0-0.759-0.426-1.609-1.442-1.609
				C487.68,22.377,487.145,23.228,487.145,24.189z"/>
		</g>
		<g>
			<path fill="#FCFAFC" d="M500.139,27.906c0-1.146-0.037-2.071-0.074-2.922h1.462l0.073,1.535h0.037
				c0.666-1.091,1.721-1.738,3.182-1.738c2.164,0,3.791,1.831,3.791,4.55c0,3.218-1.961,4.808-4.068,4.808
				c-1.184,0-2.22-0.518-2.756-1.405h-0.037v4.864h-1.609V27.906z M501.748,30.292c0,0.241,0.037,0.463,0.074,0.666
				c0.296,1.128,1.275,1.905,2.441,1.905c1.719,0,2.719-1.406,2.719-3.459c0-1.794-0.943-3.328-2.664-3.328
				c-1.109,0-2.145,0.795-2.459,2.016c-0.056,0.203-0.111,0.443-0.111,0.666V30.292z"/>
		</g>
		<g>
			<path fill="#FCFAFC" d="M515.614,33.936l-0.13-1.128h-0.055c-0.5,0.702-1.461,1.331-2.737,1.331c-1.813,0-2.737-1.275-2.737-2.57
				c0-2.164,1.924-3.348,5.382-3.329v-0.185c0-0.74-0.203-2.071-2.034-2.071c-0.832,0-1.701,0.259-2.33,0.666l-0.37-1.073
				c0.739-0.48,1.813-0.795,2.94-0.795c2.737,0,3.402,1.868,3.402,3.662v3.347c0,0.777,0.037,1.535,0.148,2.146H515.614z
				 M515.374,29.367c-1.775-0.036-3.791,0.277-3.791,2.017c0,1.054,0.702,1.553,1.534,1.553c1.166,0,1.905-0.739,2.164-1.498
				c0.056-0.166,0.093-0.351,0.093-0.518V29.367z"/>
		</g>
		<g>
			<path fill="#FCFAFC" d="M520.013,24.984l1.96,5.289c0.203,0.592,0.426,1.295,0.574,1.831h0.036
				c0.167-0.536,0.352-1.221,0.573-1.868l1.775-5.252h1.721l-2.441,6.381c-1.166,3.069-1.961,4.642-3.07,5.604
				c-0.795,0.702-1.59,0.979-1.997,1.054l-0.407-1.368c0.407-0.13,0.943-0.389,1.424-0.795c0.444-0.352,0.999-0.98,1.369-1.813
				c0.074-0.167,0.129-0.296,0.129-0.389s-0.037-0.222-0.11-0.426l-3.311-8.248H520.013z"/>
		</g>
		<g>
			<path fill="#FCFAFC" d="M536.043,29.386c0,3.311-2.293,4.753-4.457,4.753c-2.422,0-4.29-1.775-4.29-4.604
				c0-2.996,1.96-4.753,4.438-4.753C534.305,24.781,536.043,26.649,536.043,29.386z M528.941,29.479c0,1.96,1.129,3.439,2.719,3.439
				c1.554,0,2.719-1.461,2.719-3.477c0-1.517-0.758-3.439-2.682-3.439C529.774,26.002,528.941,27.777,528.941,29.479z"/>
		</g>
		<g>
			<path fill="#FCFAFC" d="M545.583,31.494c0,0.925,0.019,1.738,0.073,2.441h-1.442l-0.092-1.461h-0.037
				c-0.426,0.721-1.368,1.664-2.96,1.664c-1.404,0-3.088-0.776-3.088-3.92v-5.234h1.627v4.957c0,1.701,0.519,2.848,1.998,2.848
				c1.091,0,1.85-0.759,2.146-1.479c0.092-0.24,0.147-0.536,0.147-0.832v-5.493h1.628V31.494z"/>
		</g>
		<g>
			<path fill="#FCFAFC" d="M550.239,22.414v2.57h2.33v1.239h-2.33v4.827c0,1.109,0.314,1.738,1.221,1.738
				c0.425,0,0.739-0.056,0.942-0.111l0.074,1.221c-0.314,0.13-0.813,0.222-1.442,0.222c-0.758,0-1.368-0.24-1.757-0.684
				c-0.462-0.481-0.629-1.276-0.629-2.33v-4.883h-1.387v-1.239h1.387V22.84L550.239,22.414z"/>
		</g>
		<g>
			<path fill="#FCFAFC" d="M554.176,32.271c0.481,0.314,1.332,0.646,2.146,0.646c1.184,0,1.738-0.592,1.738-1.331
				c0-0.776-0.462-1.202-1.664-1.646c-1.609-0.574-2.367-1.462-2.367-2.534c0-1.442,1.165-2.626,3.088-2.626
				c0.906,0,1.702,0.259,2.201,0.555l-0.407,1.184c-0.352-0.222-0.998-0.518-1.831-0.518c-0.961,0-1.498,0.555-1.498,1.221
				c0,0.739,0.537,1.072,1.702,1.517c1.553,0.592,2.349,1.368,2.349,2.699c0,1.572-1.221,2.682-3.348,2.682
				c-0.98,0-1.887-0.24-2.515-0.61L554.176,32.271z"/>
		</g>
	</g>
</g>
<g>
	<g>
		<g>
			<rect x="366.031" y="53.366" fill="#384848" width="234" height="54"/>
		</g>
	</g>
	<g>
		<g>
			<path fill="#F4F9F9" d="M407.055,77.256c-0.422-2.026-1.252-3.9-2.396-5.54l-1.896,2.229l-4.097-3.486l2.222-2.545
				c-1.742-1.2-3.856-2.042-5.856-2.424v4.877h-5v-4.858c-2,0.404-4.487,1.288-6.245,2.539l2.374,2.456l-3.834,3.835l-2.518-2.446
				c-1.093,1.611-1.896,3.445-2.299,5.42l4.305,0.061l-0.08,5.379l-4.362-0.062c0.354,2.275,1.218,4.382,2.47,6.201l2.201-1.92
				l3.535,4.055l-1.693,1.691c1.734,1.214,4.146,2.071,6.146,2.469v-2.819h5v2.838c2-0.398,4.282-1.297,6.073-2.577l-2.655-2.586
				l3.759-3.835l2.602,2.566c1.218-1.806,2.052-3.889,2.394-6.134l-4.549-0.064l0.074-5.38L407.055,77.256z M392.28,87.221
				c-3.796,0-6.874-3.078-6.874-6.874c0-3.797,3.078-6.874,6.874-6.874s6.874,3.077,6.874,6.874
				C399.154,84.143,396.076,87.221,392.28,87.221z"/>
		</g>
	</g>
	<g>
		<g>
			<path fill="#FCFAFC" d="M435.215,83.813c0.721,0.443,1.775,0.813,2.885,0.813c1.646,0,2.607-0.869,2.607-2.127
				c0-1.164-0.666-1.83-2.348-2.479c-2.035-0.721-3.293-1.775-3.293-3.531c0-1.941,1.609-3.385,4.032-3.385
				c1.276,0,2.2,0.297,2.755,0.611l-0.443,1.313c-0.406-0.223-1.239-0.592-2.367-0.592c-1.701,0-2.349,1.018-2.349,1.867
				c0,1.166,0.759,1.738,2.478,2.404c2.109,0.814,3.182,1.832,3.182,3.662c0,1.924-1.424,3.588-4.365,3.588
				c-1.201,0-2.515-0.352-3.18-0.795L435.215,83.813z"/>
		</g>
		<g>
			<path fill="#FCFAFC" d="M445.513,81.593c0.037,2.201,1.442,3.107,3.069,3.107c1.166,0,1.868-0.203,2.479-0.463l0.277,1.166
				c-0.573,0.258-1.553,0.555-2.978,0.555c-2.755,0-4.401-1.813-4.401-4.512c0-2.701,1.591-4.828,4.198-4.828
				c2.922,0,3.698,2.57,3.698,4.217c0,0.334-0.037,0.592-0.055,0.758H445.513z M450.284,80.429c0.019-1.035-0.426-2.645-2.257-2.645
				c-1.646,0-2.367,1.516-2.496,2.645H450.284z"/>
		</g>
		<g>
			<path fill="#FCFAFC" d="M455.828,74.251v2.57h2.33v1.24h-2.33v4.826c0,1.109,0.314,1.738,1.221,1.738
				c0.426,0,0.74-0.055,0.943-0.111l0.074,1.221c-0.314,0.131-0.814,0.223-1.443,0.223c-0.758,0-1.368-0.24-1.756-0.684
				c-0.463-0.482-0.629-1.277-0.629-2.33v-4.883h-1.387v-1.24h1.387v-2.145L455.828,74.251z"/>
		</g>
		<g>
			<path fill="#FCFAFC" d="M461.947,74.251v2.57h2.33v1.24h-2.33v4.826c0,1.109,0.314,1.738,1.221,1.738
				c0.426,0,0.74-0.055,0.943-0.111l0.074,1.221c-0.314,0.131-0.814,0.223-1.443,0.223c-0.758,0-1.368-0.24-1.756-0.684
				c-0.463-0.482-0.629-1.277-0.629-2.33v-4.883h-1.387v-1.24h1.387v-2.145L461.947,74.251z"/>
		</g>
		<g>
			<path fill="#FCFAFC" d="M467.919,74.308c0.019,0.555-0.389,0.998-1.036,0.998c-0.573,0-0.98-0.443-0.98-0.998
				c0-0.574,0.426-1.018,1.018-1.018C467.53,73.29,467.919,73.733,467.919,74.308z M466.106,85.772v-8.951h1.628v8.951H466.106z"/>
		</g>
		<g>
			<path fill="#FCFAFC" d="M470.432,79.245c0-0.926-0.018-1.684-0.074-2.424h1.443l0.092,1.48h0.037
				c0.444-0.852,1.48-1.684,2.959-1.684c1.239,0,3.162,0.74,3.162,3.811v5.344h-1.627v-5.16c0-1.441-0.536-2.645-2.071-2.645
				c-1.072,0-1.905,0.76-2.183,1.666c-0.073,0.203-0.11,0.48-0.11,0.758v5.381h-1.628V79.245z"/>
		</g>
		<g>
			<path fill="#FCFAFC" d="M488.404,76.821c-0.037,0.648-0.074,1.369-0.074,2.461v5.195c0,2.053-0.406,3.311-1.275,4.088
				c-0.869,0.814-2.127,1.072-3.256,1.072c-1.072,0-2.256-0.258-2.977-0.74l0.406-1.238c0.592,0.369,1.517,0.703,2.626,0.703
				c1.665,0,2.886-0.869,2.886-3.125v-1h-0.037c-0.5,0.832-1.461,1.498-2.849,1.498c-2.219,0-3.81-1.887-3.81-4.363
				c0-3.033,1.979-4.754,4.031-4.754c1.554,0,2.404,0.814,2.793,1.555h0.037l0.074-1.352H488.404z M486.721,80.354
				c0-0.277-0.018-0.518-0.092-0.74c-0.296-0.943-1.092-1.719-2.275-1.719c-1.553,0-2.662,1.313-2.662,3.383
				c0,1.758,0.887,3.219,2.645,3.219c0.998,0,1.904-0.629,2.256-1.664c0.092-0.277,0.129-0.592,0.129-0.869V80.354z"/>
		</g>
		<g>
			<path fill="#FCFAFC" d="M490.805,84.108c0.48,0.314,1.331,0.646,2.145,0.646c1.184,0,1.738-0.592,1.738-1.33
				c0-0.777-0.462-1.203-1.664-1.646c-1.609-0.574-2.367-1.461-2.367-2.533c0-1.443,1.165-2.627,3.089-2.627
				c0.905,0,1.701,0.26,2.2,0.555l-0.406,1.184c-0.352-0.221-0.999-0.518-1.831-0.518c-0.962,0-1.498,0.555-1.498,1.221
				c0,0.74,0.536,1.072,1.701,1.518c1.554,0.592,2.349,1.367,2.349,2.699c0,1.572-1.221,2.682-3.348,2.682
				c-0.979,0-1.886-0.24-2.515-0.611L490.805,84.108z"/>
		</g>
	</g>
</g>
<g>
	<g>
		<g>
			<rect x="366.031" y="106.366" fill="#324041" width="234" height="54"/>
		</g>
	</g>
	<g>
		<g>
			<path fill="#F4F9F9" d="M392.41,115.392c-9.953,0-18.022,8.068-18.022,18.021s8.069,18.021,18.022,18.021
				s18.021-8.068,18.021-18.021S402.363,115.392,392.41,115.392z M391.794,139.87c-1.124,0-1.887-0.828-1.887-1.93
				c0-1.123,0.784-1.93,1.887-1.93c1.145,0,1.886,0.807,1.907,1.93C393.701,139.042,392.938,139.87,391.794,139.87z
				 M394.235,131.985c-0.784,0.867-1.204,1.695-1.204,2.648v0.732h-2.572l-0.021-0.728c-0.064-1.08,0.297-2.271,1.25-3.415
				c0.679-0.807,1.23-1.528,1.23-2.249c0-0.742-0.488-1.249-1.549-1.292c-0.699,0-1.547,0.242-2.098,0.625l-0.721-2.317
				c0.764-0.445,2.035-0.873,3.539-0.873c2.799,0,4.008,1.548,4.008,3.308C396.098,130.036,395.041,131.095,394.235,131.985z"/>
		</g>
	</g>
	<g>
		<g>
			<path fill="#FCFAFC" d="M437.384,128.286v5.215h6.028v-5.215h1.628v12.465h-1.628v-5.844h-6.028v5.844h-1.609v-12.465H437.384z"
				/>
		</g>
		<g>
			<path fill="#FCFAFC" d="M448.679,136.571c0.037,2.201,1.442,3.107,3.069,3.107c1.166,0,1.868-0.205,2.479-0.463l0.277,1.164
				c-0.573,0.26-1.553,0.555-2.978,0.555c-2.755,0-4.401-1.811-4.401-4.512c0-2.699,1.591-4.826,4.198-4.826
				c2.922,0,3.698,2.57,3.698,4.217c0,0.332-0.037,0.592-0.055,0.758H448.679z M453.45,135.405c0.019-1.035-0.426-2.645-2.257-2.645
				c-1.646,0-2.367,1.518-2.496,2.645H453.45z"/>
		</g>
		<g>
			<path fill="#FCFAFC" d="M457.034,127.62h1.628v13.131h-1.628V127.62z"/>
		</g>
		<g>
			<path fill="#FCFAFC" d="M461.396,134.722c0-1.146-0.037-2.072-0.074-2.922h1.462l0.073,1.535h0.037
				c0.666-1.092,1.721-1.738,3.182-1.738c2.164,0,3.791,1.83,3.791,4.549c0,3.219-1.961,4.809-4.068,4.809
				c-1.184,0-2.22-0.518-2.756-1.406h-0.037v4.865h-1.609V134.722z M463.006,137.106c0,0.242,0.037,0.463,0.074,0.666
				c0.296,1.129,1.275,1.906,2.441,1.906c1.719,0,2.719-1.406,2.719-3.459c0-1.795-0.943-3.328-2.664-3.328
				c-1.109,0-2.145,0.795-2.459,2.016c-0.056,0.203-0.111,0.443-0.111,0.666V137.106z"/>
		</g>
	</g>
</g>
<g display="none">
	<path display="inline" opacity="0.55" fill="#327F37" d="M431.031-544.937c0,44.35-35.953,80.303-80.303,80.303H-65.666
		c-44.35,0-80.303-35.953-80.303-80.303v-0.394c0-44.35,35.953-80.303,80.303-80.303h416.395c44.35,0,80.303,35.953,80.303,80.303
		V-544.937z"/>
	<path display="inline" opacity="0.55" fill="#327F37" d="M370.031-544.937c0,44.35-35.953,80.303-80.303,80.303h-416.395
		c-44.35,0-80.303-35.953-80.303-80.303v-0.394c0-44.35,35.953-80.303,80.303-80.303h416.395c44.35,0,80.303,35.953,80.303,80.303
		V-544.937z"/>
	<path display="inline" opacity="0.55" fill="#327F37" d="M394.031-525.937c0,44.35-35.315,80.303-78.372,80.303H-88.597
		c-43.057,0-78.372-35.953-78.372-80.303v-0.394c0-44.35,35.315-80.303,78.372-80.303h404.256c43.057,0,78.372,35.953,78.372,80.303
		V-525.937z"/>
	<path display="inline" opacity="0.55" fill="#327F37" d="M394.031-569.937c0,44.35-35.315,80.303-78.372,80.303H-88.597
		c-43.057,0-78.372-35.953-78.372-80.303v-0.394c0-44.35,35.315-80.303,78.372-80.303h404.256c43.057,0,78.372,35.953,78.372,80.303
		V-569.937z"/>
	<path display="inline" fill="#327F37" d="M402.031-551.937c0,44.35-35.953,80.303-80.303,80.303H-94.666
		c-44.35,0-80.303-35.953-80.303-80.303v-0.394c0-44.35,35.953-80.303,80.303-80.303h416.395c44.35,0,80.303,35.953,80.303,80.303
		V-551.937z"/>
	
		<text transform="matrix(1 0 0 1 -103.0332 -505.3906)" display="inline" fill="#1E191F" stroke="#000000" stroke-miterlimit="10" font-family="'Georgia'" font-size="139.5249">ICONS</text>
</g>
</svg>
