<?xml version="1.0" encoding="utf-8"?>
<!-- Generator: Adobe Illustrator 16.0.0, SVG Export Plug-In . SVG Version: 6.00 Build 0)  -->
<!DOCTYPE svg PUBLIC "-//W3C//DTD SVG 1.1//EN" "http://www.w3.org/Graphics/SVG/1.1/DTD/svg11.dtd">
<svg version="1.1" id="Layer_1" xmlns="http://www.w3.org/2000/svg" xmlns:xlink="http://www.w3.org/1999/xlink" x="0px" y="0px"
	 width="234px" height="54px" viewBox="0 0 234 54" enable-background="new 0 0 234 54" xml:space="preserve">
<linearGradient id="SVGID_1_" gradientUnits="userSpaceOnUse" x1="27.8701" y1="776.0596" x2="78.8747" y2="151.9973">
	<stop  offset="0" style="stop-color:#240D29"/>
	<stop  offset="1" style="stop-color:#302A3E"/>
</linearGradient>
<rect x="-1212.969" y="-696.634" display="none" fill="url(#SVGID_1_)" width="2607" height="1412"/>
<g>
	<g>
		<g>
			<rect x="0.031" y="0.366" fill="#39514F" width="234" height="54"/>
		</g>
	</g>
	<g>
		<g>
			<g>
				<path fill="#FDFFFF" d="M36.648,14.698c6.225,5.054,7.291,14.051,7.291,14.051s-9.025,0.806-15.249-4.247
					s-7.291-14.05-7.291-14.05S30.424,9.646,36.648,14.698z"/>
			</g>
		</g>
		<g>
			<g>
				<path fill="#FDFFFF" d="M28.277,31.081c7.048-3.822,15.77-1.37,15.77-1.37s-2.702,8.647-9.749,12.47
					c-7.048,3.822-15.77,1.371-15.77,1.371S21.23,34.904,28.277,31.081z"/>
			</g>
		</g>
	</g>
	<g>
		<g>
			<path fill="#FCFAFC" d="M69.77,20.739h1.609v11.115h5.326v1.35H69.77V20.739z"/>
		</g>
		<g>
			<path fill="#FCFAFC" d="M86.281,28.654c0,3.311-2.293,4.753-4.457,4.753c-2.422,0-4.291-1.775-4.291-4.604
				c0-2.996,1.961-4.753,4.439-4.753C84.543,24.05,86.281,25.918,86.281,28.654z M79.18,28.747c0,1.96,1.128,3.439,2.719,3.439
				c1.553,0,2.719-1.461,2.719-3.477c0-1.517-0.759-3.439-2.682-3.439C80.012,25.271,79.18,27.046,79.18,28.747z"/>
		</g>
		<g>
			<path fill="#FCFAFC" d="M88.256,33.204c0.037-0.61,0.074-1.517,0.074-2.312V20.073h1.609v5.622h0.037
				c0.573-0.998,1.609-1.646,3.051-1.646c2.22,0,3.792,1.85,3.773,4.567c0,3.2-2.016,4.79-4.014,4.79
				c-1.294,0-2.33-0.499-2.996-1.683h-0.055l-0.074,1.479H88.256z M89.939,29.616c0,0.203,0.037,0.407,0.074,0.592
				c0.314,1.128,1.258,1.905,2.441,1.905c1.701,0,2.719-1.388,2.719-3.44c0-1.794-0.926-3.328-2.664-3.328
				c-1.109,0-2.145,0.758-2.479,1.997c-0.036,0.185-0.092,0.406-0.092,0.666V29.616z"/>
		</g>
		<g>
			<path fill="#FCFAFC" d="M98.775,33.204c0.037-0.61,0.074-1.517,0.074-2.312V20.073h1.609v5.622h0.037
				c0.572-0.998,1.608-1.646,3.051-1.646c2.219,0,3.791,1.85,3.773,4.567c0,3.2-2.017,4.79-4.014,4.79
				c-1.295,0-2.33-0.499-2.996-1.683h-0.056l-0.073,1.479H98.775z M100.459,29.616c0,0.203,0.037,0.407,0.073,0.592
				c0.314,1.128,1.258,1.905,2.441,1.905c1.701,0,2.719-1.388,2.719-3.44c0-1.794-0.925-3.328-2.663-3.328
				c-1.109,0-2.146,0.758-2.479,1.997c-0.037,0.185-0.092,0.406-0.092,0.666V29.616z"/>
		</g>
		<g>
			<path fill="#FCFAFC" d="M109.832,24.253l1.96,5.289c0.203,0.592,0.425,1.295,0.573,1.831h0.037
				c0.166-0.536,0.352-1.221,0.573-1.867l1.775-5.253h1.72l-2.441,6.381c-1.165,3.069-1.96,4.642-3.07,5.604
				c-0.795,0.702-1.59,0.979-1.996,1.054l-0.407-1.368c0.407-0.13,0.942-0.389,1.424-0.796c0.444-0.351,0.999-0.979,1.368-1.812
				c0.074-0.167,0.13-0.296,0.13-0.389s-0.037-0.222-0.111-0.426l-3.31-8.248H109.832z"/>
		</g>
	</g>
</g>
<g display="none">
	<path display="inline" opacity="0.55" fill="#327F37" d="M431.031-544.937c0,44.35-35.953,80.303-80.303,80.303H-65.666
		c-44.35,0-80.303-35.953-80.303-80.303v-0.394c0-44.35,35.953-80.303,80.303-80.303h416.395c44.35,0,80.303,35.953,80.303,80.303
		V-544.937z"/>
	<path display="inline" opacity="0.55" fill="#327F37" d="M370.031-544.937c0,44.35-35.953,80.303-80.303,80.303h-416.395
		c-44.35,0-80.303-35.953-80.303-80.303v-0.394c0-44.35,35.953-80.303,80.303-80.303h416.395c44.35,0,80.303,35.953,80.303,80.303
		V-544.937z"/>
	<path display="inline" opacity="0.55" fill="#327F37" d="M394.031-525.937c0,44.35-35.315,80.303-78.372,80.303H-88.597
		c-43.057,0-78.372-35.953-78.372-80.303v-0.394c0-44.35,35.315-80.303,78.372-80.303h404.256c43.057,0,78.372,35.953,78.372,80.303
		V-525.937z"/>
	<path display="inline" opacity="0.55" fill="#327F37" d="M394.031-569.937c0,44.35-35.315,80.303-78.372,80.303H-88.597
		c-43.057,0-78.372-35.953-78.372-80.303v-0.394c0-44.35,35.315-80.303,78.372-80.303h404.256c43.057,0,78.372,35.953,78.372,80.303
		V-569.937z"/>
	<path display="inline" fill="#327F37" d="M402.031-551.937c0,44.35-35.953,80.303-80.303,80.303H-94.666
		c-44.35,0-80.303-35.953-80.303-80.303v-0.394c0-44.35,35.953-80.303,80.303-80.303h416.395c44.35,0,80.303,35.953,80.303,80.303
		V-551.937z"/>
	
		<text transform="matrix(1 0 0 1 -103.0332 -505.3906)" display="inline" fill="#1E191F" stroke="#000000" stroke-miterlimit="10" font-family="'Georgia'" font-size="139.5249">ICONS</text>
</g>
</svg>
