<?xml version="1.0" encoding="utf-8"?>
<!-- Generator: Adobe Illustrator 16.0.0, SVG Export Plug-In . SVG Version: 6.00 Build 0)  -->
<!DOCTYPE svg PUBLIC "-//W3C//DTD SVG 1.1//EN" "http://www.w3.org/Graphics/SVG/1.1/DTD/svg11.dtd">
<svg version="1.1" id="Layer_1" xmlns="http://www.w3.org/2000/svg" xmlns:xlink="http://www.w3.org/1999/xlink" x="0px" y="0px"
	 width="234px" height="54px" viewBox="0 0 234 54" enable-background="new 0 0 234 54" xml:space="preserve">
<g>
	<g>
		<g>
			<rect fill="#384848" width="234" height="54"/>
		</g>
	</g>
	<g>
		<path fill="#FCFAFC" d="M63.89,18.641h1.74v12.022h5.761v1.46H63.89V18.641z"/>
		<path fill="#FCFAFC" d="M81.752,27.202c0,3.581-2.481,5.141-4.821,5.141c-2.621,0-4.642-1.92-4.642-4.98
			c0-3.241,2.121-5.142,4.802-5.142C79.871,22.221,81.752,24.241,81.752,27.202z M74.07,27.302c0,2.121,1.22,3.721,2.94,3.721
			c1.68,0,2.94-1.58,2.94-3.761c0-1.64-0.82-3.721-2.9-3.721C74.97,23.541,74.07,25.462,74.07,27.302z"/>
		<path fill="#FCFAFC" d="M92.311,22.441c-0.04,0.7-0.08,1.479-0.08,2.66v5.621c0,2.221-0.439,3.581-1.38,4.421
			c-0.94,0.88-2.301,1.16-3.521,1.16c-1.16,0-2.44-0.28-3.221-0.8l0.439-1.341c0.641,0.4,1.641,0.761,2.841,0.761
			c1.801,0,3.121-0.94,3.121-3.381v-1.08h-0.04c-0.54,0.9-1.58,1.62-3.081,1.62c-2.4,0-4.121-2.04-4.121-4.721
			c0-3.281,2.141-5.142,4.361-5.142c1.681,0,2.601,0.881,3.021,1.681h0.04l0.08-1.46H92.311z M90.49,26.262c0-0.3-0.02-0.56-0.1-0.8
			c-0.32-1.021-1.181-1.86-2.461-1.86c-1.68,0-2.88,1.42-2.88,3.66c0,1.9,0.96,3.481,2.86,3.481c1.08,0,2.061-0.681,2.44-1.801
			c0.1-0.3,0.14-0.641,0.14-0.94V26.262z"/>
		<path fill="#FCFAFC" d="M103.911,27.202c0,3.581-2.481,5.141-4.821,5.141c-2.621,0-4.642-1.92-4.642-4.98
			c0-3.241,2.121-5.142,4.802-5.142C102.03,22.221,103.911,24.241,103.911,27.202z M96.229,27.302c0,2.121,1.22,3.721,2.94,3.721
			c1.68,0,2.94-1.58,2.94-3.761c0-1.64-0.82-3.721-2.9-3.721C97.129,23.541,96.229,25.462,96.229,27.302z"/>
		<path fill="#FCFAFC" d="M114.231,29.482c0,1,0.02,1.881,0.079,2.641h-1.56l-0.101-1.58h-0.04c-0.46,0.78-1.48,1.8-3.2,1.8
			c-1.521,0-3.341-0.84-3.341-4.24v-5.661h1.761v5.36c0,1.841,0.56,3.081,2.16,3.081c1.18,0,2-0.82,2.32-1.601
			c0.1-0.26,0.16-0.58,0.16-0.9v-5.94h1.761V29.482z"/>
		<path fill="#FCFAFC" d="M119.27,19.66v2.781h2.521v1.34h-2.521v5.221c0,1.201,0.34,1.881,1.32,1.881c0.46,0,0.8-0.06,1.02-0.12
			l0.08,1.32c-0.34,0.14-0.88,0.24-1.56,0.24c-0.82,0-1.48-0.26-1.9-0.74c-0.501-0.521-0.681-1.38-0.681-2.521v-5.281h-1.5v-1.34
			h1.5V20.12L119.27,19.66z"/>
	</g>
	<g>
		<path fill="none" d="M23,26v-7.748c-4,1.409-5.952,4.854-5.952,8.877c0,5.273,4.327,9.563,9.596,9.563
			c5.271,0,9.758-4.29,9.758-9.563c0-3.856-3.402-7.177-5.402-8.688V26H23z"/>
	</g>
	<g>
		<path fill="#FCFAFC" d="M30.597,15.422l0.063,2.689c2.034,1.465,5.597,4.703,5.687,8.557c0.122,5.273-4.123,9.664-9.395,9.787
			c-5.27,0.123-9.825-4.063-9.948-9.335c-0.093-4.021,1.687-7.509,5.652-9.012l-0.062-2.651c-5.963,1.653-8.243,6.304-8.118,11.721
			c0.156,6.65,5.762,11.933,12.409,11.776c6.651-0.154,12.08-5.693,11.926-12.344C38.689,21.353,34.633,16.976,30.597,15.422z"/>
	</g>
	<g>
		<path fill="#FCFAFC" d="M28,20.403c0,0.543-1.03,0.981-1.502,0.981l0,0c-0.468,0-1.498-0.438-1.498-0.981v-7.86
			c0-0.544,1.03-0.982,1.498-0.982l0,0c0.472,0,1.502,0.438,1.502,0.982V20.403z"/>
	</g>
</g>
</svg>
