<?xml version="1.0" encoding="utf-8"?>
<!-- Generator: Adobe Illustrator 16.0.0, SVG Export Plug-In . SVG Version: 6.00 Build 0)  -->
<!DOCTYPE svg PUBLIC "-//W3C//DTD SVG 1.1//EN" "http://www.w3.org/Graphics/SVG/1.1/DTD/svg11.dtd">
<svg version="1.1" id="Layer_1" xmlns="http://www.w3.org/2000/svg" xmlns:xlink="http://www.w3.org/1999/xlink" x="0px" y="0px"
	 width="64px" height="64px" viewBox="0 0 64 64" enable-background="new 0 0 64 64" xml:space="preserve">
<linearGradient id="SVGID_1_" gradientUnits="userSpaceOnUse" x1="-57.1299" y1="781.0596" x2="-6.1253" y2="156.9973">
	<stop  offset="0" style="stop-color:#240D29"/>
	<stop  offset="1" style="stop-color:#302A3E"/>
</linearGradient>
<rect x="-1297.969" y="-691.634" display="none" fill="url(#SVGID_1_)" width="2607" height="1412"/>
<g>
	<g>
		<g>
			<circle fill="#ADB4B4" cx="31.543" cy="32.141" r="32"/>
		</g>
	</g>
	<g>
		<g>
			<rect x="20.031" y="22.366" fill="#242A2A" width="23" height="3"/>
		</g>
	</g>
	<g>
		<g>
			<rect x="20.031" y="33.366" fill="#242A2A" width="23" height="3"/>
		</g>
	</g>
	<g>
		<g>
			<rect x="20.031" y="45.366" fill="#242A2A" width="23" height="3"/>
		</g>
	</g>
</g>
<g>
	<g>
		<g>
			<rect x="1171.031" y="-110.634" fill="#324343" width="234" height="54"/>
		</g>
	</g>
	<g>
		<g>
			<g>
				<g>
					<path fill="#F9F2F9" d="M1208.64-66.589c-6.194,0-11.146-2.544-14.715-7.562l1.223-0.869c3.271,4.599,7.812,6.931,13.492,6.931
						c9.37,0,16.993-7.673,16.993-17.104s-7.623-16.879-16.993-16.879s-16.993,7.438-16.993,17.438h-1.5
						c0-11,8.296-18.938,18.493-18.938s18.493,8.233,18.493,18.491S1218.837-66.589,1208.64-66.589z"/>
				</g>
			</g>
		</g>
		<g>
			<g>
				<g>
					<polygon fill="#F9F2F9" points="1194.411,-87.296 1191.08,-81.162 1187.433,-87.113 					"/>
				</g>
			</g>
		</g>
		<g>
			<g>
				<polygon fill="#F9F2F9" points="1210.802,-79.75 1207.031,-81.7 1207.031,-89.634 1208.031,-89.634 1208.031,-82.31 
					1211.261,-80.639 				"/>
			</g>
		</g>
	</g>
	<g>
		<g>
			<path fill="#FCFAFC" d="M1246.385-90.284v5.215h6.029v-5.215h1.627v12.465h-1.627v-5.844h-6.029v5.844h-1.609v-12.465H1246.385z"
				/>
		</g>
		<g>
			<path fill="#FCFAFC" d="M1258.771-89.285c0.019,0.555-0.389,0.998-1.036,0.998c-0.573,0-0.98-0.443-0.98-0.998
				c0-0.573,0.426-1.018,1.018-1.018C1258.382-90.303,1258.771-89.858,1258.771-89.285z M1256.958-77.819v-8.951h1.628v8.951
				H1256.958z"/>
		</g>
		<g>
			<path fill="#FCFAFC" d="M1261.062-79.483c0.481,0.314,1.331,0.646,2.146,0.646c1.184,0,1.738-0.592,1.738-1.331
				c0-0.776-0.463-1.202-1.664-1.646c-1.609-0.574-2.367-1.462-2.367-2.534c0-1.442,1.165-2.626,3.088-2.626
				c0.906,0,1.701,0.259,2.201,0.555l-0.407,1.184c-0.351-0.222-0.999-0.518-1.831-0.518c-0.961,0-1.498,0.555-1.498,1.221
				c0,0.739,0.537,1.072,1.701,1.517c1.555,0.592,2.35,1.368,2.35,2.699c0,1.572-1.221,2.682-3.348,2.682
				c-0.98,0-1.887-0.24-2.516-0.61L1261.062-79.483z"/>
		</g>
		<g>
			<path fill="#FCFAFC" d="M1270.564-89.341v2.57h2.33v1.239h-2.33v4.827c0,1.109,0.314,1.738,1.221,1.738
				c0.426,0,0.74-0.056,0.943-0.111l0.074,1.221c-0.314,0.13-0.814,0.222-1.443,0.222c-0.758,0-1.368-0.24-1.756-0.684
				c-0.463-0.481-0.629-1.276-0.629-2.33v-4.883h-1.387v-1.239h1.387v-2.145L1270.564-89.341z"/>
		</g>
		<g>
			<path fill="#FCFAFC" d="M1282.713-82.369c0,3.311-2.293,4.753-4.457,4.753c-2.422,0-4.291-1.775-4.291-4.604
				c0-2.996,1.961-4.753,4.439-4.753C1280.975-86.974,1282.713-85.105,1282.713-82.369z M1275.611-82.276
				c0,1.96,1.128,3.439,2.719,3.439c1.553,0,2.719-1.461,2.719-3.477c0-1.517-0.759-3.439-2.682-3.439
				C1276.443-85.753,1275.611-83.978,1275.611-82.276z"/>
		</g>
		<g>
			<path fill="#FCFAFC" d="M1284.762-83.978c0-1.055-0.018-1.961-0.074-2.793h1.425l0.056,1.757h0.074
				c0.406-1.202,1.387-1.96,2.478-1.96c0.185,0,0.314,0.019,0.462,0.056v1.535c-0.166-0.037-0.332-0.056-0.555-0.056
				c-1.146,0-1.96,0.869-2.182,2.09c-0.037,0.222-0.074,0.48-0.074,0.758v4.771h-1.609V-83.978z"/>
		</g>
		<g>
			<path fill="#FCFAFC" d="M1291.861-86.771l1.961,5.289c0.203,0.592,0.426,1.295,0.573,1.831h0.037
				c0.166-0.536,0.351-1.221,0.573-1.868l1.775-5.252h1.72l-2.441,6.381c-1.165,3.069-1.96,4.642-3.069,5.604
				c-0.795,0.702-1.591,0.979-1.998,1.054l-0.406-1.368c0.406-0.13,0.943-0.389,1.424-0.795c0.443-0.352,0.998-0.98,1.369-1.813
				c0.073-0.167,0.129-0.296,0.129-0.389s-0.037-0.222-0.111-0.426l-3.311-8.248H1291.861z"/>
		</g>
	</g>
</g>
<g>
	<g>
		<g>
			<rect x="1171.031" y="-163.634" fill="#39514F" width="234" height="54"/>
		</g>
	</g>
	<g>
		<g>
			<g>
				<path fill="#FDFFFF" d="M1207.648-149.302c6.225,5.054,7.291,14.051,7.291,14.051s-9.025,0.806-15.249-4.247
					s-7.291-14.05-7.291-14.05S1201.424-154.354,1207.648-149.302z"/>
			</g>
		</g>
		<g>
			<g>
				<path fill="#FDFFFF" d="M1199.277-132.919c7.048-3.822,15.77-1.37,15.77-1.37s-2.702,8.647-9.749,12.47
					c-7.048,3.822-15.77,1.371-15.77,1.371S1192.23-129.096,1199.277-132.919z"/>
			</g>
		</g>
	</g>
	<g>
		<g>
			<path fill="#FCFAFC" d="M1240.77-143.261h1.609v11.115h5.326v1.35h-6.936V-143.261z"/>
		</g>
		<g>
			<path fill="#FCFAFC" d="M1257.281-135.346c0,3.311-2.293,4.753-4.457,4.753c-2.422,0-4.291-1.775-4.291-4.604
				c0-2.996,1.961-4.753,4.439-4.753C1255.543-139.95,1257.281-138.082,1257.281-135.346z M1250.18-135.253
				c0,1.96,1.128,3.439,2.719,3.439c1.553,0,2.719-1.461,2.719-3.477c0-1.517-0.759-3.439-2.682-3.439
				C1251.012-138.729,1250.18-136.954,1250.18-135.253z"/>
		</g>
		<g>
			<path fill="#FCFAFC" d="M1259.256-130.796c0.037-0.61,0.074-1.517,0.074-2.312v-10.819h1.609v5.622h0.037
				c0.573-0.998,1.609-1.646,3.051-1.646c2.22,0,3.792,1.85,3.773,4.567c0,3.2-2.016,4.79-4.014,4.79
				c-1.294,0-2.33-0.499-2.996-1.683h-0.055l-0.074,1.479H1259.256z M1260.939-134.384c0,0.203,0.037,0.407,0.074,0.592
				c0.314,1.128,1.258,1.905,2.441,1.905c1.701,0,2.719-1.388,2.719-3.44c0-1.794-0.926-3.328-2.664-3.328
				c-1.109,0-2.145,0.758-2.479,1.997c-0.036,0.185-0.092,0.406-0.092,0.666V-134.384z"/>
		</g>
		<g>
			<path fill="#FCFAFC" d="M1269.775-130.796c0.037-0.61,0.074-1.517,0.074-2.312v-10.819h1.609v5.622h0.037
				c0.572-0.998,1.608-1.646,3.051-1.646c2.219,0,3.791,1.85,3.773,4.567c0,3.2-2.017,4.79-4.014,4.79
				c-1.295,0-2.33-0.499-2.996-1.683h-0.056l-0.073,1.479H1269.775z M1271.459-134.384c0,0.203,0.037,0.407,0.073,0.592
				c0.314,1.128,1.258,1.905,2.441,1.905c1.701,0,2.719-1.388,2.719-3.44c0-1.794-0.925-3.328-2.663-3.328
				c-1.109,0-2.146,0.758-2.479,1.997c-0.037,0.185-0.092,0.406-0.092,0.666V-134.384z"/>
		</g>
		<g>
			<path fill="#FCFAFC" d="M1280.832-139.747l1.96,5.289c0.203,0.592,0.425,1.295,0.573,1.831h0.037
				c0.166-0.536,0.352-1.221,0.573-1.867l1.775-5.253h1.72l-2.441,6.381c-1.165,3.069-1.96,4.642-3.07,5.604
				c-0.795,0.702-1.59,0.979-1.996,1.054l-0.407-1.368c0.407-0.13,0.942-0.389,1.424-0.796c0.444-0.351,0.999-0.979,1.368-1.812
				c0.074-0.167,0.13-0.296,0.13-0.389s-0.037-0.222-0.111-0.426l-3.31-8.248H1280.832z"/>
		</g>
	</g>
</g>
<g>
	<g>
		<g>
			<rect x="1171.031" y="-58.634" fill="#324746" width="234" height="54"/>
		</g>
	</g>
	<g>
		<g>
			<g>
				<g>
					<path fill="#FFFFFF" d="M1198.305-41.798c-7.799,0-14.121,5.637-14.121,12.434c0,3.885,2.07,6.73,5.298,9.73h-0.743
						c0,0-2.873,3.709-4.975,4.678c1.203-0.43,4.104-1.614,7.799-3.66c2.004,0.949,4.301,1.458,6.742,1.458
						c7.799,0,14.121-5.524,14.121-12.319S1206.104-41.798,1198.305-41.798z"/>
				</g>
			</g>
			<g>
				<g>
					<path fill="#FFFFFF" d="M1183.764-15.085c-0.391,0.138-0.613,0.208-0.613,0.208
						C1183.344-14.909,1183.551-14.987,1183.764-15.085z"/>
				</g>
			</g>
		</g>
		<g>
			<g>
				<path fill="#FFFFFF" d="M1219.113-26.755l-0.742-0.027c3.313-2.131,5.512-5.512,5.659-9.395
					c0.259-6.79-5.849-12.535-13.642-12.832c-5.699-0.219-10.719,2.541-13.107,6.694c0.533-0.053,1.074-0.083,1.624-0.083
					c7.799,0,14.121,5.508,14.121,12.303c0,2.027-0.565,3.938-1.562,5.623c1.698-0.146,3.313-0.552,4.779-1.181
					c3.615,2.187,6.471,3.415,7.658,3.89C1221.838-22.812,1219.113-26.755,1219.113-26.755z"/>
			</g>
		</g>
	</g>
	<g>
		<g>
			<path fill="#FCFAFC" d="M1249.147-26.93c-0.592,0.296-1.775,0.592-3.292,0.592c-3.514,0-6.158-2.22-6.158-6.307
				c0-3.901,2.645-6.546,6.51-6.546c1.553,0,2.533,0.332,2.959,0.555l-0.389,1.313c-0.61-0.296-1.479-0.518-2.516-0.518
				c-2.922,0-4.863,1.867-4.863,5.141c0,3.052,1.757,5.012,4.79,5.012c0.979,0,1.979-0.203,2.626-0.518L1249.147-26.93z"/>
		</g>
		<g>
			<path fill="#FCFAFC" d="M1251.104-39.653h1.627v5.585h0.037c0.26-0.462,0.666-0.869,1.166-1.146
				c0.48-0.277,1.054-0.462,1.664-0.462c1.201,0,3.125,0.739,3.125,3.828v5.326h-1.627v-5.142c0-1.442-0.537-2.663-2.072-2.663
				c-1.054,0-1.886,0.74-2.182,1.627c-0.092,0.223-0.111,0.463-0.111,0.777v5.4h-1.627V-39.653z"/>
		</g>
		<g>
			<path fill="#FCFAFC" d="M1266.32-26.522l-0.13-1.129h-0.056c-0.499,0.703-1.461,1.332-2.736,1.332
				c-1.813,0-2.737-1.276-2.737-2.57c0-2.164,1.923-3.348,5.382-3.33v-0.184c0-0.74-0.203-2.072-2.035-2.072
				c-0.832,0-1.701,0.26-2.33,0.666l-0.369-1.072c0.739-0.48,1.813-0.795,2.939-0.795c2.738,0,3.403,1.867,3.403,3.661v3.347
				c0,0.777,0.037,1.535,0.147,2.146H1266.32z M1266.08-31.091c-1.775-0.037-3.791,0.277-3.791,2.016
				c0,1.055,0.702,1.554,1.534,1.554c1.165,0,1.905-0.739,2.164-1.498c0.056-0.167,0.093-0.352,0.093-0.519V-31.091z"/>
		</g>
		<g>
			<path fill="#FCFAFC" d="M1272.16-38.044v2.57h2.33v1.238h-2.33v4.828c0,1.109,0.314,1.738,1.221,1.738
				c0.426,0,0.74-0.057,0.943-0.111l0.074,1.221c-0.314,0.129-0.814,0.222-1.443,0.222c-0.758,0-1.368-0.241-1.756-0.685
				c-0.463-0.48-0.629-1.275-0.629-2.33v-4.883h-1.387v-1.238h1.387v-2.146L1272.16-38.044z"/>
		</g>
	</g>
</g>
<g>
	<g>
		<g>
			<rect x="1171.031" y="-5.634" fill="#3B4D4A" width="234" height="54"/>
		</g>
	</g>
	<g>
		<g>
			<g>
				<rect x="1192.031" y="11.366" fill="#FCFCFC" width="5" height="30"/>
			</g>
		</g>
		<g>
			<g>
				<g>
					<polygon fill="#FCFCFC" points="1184.559,19.366 1194.531,2.096 1204.504,19.366 					"/>
				</g>
			</g>
		</g>
	</g>
	<g>
		<g>
			<g>
				<rect x="1212.031" y="2.366" fill="#FCFCFC" width="5" height="30"/>
			</g>
		</g>
		<g>
			<g>
				<g>
					<polygon fill="#FCFCFC" points="1224.504,24.366 1214.531,41.637 1204.559,24.366 					"/>
				</g>
			</g>
		</g>
	</g>
	<g>
		<g>
			<path fill="#FCFAFC" d="M1239.937,14.471h1.609v11.115h5.326v1.35h-6.936V14.471z"/>
		</g>
		<g>
			<path fill="#FCFAFC" d="M1250.42,15.47c0.018,0.555-0.389,0.998-1.036,0.998c-0.573,0-0.98-0.443-0.98-0.998
				c0-0.573,0.425-1.018,1.017-1.018C1250.031,14.452,1250.42,14.896,1250.42,15.47z M1248.607,26.936v-8.951h1.627v8.951H1248.607z
				"/>
		</g>
		<g>
			<path fill="#FCFAFC" d="M1252.933,20.407c0-0.925-0.019-1.683-0.074-2.423h1.425l0.073,1.442h0.056
				c0.499-0.851,1.332-1.646,2.811-1.646c1.221,0,2.146,0.739,2.534,1.794h0.037c0.277-0.499,0.628-0.888,0.999-1.165
				c0.535-0.407,1.127-0.629,1.979-0.629c1.184,0,2.94,0.776,2.94,3.884v5.271h-1.591v-5.067c0-1.72-0.629-2.756-1.941-2.756
				c-0.925,0-1.646,0.685-1.924,1.479c-0.074,0.223-0.129,0.519-0.129,0.814v5.529h-1.591v-5.363c0-1.424-0.629-2.46-1.868-2.46
				c-1.017,0-1.757,0.814-2.016,1.628c-0.092,0.24-0.129,0.518-0.129,0.795v5.4h-1.591V20.407z"/>
		</g>
		<g>
			<path fill="#FCFAFC" d="M1270.164,15.47c0.018,0.555-0.389,0.998-1.036,0.998c-0.573,0-0.98-0.443-0.98-0.998
				c0-0.573,0.425-1.018,1.017-1.018C1269.775,14.452,1270.164,14.896,1270.164,15.47z M1268.352,26.936v-8.951h1.627v8.951
				H1268.352z"/>
		</g>
		<g>
			<path fill="#FCFAFC" d="M1274.637,15.414v2.57h2.33v1.239h-2.33v4.827c0,1.109,0.314,1.738,1.221,1.738
				c0.426,0,0.74-0.056,0.943-0.111l0.074,1.221c-0.314,0.13-0.814,0.222-1.443,0.222c-0.758,0-1.368-0.24-1.756-0.684
				c-0.463-0.481-0.629-1.276-0.629-2.33v-4.883h-1.387v-1.239h1.387V15.84L1274.637,15.414z"/>
		</g>
		<g>
			<path fill="#FCFAFC" d="M1278.574,25.271c0.48,0.314,1.331,0.646,2.145,0.646c1.184,0,1.738-0.592,1.738-1.331
				c0-0.776-0.462-1.202-1.664-1.646c-1.609-0.574-2.367-1.462-2.367-2.534c0-1.442,1.165-2.626,3.089-2.626
				c0.905,0,1.701,0.259,2.2,0.555l-0.406,1.184c-0.352-0.222-0.999-0.518-1.831-0.518c-0.962,0-1.498,0.555-1.498,1.221
				c0,0.739,0.536,1.072,1.701,1.517c1.554,0.592,2.349,1.368,2.349,2.699c0,1.572-1.221,2.682-3.348,2.682
				c-0.979,0-1.886-0.24-2.515-0.61L1278.574,25.271z"/>
		</g>
		<g>
			<path fill="#FCFAFC" d="M1297.896,26.936c-0.352-0.352-0.685-0.703-1.165-1.221c-1.072,0.999-2.275,1.424-3.644,1.424
				c-2.423,0-3.828-1.627-3.828-3.495c0-1.701,1.017-2.866,2.441-3.644v-0.055c-0.647-0.814-1.036-1.721-1.036-2.608
				c0-1.516,1.092-3.069,3.162-3.069c1.555,0,2.756,1.035,2.756,2.645c0,1.313-0.758,2.349-2.736,3.329v0.055
				c1.054,1.221,2.237,2.59,3.033,3.478c0.572-0.869,0.961-2.071,1.201-3.644h1.479c-0.333,1.96-0.869,3.514-1.794,4.604
				c0.666,0.703,1.313,1.406,2.053,2.201H1297.896z M1295.936,24.79c-0.74-0.813-2.127-2.33-3.514-3.921
				c-0.666,0.426-1.609,1.221-1.609,2.534c0,1.424,1.054,2.515,2.552,2.515C1294.438,25.918,1295.344,25.438,1295.936,24.79z
				 M1292.145,17.189c0,0.888,0.406,1.572,0.942,2.237c1.258-0.721,2.071-1.387,2.071-2.44c0-0.759-0.426-1.609-1.442-1.609
				C1292.68,15.377,1292.145,16.228,1292.145,17.189z"/>
		</g>
		<g>
			<path fill="#FCFAFC" d="M1305.139,20.906c0-1.146-0.037-2.071-0.074-2.922h1.462l0.073,1.535h0.037
				c0.666-1.091,1.721-1.738,3.182-1.738c2.164,0,3.791,1.831,3.791,4.55c0,3.218-1.961,4.808-4.068,4.808
				c-1.184,0-2.22-0.518-2.756-1.405h-0.037v4.864h-1.609V20.906z M1306.748,23.292c0,0.241,0.037,0.463,0.074,0.666
				c0.296,1.128,1.275,1.905,2.441,1.905c1.719,0,2.719-1.406,2.719-3.459c0-1.794-0.943-3.328-2.664-3.328
				c-1.109,0-2.145,0.795-2.459,2.016c-0.056,0.203-0.111,0.443-0.111,0.666V23.292z"/>
		</g>
		<g>
			<path fill="#FCFAFC" d="M1320.614,26.936l-0.13-1.128h-0.055c-0.5,0.702-1.461,1.331-2.737,1.331
				c-1.813,0-2.737-1.275-2.737-2.57c0-2.164,1.924-3.348,5.382-3.329v-0.185c0-0.74-0.203-2.071-2.034-2.071
				c-0.832,0-1.701,0.259-2.33,0.666l-0.37-1.073c0.739-0.48,1.813-0.795,2.94-0.795c2.737,0,3.402,1.868,3.402,3.662v3.347
				c0,0.777,0.037,1.535,0.148,2.146H1320.614z M1320.374,22.367c-1.775-0.036-3.791,0.277-3.791,2.017
				c0,1.054,0.702,1.553,1.534,1.553c1.166,0,1.905-0.739,2.164-1.498c0.056-0.166,0.093-0.351,0.093-0.518V22.367z"/>
		</g>
		<g>
			<path fill="#FCFAFC" d="M1325.013,17.984l1.96,5.289c0.203,0.592,0.426,1.295,0.574,1.831h0.036
				c0.167-0.536,0.352-1.221,0.573-1.868l1.775-5.252h1.721l-2.441,6.381c-1.166,3.069-1.961,4.642-3.07,5.604
				c-0.795,0.702-1.59,0.979-1.997,1.054l-0.407-1.368c0.407-0.13,0.943-0.389,1.424-0.795c0.444-0.352,0.999-0.98,1.369-1.813
				c0.074-0.167,0.129-0.296,0.129-0.389s-0.037-0.222-0.11-0.426l-3.311-8.248H1325.013z"/>
		</g>
		<g>
			<path fill="#FCFAFC" d="M1341.043,22.386c0,3.311-2.293,4.753-4.457,4.753c-2.422,0-4.29-1.775-4.29-4.604
				c0-2.996,1.96-4.753,4.438-4.753C1339.305,17.781,1341.043,19.649,1341.043,22.386z M1333.941,22.479
				c0,1.96,1.129,3.439,2.719,3.439c1.554,0,2.719-1.461,2.719-3.477c0-1.517-0.758-3.439-2.682-3.439
				C1334.774,19.002,1333.941,20.777,1333.941,22.479z"/>
		</g>
		<g>
			<path fill="#FCFAFC" d="M1350.583,24.494c0,0.925,0.019,1.738,0.073,2.441h-1.442l-0.092-1.461h-0.037
				c-0.426,0.721-1.368,1.664-2.96,1.664c-1.404,0-3.088-0.776-3.088-3.92v-5.234h1.627v4.957c0,1.701,0.519,2.848,1.998,2.848
				c1.091,0,1.85-0.759,2.146-1.479c0.092-0.24,0.147-0.536,0.147-0.832v-5.493h1.628V24.494z"/>
		</g>
		<g>
			<path fill="#FCFAFC" d="M1355.239,15.414v2.57h2.33v1.239h-2.33v4.827c0,1.109,0.314,1.738,1.221,1.738
				c0.425,0,0.739-0.056,0.942-0.111l0.074,1.221c-0.314,0.13-0.813,0.222-1.442,0.222c-0.758,0-1.368-0.24-1.757-0.684
				c-0.462-0.481-0.629-1.276-0.629-2.33v-4.883h-1.387v-1.239h1.387V15.84L1355.239,15.414z"/>
		</g>
		<g>
			<path fill="#FCFAFC" d="M1359.176,25.271c0.481,0.314,1.332,0.646,2.146,0.646c1.184,0,1.738-0.592,1.738-1.331
				c0-0.776-0.462-1.202-1.664-1.646c-1.609-0.574-2.367-1.462-2.367-2.534c0-1.442,1.165-2.626,3.088-2.626
				c0.906,0,1.702,0.259,2.201,0.555l-0.407,1.184c-0.352-0.222-0.998-0.518-1.831-0.518c-0.961,0-1.498,0.555-1.498,1.221
				c0,0.739,0.537,1.072,1.702,1.517c1.553,0.592,2.349,1.368,2.349,2.699c0,1.572-1.221,2.682-3.348,2.682
				c-0.98,0-1.887-0.24-2.515-0.61L1359.176,25.271z"/>
		</g>
	</g>
</g>
<g>
	<g>
		<g>
			<rect x="1171.031" y="46.366" fill="#384848" width="234" height="54"/>
		</g>
	</g>
	<g>
		<g>
			<path fill="#F4F9F9" d="M1212.055,70.256c-0.422-2.026-1.252-3.9-2.396-5.54l-1.896,2.229l-4.097-3.486l2.222-2.545
				c-1.742-1.2-3.856-2.042-5.856-2.424v4.877h-5v-4.858c-2,0.404-4.487,1.288-6.245,2.539l2.374,2.456l-3.834,3.835l-2.518-2.446
				c-1.093,1.611-1.896,3.445-2.299,5.42l4.305,0.061l-0.08,5.379l-4.362-0.062c0.354,2.275,1.218,4.382,2.47,6.201l2.201-1.92
				l3.535,4.055l-1.693,1.691c1.734,1.214,4.146,2.071,6.146,2.469v-2.819h5v2.838c2-0.398,4.282-1.297,6.073-2.577l-2.655-2.586
				l3.759-3.835l2.602,2.566c1.218-1.806,2.052-3.889,2.394-6.134l-4.549-0.064l0.074-5.38L1212.055,70.256z M1197.28,80.221
				c-3.796,0-6.874-3.078-6.874-6.874c0-3.797,3.078-6.874,6.874-6.874s6.874,3.077,6.874,6.874
				C1204.154,77.143,1201.076,80.221,1197.28,80.221z"/>
		</g>
	</g>
	<g>
		<g>
			<path fill="#FCFAFC" d="M1240.215,76.813c0.721,0.443,1.775,0.813,2.885,0.813c1.646,0,2.607-0.869,2.607-2.127
				c0-1.164-0.666-1.83-2.348-2.479c-2.035-0.721-3.293-1.775-3.293-3.531c0-1.941,1.609-3.385,4.032-3.385
				c1.276,0,2.2,0.297,2.755,0.611l-0.443,1.313c-0.406-0.223-1.239-0.592-2.367-0.592c-1.701,0-2.349,1.018-2.349,1.867
				c0,1.166,0.759,1.738,2.478,2.404c2.109,0.814,3.182,1.832,3.182,3.662c0,1.924-1.424,3.588-4.365,3.588
				c-1.201,0-2.515-0.352-3.18-0.795L1240.215,76.813z"/>
		</g>
		<g>
			<path fill="#FCFAFC" d="M1250.513,74.593c0.037,2.201,1.442,3.107,3.069,3.107c1.166,0,1.868-0.203,2.479-0.463l0.277,1.166
				c-0.573,0.258-1.553,0.555-2.978,0.555c-2.755,0-4.401-1.813-4.401-4.512c0-2.701,1.591-4.828,4.198-4.828
				c2.922,0,3.698,2.57,3.698,4.217c0,0.334-0.037,0.592-0.055,0.758H1250.513z M1255.284,73.429
				c0.019-1.035-0.426-2.645-2.257-2.645c-1.646,0-2.367,1.516-2.496,2.645H1255.284z"/>
		</g>
		<g>
			<path fill="#FCFAFC" d="M1260.828,67.251v2.57h2.33v1.24h-2.33v4.826c0,1.109,0.314,1.738,1.221,1.738
				c0.426,0,0.74-0.055,0.943-0.111l0.074,1.221c-0.314,0.131-0.814,0.223-1.443,0.223c-0.758,0-1.368-0.24-1.756-0.684
				c-0.463-0.482-0.629-1.277-0.629-2.33v-4.883h-1.387v-1.24h1.387v-2.145L1260.828,67.251z"/>
		</g>
		<g>
			<path fill="#FCFAFC" d="M1266.947,67.251v2.57h2.33v1.24h-2.33v4.826c0,1.109,0.314,1.738,1.221,1.738
				c0.426,0,0.74-0.055,0.943-0.111l0.074,1.221c-0.314,0.131-0.814,0.223-1.443,0.223c-0.758,0-1.368-0.24-1.756-0.684
				c-0.463-0.482-0.629-1.277-0.629-2.33v-4.883h-1.387v-1.24h1.387v-2.145L1266.947,67.251z"/>
		</g>
		<g>
			<path fill="#FCFAFC" d="M1272.919,67.308c0.019,0.555-0.389,0.998-1.036,0.998c-0.573,0-0.98-0.443-0.98-0.998
				c0-0.574,0.426-1.018,1.018-1.018C1272.53,66.29,1272.919,66.733,1272.919,67.308z M1271.106,78.772v-8.951h1.628v8.951H1271.106
				z"/>
		</g>
		<g>
			<path fill="#FCFAFC" d="M1275.432,72.245c0-0.926-0.018-1.684-0.074-2.424h1.443l0.092,1.48h0.037
				c0.444-0.852,1.48-1.684,2.959-1.684c1.239,0,3.162,0.74,3.162,3.811v5.344h-1.627v-5.16c0-1.441-0.536-2.645-2.071-2.645
				c-1.072,0-1.905,0.76-2.183,1.666c-0.073,0.203-0.11,0.48-0.11,0.758v5.381h-1.628V72.245z"/>
		</g>
		<g>
			<path fill="#FCFAFC" d="M1293.404,69.821c-0.037,0.648-0.074,1.369-0.074,2.461v5.195c0,2.053-0.406,3.311-1.275,4.088
				c-0.869,0.814-2.127,1.072-3.256,1.072c-1.072,0-2.256-0.258-2.977-0.74l0.406-1.238c0.592,0.369,1.517,0.703,2.626,0.703
				c1.665,0,2.886-0.869,2.886-3.125v-1h-0.037c-0.5,0.832-1.461,1.498-2.849,1.498c-2.219,0-3.81-1.887-3.81-4.363
				c0-3.033,1.979-4.754,4.031-4.754c1.554,0,2.404,0.814,2.793,1.555h0.037l0.074-1.352H1293.404z M1291.721,73.354
				c0-0.277-0.018-0.518-0.092-0.74c-0.296-0.943-1.092-1.719-2.275-1.719c-1.553,0-2.662,1.313-2.662,3.383
				c0,1.758,0.887,3.219,2.645,3.219c0.998,0,1.904-0.629,2.256-1.664c0.092-0.277,0.129-0.592,0.129-0.869V73.354z"/>
		</g>
		<g>
			<path fill="#FCFAFC" d="M1295.805,77.108c0.48,0.314,1.331,0.646,2.145,0.646c1.184,0,1.738-0.592,1.738-1.33
				c0-0.777-0.462-1.203-1.664-1.646c-1.609-0.574-2.367-1.461-2.367-2.533c0-1.443,1.165-2.627,3.089-2.627
				c0.905,0,1.701,0.26,2.2,0.555l-0.406,1.184c-0.352-0.221-0.999-0.518-1.831-0.518c-0.962,0-1.498,0.555-1.498,1.221
				c0,0.74,0.536,1.072,1.701,1.518c1.554,0.592,2.349,1.367,2.349,2.699c0,1.572-1.221,2.682-3.348,2.682
				c-0.979,0-1.886-0.24-2.515-0.611L1295.805,77.108z"/>
		</g>
	</g>
</g>
<g>
	<g>
		<g>
			<rect x="1171.031" y="99.366" fill="#324041" width="234" height="54"/>
		</g>
	</g>
	<g>
		<g>
			<path fill="#F4F9F9" d="M1197.41,108.392c-9.953,0-18.022,8.068-18.022,18.021s8.069,18.021,18.022,18.021
				s18.021-8.068,18.021-18.021S1207.363,108.392,1197.41,108.392z M1196.794,132.87c-1.124,0-1.887-0.828-1.887-1.93
				c0-1.123,0.784-1.93,1.887-1.93c1.145,0,1.886,0.807,1.907,1.93C1198.701,132.042,1197.938,132.87,1196.794,132.87z
				 M1199.235,124.985c-0.784,0.867-1.204,1.695-1.204,2.648v0.732h-2.572l-0.021-0.728c-0.064-1.08,0.297-2.271,1.25-3.415
				c0.679-0.807,1.23-1.528,1.23-2.249c0-0.742-0.488-1.249-1.549-1.292c-0.699,0-1.547,0.242-2.098,0.625l-0.721-2.317
				c0.764-0.445,2.035-0.873,3.539-0.873c2.799,0,4.008,1.548,4.008,3.308C1201.098,123.036,1200.041,124.095,1199.235,124.985z"/>
		</g>
	</g>
	<g>
		<g>
			<path fill="#FCFAFC" d="M1242.384,121.286v5.215h6.028v-5.215h1.628v12.465h-1.628v-5.844h-6.028v5.844h-1.609v-12.465H1242.384z
				"/>
		</g>
		<g>
			<path fill="#FCFAFC" d="M1253.679,129.571c0.037,2.201,1.442,3.107,3.069,3.107c1.166,0,1.868-0.205,2.479-0.463l0.277,1.164
				c-0.573,0.26-1.553,0.555-2.978,0.555c-2.755,0-4.401-1.811-4.401-4.512c0-2.699,1.591-4.826,4.198-4.826
				c2.922,0,3.698,2.57,3.698,4.217c0,0.332-0.037,0.592-0.055,0.758H1253.679z M1258.45,128.405
				c0.019-1.035-0.426-2.645-2.257-2.645c-1.646,0-2.367,1.518-2.496,2.645H1258.45z"/>
		</g>
		<g>
			<path fill="#FCFAFC" d="M1262.034,120.62h1.628v13.131h-1.628V120.62z"/>
		</g>
		<g>
			<path fill="#FCFAFC" d="M1266.396,127.722c0-1.146-0.037-2.072-0.074-2.922h1.462l0.073,1.535h0.037
				c0.666-1.092,1.721-1.738,3.182-1.738c2.164,0,3.791,1.83,3.791,4.549c0,3.219-1.961,4.809-4.068,4.809
				c-1.184,0-2.22-0.518-2.756-1.406h-0.037v4.865h-1.609V127.722z M1268.006,130.106c0,0.242,0.037,0.463,0.074,0.666
				c0.296,1.129,1.275,1.906,2.441,1.906c1.719,0,2.719-1.406,2.719-3.459c0-1.795-0.943-3.328-2.664-3.328
				c-1.109,0-2.145,0.795-2.459,2.016c-0.056,0.203-0.111,0.443-0.111,0.666V130.106z"/>
		</g>
	</g>
</g>
<g display="none">
	<path display="inline" opacity="0.55" fill="#327F37" d="M346.031-539.937c0,44.35-35.953,80.303-80.303,80.303h-416.395
		c-44.35,0-80.303-35.953-80.303-80.303v-0.394c0-44.35,35.953-80.303,80.303-80.303h416.395c44.35,0,80.303,35.953,80.303,80.303
		V-539.937z"/>
	<path display="inline" opacity="0.55" fill="#327F37" d="M285.031-539.937c0,44.35-35.953,80.303-80.303,80.303h-416.395
		c-44.35,0-80.303-35.953-80.303-80.303v-0.394c0-44.35,35.953-80.303,80.303-80.303h416.395c44.35,0,80.303,35.953,80.303,80.303
		V-539.937z"/>
	<path display="inline" opacity="0.55" fill="#327F37" d="M309.031-520.937c0,44.35-35.315,80.303-78.372,80.303h-404.256
		c-43.057,0-78.372-35.953-78.372-80.303v-0.394c0-44.35,35.315-80.303,78.372-80.303h404.256c43.057,0,78.372,35.953,78.372,80.303
		V-520.937z"/>
	<path display="inline" opacity="0.55" fill="#327F37" d="M309.031-564.937c0,44.35-35.315,80.303-78.372,80.303h-404.256
		c-43.057,0-78.372-35.953-78.372-80.303v-0.394c0-44.35,35.315-80.303,78.372-80.303h404.256c43.057,0,78.372,35.953,78.372,80.303
		V-564.937z"/>
	<path display="inline" fill="#327F37" d="M317.031-546.937c0,44.35-35.953,80.303-80.303,80.303h-416.395
		c-44.35,0-80.303-35.953-80.303-80.303v-0.394c0-44.35,35.953-80.303,80.303-80.303h416.395c44.35,0,80.303,35.953,80.303,80.303
		V-546.937z"/>
	
		<text transform="matrix(1 0 0 1 -188.0332 -500.3906)" display="inline" fill="#1E191F" stroke="#000000" stroke-miterlimit="10" font-family="'Georgia'" font-size="139.5249">ICONS</text>
</g>
</svg>
