<svg width="69.75" height="69.25" xmlns="http://www.w3.org/2000/svg">

 <g>
  <title>background</title>
  <rect fill="none" id="canvas_background" height="402" width="582" y="-1" x="-1"/>
 </g>
 <g>
  <title>Layer 1</title>
  <g id="svg_1">
   <g id="svg_7">
    <g id="svg_8">
     <circle id="svg_9" r="15.286" cy="35.083" cx="34.511" fill="#66625F"/>
    </g>
   </g>
   <g id="svg_10">
    <g id="svg_11">
     <path id="svg_12" d="m23.482,42.563l0,-1.376l1.757,-1.707c4.23,-4.025 6.14,-6.166 6.166,-8.662c0,-1.683 -0.814,-3.237 -3.287,-3.237c-1.503,0 -2.75,0.765 -3.516,1.401l-0.713,-1.58c1.146,-0.968 2.777,-1.682 4.687,-1.682c3.569,0 5.071,2.446 5.071,4.816c0,3.058 -2.216,5.528 -5.706,8.893l-1.326,1.224l0,0.05l7.441,0l0,1.86l-10.574,0z" fill="#1B3637"/>
    </g>
    <g id="svg_13">
     <path id="svg_14" d="m38.311,30.231l1.76,2.649c0.457,0.689 0.84,1.326 1.246,2.014l0.076,0c0.409,-0.739 0.817,-1.376 1.225,-2.039l1.732,-2.624l2.42,0l-4.203,5.962l4.33,6.37l-2.547,0l-1.809,-2.776c-0.484,-0.715 -0.894,-1.402 -1.326,-2.141l-0.05,0c-0.407,0.738 -0.841,1.401 -1.3,2.141l-1.783,2.776l-2.471,0l4.381,-6.294l-4.18,-6.038l2.499,0z" fill="#1B3637"/>
    </g>
   </g>
  </g>
  <g id="svg_15">
   <g id="svg_16">
    <circle id="svg_17" r="32" cy="46.209" cx="-501.205" fill="#102223"/>
   </g>
   <g id="svg_18">
    <path id="svg_19" d="m-501.205,79.709c-18.472,0 -33.5,-15.027 -33.5,-33.5c0,-18.472 15.028,-33.5 33.5,-33.5s33.5,15.028 33.5,33.5c0,18.473 -15.028,33.5 -33.5,33.5zm0,-64c-16.817,0 -30.5,13.684 -30.5,30.5c0,16.817 13.683,30.501 30.5,30.501s30.5,-13.684 30.5,-30.501c0,-16.816 -13.683,-30.5 -30.5,-30.5z" fill="#1B3637"/>
   </g>
  </g>
  <g id="svg_20">
   <g id="svg_21">
    <path id="svg_22" d="m-499.546,59.5l-12.704,0l0,-2l12.704,0c4.976,0 9.296,-4.58 9.296,-9.556l0,-0.147c0,-4.976 -4.321,-9.297 -9.296,-9.297l-6.704,0l0,-2l6.704,0c6.18,0 11.296,5.118 11.296,11.297l0,0.147c0,6.179 -5.117,11.556 -11.296,11.556z" fill="#666364"/>
   </g>
   <g id="svg_23">
    <g id="svg_24">
     <polygon id="svg_25" points="-505.683,32.854 -514.084,37.893 -505.521,42.65    " fill="#666364"/>
    </g>
   </g>
  </g>
 </g>
</svg>