<?xml version="1.0" encoding="utf-8"?>
<!-- Generator: Adobe Illustrator 16.0.0, SVG Export Plug-In . SVG Version: 6.00 Build 0)  -->
<!DOCTYPE svg PUBLIC "-//W3C//DTD SVG 1.1//EN" "http://www.w3.org/Graphics/SVG/1.1/DTD/svg11.dtd">
<svg version="1.1" id="Layer_1" xmlns="http://www.w3.org/2000/svg" xmlns:xlink="http://www.w3.org/1999/xlink" x="0px" y="0px"
	 width="64px" height="64px" viewBox="0 0 64 64" enable-background="new 0 0 64 64" xml:space="preserve">
<linearGradient id="SVGID_1_" gradientUnits="userSpaceOnUse" x1="4.0205" y1="830.4248" x2="55.0251" y2="206.3625">
	<stop  offset="0" style="stop-color:#240D29"/>
	<stop  offset="1" style="stop-color:#302A3E"/>
</linearGradient>
<rect x="-1236.818" y="-642.269" display="none" fill="url(#SVGID_1_)" width="2607" height="1412"/>
<g>
	<g>
		<g>
			<circle fill="#1E101F" cx="1415.693" cy="-182.494" r="32"/>
		</g>
		<g>
			<path fill="#3A3039" d="M1415.693-148.994c-18.472,0-33.5-15.028-33.5-33.5s15.028-33.5,33.5-33.5s33.5,15.028,33.5,33.5
				S1434.165-148.994,1415.693-148.994z M1415.693-212.994c-16.817,0-30.5,13.683-30.5,30.5s13.683,30.5,30.5,30.5
				s30.5-13.683,30.5-30.5S1432.511-212.994,1415.693-212.994z"/>
		</g>
	</g>
	<g>
		<g>
			<rect x="1404.182" y="-193.269" fill="#FFFFFF" width="23" height="2"/>
		</g>
	</g>
	<g>
		<g>
			<rect x="1404.182" y="-182.269" fill="#FFFFFF" width="23" height="2"/>
		</g>
	</g>
	<g>
		<g>
			<rect x="1404.182" y="-170.269" fill="#FFFFFF" width="23" height="2"/>
		</g>
	</g>
</g>
<g>
	<g>
		<g>
			<circle fill="#ADB4B4" cx="1415.693" cy="344.506" r="32"/>
		</g>
	</g>
	<g>
		<g>
			<rect x="1404.182" y="334.731" fill="#242A2A" width="23" height="3"/>
		</g>
	</g>
	<g>
		<g>
			<rect x="1404.182" y="345.731" fill="#242A2A" width="23" height="3"/>
		</g>
	</g>
	<g>
		<g>
			<rect x="1404.182" y="357.731" fill="#242A2A" width="23" height="3"/>
		</g>
	</g>
</g>
<g>
	<g>
		<g>
			<circle fill="#102223" cx="1415.693" cy="-103.382" r="32"/>
		</g>
		<g>
			<path fill="#1B3637" d="M1415.693-69.882c-18.472,0-33.5-15.028-33.5-33.5s15.028-33.5,33.5-33.5s33.5,15.028,33.5,33.5
				S1434.165-69.882,1415.693-69.882z M1415.693-133.882c-16.817,0-30.5,13.683-30.5,30.5s13.683,30.5,30.5,30.5
				s30.5-13.683,30.5-30.5S1432.511-133.882,1415.693-133.882z"/>
		</g>
	</g>
	<g>
		<g>
			<g>
				<path fill="#545555" d="M1418.771-93.269h-12.59v-2h12.59c4.865,0,7.41-4.877,7.41-9.695c0-4.867-2.493-7.305-7.41-7.305h-9.59
					v-2h9.59c5.98,0,9.41,3.369,9.41,9.244C1428.182-99.152,1424.949-93.269,1418.771-93.269z"/>
			</g>
		</g>
		<g>
			<g>
				<line fill="#3A3039" x1="1409.354" y1="-114.382" x2="1409.354" y2="-114.382"/>
			</g>
		</g>
		<g>
			<g>
				<g>
					<path fill="#545555" d="M1405.088-112.888c2.751-1.269,6.126-3.331,8.157-5.397l-1.351,4.874l2.08,4.608
						C1411.651-110.533,1408-112.056,1405.088-112.888z"/>
				</g>
			</g>
		</g>
	</g>
</g>
<g>
	<g>
		<g>
			<circle fill="#102223" cx="32.193" cy="32.027" r="30.567"/>
		</g>
		<g>
			<path fill="#1B3637" d="M32.193,64.028c-17.645,0-32-14.356-32-32.001s14.355-31.999,32-31.999s32,14.354,32,31.999
				S49.838,64.028,32.193,64.028z M32.193,2.894c-16.064,0-29.135,13.069-29.135,29.134s13.07,29.135,29.135,29.135
				s29.135-13.07,29.135-29.135S48.258,2.894,32.193,2.894z"/>
		</g>
	</g>
	<g>
		<g>
			<g>
				<g>
					<path fill="#545555" d="M32.098,44.864c-7.079,0-12.837-5.759-12.837-12.836c0-7.078,5.758-12.837,12.837-12.837
						c3.97,0,7.655,1.802,10.111,4.946l-1.506,1.175c-2.091-2.676-5.228-4.211-8.605-4.211c-6.025,0-10.927,4.901-10.927,10.927
						c0,6.024,4.901,10.926,10.927,10.926c3.294,0,6.381-1.469,8.47-4.027l1.479,1.207C39.595,43.141,35.968,44.864,32.098,44.864z"
						/>
				</g>
			</g>
		</g>
		<g>
			<g>
				<g>
					<path fill="#545555" d="M43.505,27.829c-2.408-1.603-5.777-3.314-8.475-3.934l4.641-1.341l2.708-4
						C42.134,21.312,42.724,25.044,43.505,27.829z"/>
				</g>
			</g>
		</g>
	</g>
</g>
<g>
	<g>
		<circle fill="#102223" cx="1415.693" cy="80.646" r="32"/>
	</g>
	<g>
		<path fill="#1B3637" d="M1415.693,114.146c-18.472,0-33.5-15.028-33.5-33.5s15.028-33.499,33.5-33.499s33.5,15.027,33.5,33.499
			S1434.165,114.146,1415.693,114.146z M1415.693,50.147c-16.817,0-30.5,13.682-30.5,30.499s13.683,30.5,30.5,30.5
			s30.5-13.683,30.5-30.5S1432.511,50.147,1415.693,50.147z"/>
	</g>
</g>
<g>
	<g>
		<circle fill="#66625F" cx="1415.073" cy="80.647" r="15.286"/>
	</g>
</g>
<g>
	<g>
		<path fill="#1B3637" d="M1407.941,85.325v-0.918l1.172-1.139c2.822-2.686,4.097-4.113,4.113-5.779
			c0-1.122-0.543-2.159-2.192-2.159c-1.003,0-1.835,0.51-2.346,0.935l-0.476-1.054c0.765-0.646,1.853-1.122,3.127-1.122
			c2.381,0,3.383,1.632,3.383,3.213c0,2.04-1.479,3.688-3.807,5.933l-0.885,0.816v0.033h4.964v1.241H1407.941z"/>
	</g>
	<g>
		<path fill="#1B3637" d="M1417.834,77.098l1.174,1.769c0.305,0.459,0.561,0.884,0.832,1.343h0.051
			c0.272-0.493,0.545-0.918,0.816-1.36l1.156-1.751h1.614l-2.805,3.978l2.89,4.25h-1.699l-1.207-1.853
			c-0.323-0.477-0.596-0.936-0.885-1.428h-0.033c-0.271,0.492-0.561,0.935-0.867,1.428l-1.189,1.853h-1.648l2.923-4.198
			l-2.788-4.029H1417.834z"/>
	</g>
</g>
<g>
	<g>
		<circle fill="#A69AA6" cx="1415.693" cy="166.646" r="32"/>
	</g>
</g>
<g>
	<g>
		<path fill="#020202" d="M1424.934,175.731h-5.752v-2h5.75c0.484-0.001,0.966-0.056,1.431-0.164l0.453,1.947
			C1426.204,175.657,1425.57,175.73,1424.934,175.731z M1417.182,175.731h-8v-2h8V175.731z M1407.182,175.731h-2.75
			c-1.869,0-3.632-0.609-5.097-1.762l1.236-1.572c1.109,0.873,2.444,1.334,3.86,1.334h2.75V175.731z M1429.092,174.607l-1.01-1.727
			c1.912-1.118,3.1-3.188,3.1-5.399l2-0.084v0.084C1433.182,170.401,1431.614,173.132,1429.092,174.607z M1397.656,172.189
			c-0.965-1.386-1.475-3.014-1.475-4.708v-0.5c0-1.02,0.185-2.015,0.547-2.958l1.867,0.719c-0.274,0.713-0.414,1.467-0.414,2.239
			v0.5c0,1.284,0.386,2.517,1.115,3.565L1397.656,172.189z M1431.003,165.49c-0.525-2.15-2.172-3.876-4.296-4.504l0.566-1.918
			c2.805,0.829,4.979,3.107,5.673,5.947L1431.003,165.49z M1399.511,163.128l-1.574-1.234c1.576-2.01,3.942-3.162,6.492-3.162h0.003
			h0.75v2h-0.75h-0.003C1402.497,160.731,1400.705,161.604,1399.511,163.128z M1425.182,160.731h-8v-2h8V160.731z M1415.182,160.731
			h-8v-2h8V160.731z"/>
	</g>
</g>
<g>
	<g>
		<g>
			<circle fill="#E3E7E3" cx="1415.402" cy="253.039" r="32"/>
		</g>
	</g>
	<g>
		<g>
			<circle fill="#A51700" cx="1415.403" cy="253.039" r="19.958"/>
		</g>
	</g>
	<g>
		<g>
			<path fill="#F98878" d="M1415.402,270.191c-9.457,0-17.15-7.694-17.15-17.152c0-9.457,7.693-17.15,17.15-17.15
				s17.151,7.693,17.151,17.15C1432.554,262.497,1424.859,270.191,1415.402,270.191z M1415.402,236.889
				c-8.905,0-16.15,7.245-16.15,16.15c0,8.906,7.245,16.152,16.15,16.152c8.906,0,16.151-7.246,16.151-16.152
				C1431.554,244.134,1424.309,236.889,1415.402,236.889z"/>
		</g>
	</g>
	<g>
		<g>
			<path fill="#F2F7F7" d="M1419.939,247.999h-5.76l-0.32,2.285c0.32-0.045,0.595-0.045,0.96-0.045c1.418,0,2.857,0.32,3.909,1.074
				c1.12,0.754,1.806,1.988,1.806,3.727c0,2.766-2.377,5.211-6.377,5.211c-1.806,0-3.314-0.412-4.138-0.846l0.617-2.605
				c0.663,0.32,2.012,0.73,3.36,0.73c1.439,0,2.972-0.686,2.972-2.262c0-1.531-1.212-2.469-4.184-2.469
				c-0.822,0-1.395,0.045-2.012,0.137l0.983-7.795h8.183V247.999z"/>
		</g>
	</g>
	<g>
		<g>
			<rect x="1384.182" y="254.731" fill="#A51700" width="12" height="2"/>
		</g>
	</g>
	<g>
		<g>
			<rect x="1434.182" y="254.731" fill="#A51700" width="13" height="2"/>
		</g>
	</g>
	<g>
		<g>
			<g>
				<rect x="1413.182" y="221.731" fill="#A51700" width="2" height="12"/>
			</g>
		</g>
		<g>
			<g>
				<polygon fill="#A51700" points="1400.442,224.752 1404.403,236.389 1409.06,234.117 1405.928,222.468 				"/>
			</g>
		</g>
		<g>
			<g>
				<polygon fill="#A51700" points="1421.517,222.191 1418.822,234.185 1423.979,235.677 1427.388,223.104 				"/>
			</g>
		</g>
	</g>
	<g>
		<g>
			<rect x="1413.182" y="271.731" fill="#A51700" width="2" height="13"/>
		</g>
	</g>
	<g>
		<g>
			<polygon fill="#A51700" points="1405.341,269.082 1400.104,280.622 1405.152,282.783 1410.043,271.757 			"/>
		</g>
	</g>
	<g>
		<g>
			<polygon fill="#A51700" points="1419.017,272.282 1421.597,284.301 1426.484,282.587 1424.729,270.651 			"/>
		</g>
	</g>
	<g>
		<g>
			<path fill="#A51700" d="M1395.182,251.731h-11c0,0-0.056-5.49,0-5.736s-0.025-0.246-0.025-0.246l12.306,0.992l-0.28,4.99
				H1395.182z"/>
		</g>
	</g>
	<g>
		<g>
			<path fill="#A51700" d="M1397.657,264.643l-10.774,2.313c0,0-2.132-5.569-2.124-5.822c0.007-0.252,0.928-0.236,0.928-0.236
				l12.266-1.397l1.687,4.951L1397.657,264.643z"/>
		</g>
	</g>
	<g>
		<g>
			<path fill="#A51700" d="M1433.182,246.731h13c0,0,1.199,4.785,1.21,5.469c0.011,0.686,0.011,0.531,0.011,0.531h-13.221
				L1433.182,246.731z"/>
		</g>
	</g>
	<g>
		<g>
			<polygon fill="#A51700" points="1434.182,259.731 1446.182,259.731 1445.047,264.731 1431.182,264.731 			"/>
		</g>
	</g>
</g>
<g display="none">
	<path display="inline" opacity="0.55" fill="#327F37" d="M407.182-490.572c0,44.35-35.953,80.303-80.303,80.303H-89.516
		c-44.35,0-80.303-35.953-80.303-80.303v-0.394c0-44.35,35.953-80.303,80.303-80.303h416.395c44.35,0,80.303,35.953,80.303,80.303
		V-490.572z"/>
	<path display="inline" opacity="0.55" fill="#327F37" d="M346.182-490.572c0,44.35-35.953,80.303-80.303,80.303h-416.395
		c-44.35,0-80.303-35.953-80.303-80.303v-0.394c0-44.35,35.953-80.303,80.303-80.303h416.395c44.35,0,80.303,35.953,80.303,80.303
		V-490.572z"/>
	<path display="inline" opacity="0.55" fill="#327F37" d="M370.182-471.572c0,44.35-35.315,80.303-78.372,80.303h-404.256
		c-43.057,0-78.372-35.953-78.372-80.303v-0.394c0-44.35,35.315-80.303,78.372-80.303H291.81c43.057,0,78.372,35.953,78.372,80.303
		V-471.572z"/>
	<path display="inline" opacity="0.55" fill="#327F37" d="M370.182-515.572c0,44.35-35.315,80.303-78.372,80.303h-404.256
		c-43.057,0-78.372-35.953-78.372-80.303v-0.394c0-44.35,35.315-80.303,78.372-80.303H291.81c43.057,0,78.372,35.953,78.372,80.303
		V-515.572z"/>
	<path display="inline" fill="#327F37" d="M378.182-497.572c0,44.35-35.953,80.303-80.303,80.303h-416.395
		c-44.35,0-80.303-35.953-80.303-80.303v-0.394c0-44.35,35.953-80.303,80.303-80.303h416.395c44.35,0,80.303,35.953,80.303,80.303
		V-497.572z"/>
	
		<text transform="matrix(1 0 0 1 -126.8828 -451.0254)" display="inline" fill="#1E191F" stroke="#000000" stroke-miterlimit="10" font-family="'Georgia'" font-size="139.5249">ICONS</text>
</g>
</svg>
