<?xml version="1.0" encoding="utf-8"?>
<!-- Generator: Adobe Illustrator 16.0.0, SVG Export Plug-In . SVG Version: 6.00 Build 0)  -->
<!DOCTYPE svg PUBLIC "-//W3C//DTD SVG 1.1//EN" "http://www.w3.org/Graphics/SVG/1.1/DTD/svg11.dtd">
<svg version="1.1" id="Layer_1" xmlns="http://www.w3.org/2000/svg" xmlns:xlink="http://www.w3.org/1999/xlink" x="0px" y="0px"
	 width="84.459px" height="53.486px" viewBox="0 0 84.459 53.486" enable-background="new 0 0 84.459 53.486" xml:space="preserve">
<g>
	<g>
		<ellipse fill="#083740" cx="42.229" cy="27.902" rx="36.278" ry="21.084"/>
		<path fill="#B8CC86" d="M42.23,51.486c-21.745,0-38.778-10.359-38.778-23.584C3.452,14.678,20.485,4.32,42.23,4.32
			c21.744,0,38.777,10.358,38.777,23.582C81.007,41.126,63.974,51.486,42.23,51.486z M42.23,9.32
			c-18.31,0-33.778,8.51-33.778,18.582c0,10.073,15.469,18.584,33.778,18.584c18.309,0,33.777-8.511,33.777-18.584
			C76.007,17.83,60.539,9.32,42.23,9.32z"/>
	</g>
	<g>
		<path fill="#FFFFFF" d="M24.058,29.078l-1.979,2.555h-1.627l6.454-8.084h1.813l1.72,8.084h-1.572l-0.499-2.555H24.058z
			 M28.237,28.287l-0.48-2.34c-0.074-0.419-0.166-1.007-0.222-1.486h-0.037c-0.333,0.479-0.647,0.983-1.018,1.475l-1.867,2.352
			H28.237z"/>
		<path fill="#FFFFFF" d="M32.031,31.632l2.367-8.084h1.683l2.867,4.582c0.536,0.911,0.832,1.559,1.091,2.255l0.037-0.013
			c0.074-0.73,0.203-1.402,0.518-2.53l1.258-4.294h1.461l-2.386,8.084H39.41l-2.829-4.569c-0.61-0.995-0.888-1.571-1.165-2.327
			l-0.056,0.012c-0.13,0.756-0.333,1.56-0.647,2.663l-1.239,4.222H32.031z"/>
		<path fill="#FFFFFF" d="M47.994,24.412H44.35l0.259-0.863h8.84l-0.259,0.863h-3.662l-2.107,7.221h-1.535L47.994,24.412z"/>
		<path fill="#FFFFFF" d="M59.665,27.831h-4.531l-0.851,2.95h5.104l-0.259,0.852h-6.64l2.367-8.084h6.362l-0.26,0.852h-4.808
			l-0.759,2.591h4.531L59.665,27.831z"/>
	</g>
</g>
<g>
	<g>
		
			<ellipse transform="matrix(0.9965 -0.0833 0.0833 0.9965 -19.6083 -43.6998)" fill="#083740" cx="-533.712" cy="213.23" rx="37.319" ry="19.807"/>
		<path fill="#B8CC86" d="M-537.914,235.714c-19.63,0-34.551-8.062-35.479-19.169c-0.521-6.238,3.338-12.339,10.866-17.178
			c7.05-4.531,16.624-7.503,26.958-8.365c2.023-0.169,4.062-0.255,6.06-0.255c19.629,0,34.55,8.061,35.478,19.167
			c1.041,12.465-15.573,23.686-37.822,25.545C-533.877,235.628-535.916,235.714-537.914,235.714z M-529.51,195.748
			c-1.859,0-3.758,0.08-5.644,0.237c-9.534,0.796-18.295,3.491-24.67,7.589c-5.897,3.791-8.947,8.25-8.587,12.556
			c0.695,8.314,13.806,14.585,30.497,14.585c1.859,0,3.758-0.08,5.644-0.237c18.807-1.572,34.036-10.798,33.256-20.146
			C-499.709,202.017-512.819,195.748-529.51,195.748z"/>
	</g>
	<g>
		<path fill="#FFFFFF" d="M-554.756,207.46c0.686-0.089,1.505-0.154,2.425-0.154c1.153,0,1.99,0.164,2.592,0.517
			c0.519,0.275,0.819,0.671,0.819,1.155c0,0.936-1.153,1.629-2.441,1.848v0.022c1.021,0.198,1.873,0.759,1.856,1.65
			c0,0.759-0.619,1.353-1.354,1.716c-0.887,0.44-2.124,0.605-3.646,0.605c-0.971,0-1.807-0.033-2.342-0.1L-554.756,207.46z
			 M-555.291,214.039c0.351,0.033,0.769,0.045,1.153,0.045c1.639,0.01,3.178-0.441,3.178-1.629c0-0.869-1.12-1.254-2.392-1.254
			h-1.12L-555.291,214.039z M-554.255,210.507h1.037c1.605,0,2.859-0.551,2.859-1.452c0-0.716-0.819-1.023-2.04-1.023
			c-0.519,0-0.937,0.033-1.153,0.077L-554.255,210.507z"/>
		<path fill="#FFFFFF" d="M-537.717,210.277c0,1.287-0.702,2.705-2.04,3.586c-1.004,0.648-2.308,1.034-3.863,1.034
			c-2.91,0-4.281-1.441-4.281-3.015c0-1.309,0.786-2.75,2.157-3.642c0.953-0.616,2.358-1.001,3.779-1.001
			C-538.938,207.24-537.717,208.692-537.717,210.277z M-544.724,208.757c-1.087,0.716-1.723,2.014-1.723,3.049
			c0,1.209,0.819,2.32,3.027,2.32c0.953,0,1.873-0.275,2.575-0.736c1.054-0.705,1.672-2.035,1.672-3.07
			c0-1.056-0.519-2.311-2.977-2.311C-543.151,208.009-544.038,208.296-544.724,208.757z"/>
		<path fill="#FFFFFF" d="M-537.017,214.776l2.141-7.415h1.521l2.593,4.203c0.484,0.836,0.752,1.43,0.986,2.068l0.033-0.012
			c0.067-0.671,0.185-1.287,0.469-2.321l1.137-3.938h1.321l-2.157,7.415h-1.371l-2.559-4.191c-0.552-0.913-0.803-1.441-1.054-2.134
			l-0.051,0.01c-0.117,0.693-0.301,1.431-0.585,2.443l-1.12,3.872H-537.017z"/>
		<path fill="#FFFFFF" d="M-522.938,207.361l-1.271,4.39c-0.084,0.308-0.134,0.627-0.134,0.935c0,0.947,0.836,1.431,2.09,1.431
			c1.539,0,2.676-0.683,3.145-2.343l1.287-4.412h1.389l-1.288,4.434c-0.652,2.211-2.324,3.103-4.716,3.103
			c-1.856,0-3.295-0.66-3.295-2.189c0-0.319,0.051-0.683,0.15-1.022l1.255-4.324H-522.938z"/>
		<path fill="#FFFFFF" d="M-516.033,213.632c0.603,0.274,1.455,0.473,2.392,0.473c1.271,0,2.441-0.495,2.441-1.397
			c0-0.55-0.484-0.957-1.655-1.386c-1.438-0.506-2.241-1.101-2.241-1.904c0-1.319,1.739-2.178,3.813-2.178
			c1.087,0,1.906,0.221,2.308,0.396l-0.502,0.736c-0.351-0.132-1.054-0.352-1.956-0.341c-1.389,0-2.225,0.605-2.225,1.21
			c0,0.605,0.568,0.946,1.739,1.375c1.388,0.484,2.157,1.068,2.157,1.98c0,1.287-1.538,2.289-4.063,2.289
			c-1.138,0-2.241-0.242-2.709-0.506L-516.033,213.632z"/>
	</g>
</g>
</svg>
