<?xml version="1.0" encoding="utf-8"?>
<!-- Generator: Adobe Illustrator 16.0.0, SVG Export Plug-In . SVG Version: 6.00 Build 0)  -->
<!DOCTYPE svg PUBLIC "-//W3C//DTD SVG 1.1//EN" "http://www.w3.org/Graphics/SVG/1.1/DTD/svg11.dtd">
<svg version="1.1" id="Layer_1" xmlns="http://www.w3.org/2000/svg" xmlns:xlink="http://www.w3.org/1999/xlink" x="0px" y="0px"
	 width="69.75px" height="69.25px" viewBox="0 0 69.75 69.25" enable-background="new 0 0 69.75 69.25" xml:space="preserve">
<g>
	<g>
		<circle fill="#102223" cx="34.795" cy="34.209" r="32"/>
	</g>
	<g>
		<path fill="#1B3637" d="M34.795,67.709c-18.472,0-33.5-15.027-33.5-33.5c0-18.472,15.028-33.5,33.5-33.5s33.5,15.028,33.5,33.5
			C68.295,52.682,53.267,67.709,34.795,67.709z M34.795,3.709c-16.817,0-30.5,13.684-30.5,30.5c0,16.817,13.683,30.501,30.5,30.501
			s30.5-13.684,30.5-30.501C65.295,17.393,51.612,3.709,34.795,3.709z"/>
	</g>
</g>
<g>
	<g>
		<path fill="#666364" d="M36.453,47.5H23.75v-2h12.703c4.977,0,9.297-4.58,9.297-9.556v-0.147c0-4.976-4.32-9.297-9.297-9.297
			H29.75v-2h6.703c6.18,0,11.297,5.118,11.297,11.297v0.147C47.75,42.123,42.633,47.5,36.453,47.5z"/>
	</g>
	<g>
		<g>
			<polygon fill="#666364" points="30.317,20.854 21.916,25.893 30.479,30.65 			"/>
		</g>
	</g>
</g>
</svg>
