<?xml version="1.0" encoding="utf-8"?>
<svg xmlns="http://www.w3.org/2000/svg" viewBox="-7 -9 44 44" style="fill: #dcdcdc;">
    <path d="M30 12.5a9 9 0 0 0-3.24-6.88L25.3 7.13a7 7 0 0 1 2.56 5.37 7.26 7.26 0 0 1-7.38 7.11H10.22v-3.32l-5 4.35 5 4.36v-3.33h10.31A9.35 9.35 0 0 0 30 12.5zm-5.25-8.14L19.78 0v3.33H9.47A9.35 9.35 0 0 0 0 12.5a9 9 0 0 0 3.18 6.82l1.57-1.41a7 7 0 0 1-2.61-5.41 7.26 7.26 0 0 1 7.38-7.11h10.26v3.32z"></path>
    <path d="M17.19 12.5l-4.38 3.28V9.22l4.38 3.28z"></path>
</svg>
